<?xml version="1.0" encoding="UTF-8" standalone="no"?>
<svg
   xmlns:dc="http://purl.org/dc/elements/1.1/"
   xmlns:cc="http://creativecommons.org/ns#"
   xmlns:rdf="http://www.w3.org/1999/02/22-rdf-syntax-ns#"
   xmlns:svg="http://www.w3.org/2000/svg"
   xmlns="http://www.w3.org/2000/svg"
   xmlns:xlink="http://www.w3.org/1999/xlink"
   xmlns:sodipodi="http://sodipodi.sourceforge.net/DTD/sodipodi-0.dtd"
   xmlns:inkscape="http://www.inkscape.org/namespaces/inkscape"
   inkscape:version="1.0 (4035a4fb49, 2020-05-01)"
   id="svg8"
   version="1.1"
   viewBox="0 0 508 285.75"
   height="285.75mm"
   width="508mm"
   sodipodi:docname="skia.svg">
  <defs
     id="defs2">
    <linearGradient
       inkscape:collect="always"
       xlink:href="#linearGradient6822"
       id="linearGradient6824"
       x1="65.004807"
       y1="271.49835"
       x2="-5.8989029"
       y2="270.85229"
       gradientUnits="userSpaceOnUse"
       gradientTransform="translate(211.60674,-72.236715)" />
    <linearGradient
       inkscape:collect="always"
       id="linearGradient6822">
      <stop
         style="stop-color:#565656;stop-opacity:0.96862745"
         offset="0"
         id="stop6818" />
      <stop
         style="stop-color:#ffffff;stop-opacity:1"
         offset="1"
         id="stop6820" />
    </linearGradient>
  </defs>
  <sodipodi:namedview
     id="base"
     pagecolor="#acacac"
     bordercolor="#666666"
     borderopacity="1.0"
     inkscape:pageopacity="0"
     inkscape:pageshadow="2"
     inkscape:zoom="0.70710678"
     inkscape:cx="1258.454"
     inkscape:cy="683.4291"
     inkscape:document-units="mm"
     inkscape:current-layer="svg8"
     inkscape:document-rotation="0"
     showgrid="false"
     inkscape:snap-global="true"
     inkscape:snap-nodes="true"
     inkscape:object-nodes="true"
     inkscape:snap-others="false"
     inkscape:snap-to-guides="false"
     inkscape:snap-grids="false"
     inkscape:lockguides="false"
     inkscape:window-width="1920"
     inkscape:window-height="1042"
     inkscape:window-x="1920"
     inkscape:window-y="30"
     inkscape:window-maximized="1"
     inkscape:snap-page="true"
     inkscape:object-paths="true"
     inkscape:snap-intersection-paths="true" />
  <metadata
     id="metadata5">
    <rdf:RDF>
      <cc:Work
         rdf:about="">
        <dc:format>image/svg+xml</dc:format>
        <dc:type
           rdf:resource="http://purl.org/dc/dcmitype/StillImage" />
        <dc:title />
      </cc:Work>
    </rdf:RDF>
  </metadata>
  <path
     id="img-bg"
     style="fill:#ffffff;stroke-width:3.31327;stroke-linecap:round;paint-order:markers fill stroke"
     d="M 9.9999998e-6,0 H 508.00001 V 285.75 H 9.9999998e-6 Z" />
  <path
     style="fill:#362e31;stroke:none;stroke-width:0.179434"
     d="m 262.86183,198.52021 v 3.40925 h 0.17944 z"
     id="path5968" />
  <path
     d="m 265.01483,184.52455 c 3.13311,5.01409 7.72668,10.26467 11.59671,14.73708 l 7.00214,-9.17464 4.01011,-5.56244 z"
     style="fill:#362e31;stroke:none;stroke-width:0.179434"
     id="img-tri" />
  <path
     sodipodi:nodetypes="cccscccccccccssccccccccccccccc"
     id="img-k"
     d="m 203.64854,111.49462 v 69.62047 h 18.84059 v -16.86682 c 0,-1.57579 -0.65583,-5.04712 0.18446,-6.39162 0.83257,-1.3323 3.95186,-2.68326 5.378,-3.29782 l 3.54239,6.99793 6.80935,13.0987 2.42739,4.66529 1.10729,1.68614 6.03078,0.1082 h 14.89304 c -1.09491,-3.46021 -3.69724,-6.88866 -5.48638,-10.04831 -3.40925,-6.0211 -6.69128,-12.1154 -10.12458,-18.12286 -1.39528,-2.44138 -2.73135,-4.91542 -4.12663,-7.3568 -0.44445,-0.77767 -1.54403,-2.11787 -1.39366,-3.05038 0.14355,-0.8909 1.06925,-1.7913 1.56843,-2.51208 1.3341,-1.92623 2.70156,-3.82931 4.05539,-5.7419 3.5921,-5.07512 7.14669,-10.17697 10.73878,-15.25191 1.6517,-2.33336 4.10079,-4.86715 5.12752,-7.53623 -6.80103,0.007 -20.3522,0.0161 -20.3522,0.0161 0,0 -1.39128,1.91581 -1.89764,2.67536 -1.32226,1.98329 -2.68506,3.93894 -4.00731,5.92133 -3.24256,4.86123 -6.4887,9.72318 -9.80465,14.53417 -1.55085,2.25028 -2.89588,4.73724 -4.66977,6.8185 v -22.42928 -5.38302 l -0.0397,-2.15151 -5.16393,-0.002 h -13.637"
     style="fill:#362e31;stroke:none;stroke-width:0.179434" />
  <path
     sodipodi:nodetypes="ccccccccscccsccccccccc"
     d="m 313.29819,111.60289 c 0,0 -1.73165,4.77816 -2.24483,6.53087 -1.39457,4.76219 -3.12071,9.43615 -4.59351,14.17536 -3.62009,11.64941 -7.68448,23.16087 -11.30475,34.81029 -1.44462,4.64913 -3.39259,9.24841 -4.48085,13.99551 h 20.63491 c 0.42095,-3.12626 1.50021,-6.26901 2.26549,-9.33016 0.23363,-0.93485 0.33922,-2.80321 1.06558,-3.48094 0.97002,-0.90487 4.53163,-0.28731 5.81983,-0.28731 h 16.86716 l 3.40908,13.09841 h 20.63493 c -5.50325,-17.20792 -11.2183,-34.35609 -16.92611,-51.49762 -1.47134,-4.41892 -2.89761,-8.85612 -4.36718,-13.27775 -0.39296,-1.18587 -1.76578,-4.84001 -1.76578,-4.84001 z m 12.72429,11.37554 7.53649,29.60647 h -15.07246 c 0.18732,-2.29391 1.08011,-4.59161 1.63761,-6.81821 l 3.22982,-12.91962 c 0.74012,-2.96103 1.08323,-7.27331 2.66854,-9.86864 z"
     style="fill:#362e31;stroke:none;stroke-width:0.179434"
     id="img-a" />
  <path
     id="img-blue"
     d="m 279.72865,111.31518 v 69.62048 h 6.45962 v -69.62048 h -6.45962"
     style="fill:#465ba6;fill-opacity:1;stroke:none;stroke-width:0.179434" />
  <path
     id="img-red"
     d="m 266.09165,111.31518 v 69.62048 h 6.8185 v -69.62048 h -6.8185"
     style="fill:#e94037;fill-opacity:1;stroke:none;stroke-width:0.179434" />
  <path
     id="img-s"
     d="m 146.76789,161.19789 v 12.38096 c 0,1.0113 -0.45787,3.55119 0.2877,4.31199 0.73806,0.75308 2.3322,1.0897 3.30098,1.46382 3.2946,1.27219 6.72733,1.97898 10.22775,2.32906 13.2121,1.32099 30.89858,-1.26107 34.09179,-16.89714 1.293,-6.33116 0.24026,-13.57169 -4.48783,-18.2996 -3.15087,-3.15105 -7.1885,-5.0229 -11.12223,-6.95684 -3.65203,-1.79542 -7.60478,-3.24884 -10.94549,-5.61396 -1.51694,-1.0741 -2.97143,-2.85103 -2.3976,-4.83701 0.80997,-2.80276 4.17077,-3.57002 6.70402,-3.58779 6.11028,-0.0432 11.41704,2.56878 17.04625,4.48496 l 5.7419,-14.53417 c -2.60718,-1.01129 -5.19175,-2.10261 -7.89511,-2.84367 -12.72135,-3.48713 -33.6685,-4.08913 -39.19073,11.09764 -0.78371,2.15537 -1.18108,4.52659 -1.18197,6.8185 -0.001,2.97987 0.28509,6.01482 1.43755,8.79228 3.18452,7.67476 10.71313,10.91014 17.76191,14.21478 3.15015,1.47674 7.57231,2.85157 9.58,5.88257 2.66154,4.01753 -2.33731,7.10075 -5.81188,7.33993 -5.13684,0.35385 -10.59413,-0.75541 -15.43134,-2.4412 -2.59577,-0.9047 -5.09202,-2.34933 -7.71567,-3.10511"
     style="fill:#362e31;stroke:none;stroke-width:0.179434" />
  <path
     id="img-dot"
     d="m 275.2428,83.938039 c -2.06441,0.281011 -4.01503,0.884229 -5.74191,2.08399 -10.18827,7.07852 -3.92692,23.710181 8.43341,22.191451 1.78144,-0.21891 3.49932,-0.80691 5.02417,-1.75486 10.52417,-6.54241 4.94411,-24.24395 -7.71567,-22.520581"
     style="fill:#362e31;stroke:none;stroke-width:0.179434" />
  <path
     style="fill:#70bf4f;fill-opacity:1;stroke:none;stroke-width:0.179434"
     d="m 272.91015,111.31518 v 69.62048 h 6.8185 v -69.62048 h -6.8185"
     id="img-green" />
  <path
     id="img-line"
     style="fill:url(#linearGradient6824);fill-opacity:1;stroke-width:0.453072;stroke-linecap:round;stroke-linejoin:round;paint-order:stroke fill markers;stop-color:#000000"
     d="m 202.52499,198.61558 h 67.93938 c 4.72056,0 8.52085,0.65991 8.52085,1.4796 v 0.19331 c 0,0.8197 -3.80029,1.4796 -8.52085,1.4796 h -67.93938 c -4.72055,0 -8.52084,-0.6599 -8.52084,-1.4796 v -0.19331 c 0,-0.81969 3.80029,-1.4796 8.52084,-1.4796 z" />
</svg>
