<?xml version='1.0' encoding='utf-8'?>
<mlt title="Anonymous Submission" LC_NUMERIC="id_ID.UTF-8" producer="main_bin" version="6.20.0" root="/home/sherlock/git/libreoffice-7.0">
 <profile frame_rate_num="30" sample_aspect_num="1" display_aspect_den="9" colorspace="709" progressive="1" description="HD 1080p 30 fps" display_aspect_num="16" frame_rate_den="1" width="1920" height="1080" sample_aspect_den="1"/>
 <producer title="Anonymous Submission" id="producer12" in="00:00:00,000" out="00:00:48,000">
  <property name="length">1441</property>
  <property name="eof">pause</property>
  <property name="resource">/home/sherlock/Video/7alpha/clip/about-motion-2020-05-22_07.38.23.mp4</property>
  <property name="audio_index">-1</property>
  <property name="video_index">0</property>
  <property name="mute_on_pause">0</property>
  <property name="mlt_service">avformat-novalidate</property>
  <property name="seekable">1</property>
  <property name="aspect_ratio">1</property>
  <property name="kdenlive:clipname">about-motion-2020-05-22_07.38.23.mp4</property>
  <property name="kdenlive:folderid">19</property>
  <property name="kdenlive:id">2</property>
  <property name="kdenlive:file_size">29632537</property>
  <property name="global_feed">1</property>
  <property name="kdenlive:originalurl">/home/sherlock/Video/LIbreRilis/about-motion-2020-05-22_07.38.23.mp4</property>
  <property name="meta.media.nb_streams">1</property>
  <property name="meta.media.0.stream.type">video</property>
  <property name="meta.media.0.stream.frame_rate">30,0208</property>
  <property name="meta.media.0.stream.sample_aspect_ratio">1</property>
  <property name="meta.media.0.codec.width">1920</property>
  <property name="meta.media.0.codec.height">1080</property>
  <property name="meta.media.0.codec.rotate">0</property>
  <property name="meta.media.0.codec.frame_rate">30</property>
  <property name="meta.media.0.codec.pix_fmt">yuv420p</property>
  <property name="meta.media.0.codec.sample_aspect_ratio">1</property>
  <property name="meta.media.0.codec.colorspace">709</property>
  <property name="meta.media.0.codec.color_trc">1</property>
  <property name="meta.media.0.codec.name">h264</property>
  <property name="meta.media.0.codec.long_name">H.264 / AVC / MPEG-4 AVC / MPEG-4 part 10</property>
  <property name="meta.media.0.codec.bit_rate">4934149</property>
  <property name="meta.attr.0.stream.handler_name.markup">VideoHandler</property>
  <property name="meta.attr.major_brand.markup">isom</property>
  <property name="meta.attr.minor_version.markup">512</property>
  <property name="meta.attr.compatible_brands.markup">isomiso2avc1mp41</property>
  <property name="meta.attr.encoder.markup">Lavf58.29.100</property>
  <property name="meta.media.sample_aspect_num">1</property>
  <property name="meta.media.sample_aspect_den">1</property>
  <property name="meta.media.frame_rate_num">43260</property>
  <property name="meta.media.frame_rate_den">1441</property>
  <property name="meta.media.colorspace">709</property>
  <property name="meta.media.color_trc">1</property>
  <property name="meta.media.width">1920</property>
  <property name="meta.media.height">1080</property>
  <property name="meta.media.color_range">mpeg</property>
  <property name="meta.media.top_field_first">0</property>
  <property name="meta.media.progressive">1</property>
  <property name="kdenlive:file_hash">d8ef8dfc2ad863112e947133352c5b08</property>
 </producer>
 <producer title="Anonymous Submission" id="producer31" in="00:00:00,000" out="00:00:04,967">
  <property name="length">00:00:05,000</property>
  <property name="eof">pause</property>
  <property name="resource">/home/sherlock/Video/7alpha/images/img-LibreOffice-7.0.png</property>
  <property name="ttl">25</property>
  <property name="aspect_ratio">1</property>
  <property name="progressive">1</property>
  <property name="seekable">1</property>
  <property name="meta.media.width">3000</property>
  <property name="meta.media.height">1688</property>
  <property name="mlt_service">qimage</property>
  <property name="kdenlive:clipname">img-LibreOffice-7.0.png</property>
  <property name="kdenlive:duration">00:00:05,000</property>
  <property name="kdenlive:folderid">38</property>
  <property name="kdenlive:id">3</property>
  <property name="kdenlive:file_size">61661</property>
  <property name="global_feed">1</property>
  <property name="kdenlive:originalurl">/home/sherlock/Video/7alpha/images/img-LibreOffice-7.0.png</property>
  <property name="kdenlive:file_hash">b07276b2b96198440d2bd336fd6a71c0</property>
 </producer>
 <producer id="producer28" in="00:00:00,000" out="00:00:04,967">
  <property name="length">00:00:05,000</property>
  <property name="eof">pause</property>
  <property name="resource">/home/sherlock/Video/7alpha/images/img-more-improvement.png</property>
  <property name="ttl">25</property>
  <property name="aspect_ratio">1</property>
  <property name="progressive">1</property>
  <property name="seekable">1</property>
  <property name="meta.media.width">3000</property>
  <property name="meta.media.height">1688</property>
  <property name="mlt_service">qimage</property>
  <property name="kdenlive:clipname">img-more-improvement.png</property>
  <property name="kdenlive:duration">00:00:05,000</property>
  <property name="kdenlive:folderid">38</property>
  <property name="kdenlive:id">4</property>
  <property name="kdenlive:file_size">88058</property>
  <property name="kdenlive:originalurl">g1119.png</property>
  <property name="global_feed">1</property>
  <property name="kdenlive:file_hash">a19600c285c6b306ad9f1397fbfbedb3</property>
 </producer>
 <producer id="producer26" in="00:00:00,000" out="00:00:04,967">
  <property name="length">00:00:05,000</property>
  <property name="eof">pause</property>
  <property name="resource">/home/sherlock/Video/7alpha/images/img-get-now.png</property>
  <property name="ttl">25</property>
  <property name="aspect_ratio">1</property>
  <property name="progressive">1</property>
  <property name="seekable">1</property>
  <property name="meta.media.width">3000</property>
  <property name="meta.media.height">1688</property>
  <property name="mlt_service">qimage</property>
  <property name="kdenlive:clipname">img-get-now.png</property>
  <property name="kdenlive:duration">00:00:05,000</property>
  <property name="kdenlive:folderid">38</property>
  <property name="kdenlive:id">5</property>
  <property name="kdenlive:file_size">71596</property>
  <property name="global_feed">1</property>
  <property name="kdenlive:originalurl">g1128.png</property>
  <property name="kdenlive:file_hash">e42b4ff5f46de8e8e13805f600714eed</property>
 </producer>
 <producer id="producer22" in="00:00:00,000" out="00:00:04,967">
  <property name="length">00:00:05,000</property>
  <property name="eof">pause</property>
  <property name="resource">images/img-download.png</property>
  <property name="ttl">25</property>
  <property name="aspect_ratio">1</property>
  <property name="progressive">1</property>
  <property name="seekable">1</property>
  <property name="meta.media.width">1920</property>
  <property name="meta.media.height">1080</property>
  <property name="mlt_service">qimage</property>
  <property name="kdenlive:clipname">img-download.png</property>
  <property name="kdenlive:duration">00:00:05,000</property>
  <property name="kdenlive:folderid">38</property>
  <property name="kdenlive:id">6</property>
  <property name="kdenlive:file_size">61674</property>
  <property name="global_feed">1</property>
  <property name="kdenlive:originalurl">/home/sherlock/Video/7alpha/images/img-download.png</property>
  <property name="kdenlive:file_hash">b651b9eb9f9aae71e239a3e230fcab46</property>
 </producer>
 <producer id="producer27" in="00:00:00,000" out="00:00:06,267">
  <property name="length">189</property>
  <property name="eof">pause</property>
  <property name="resource">/home/sherlock/Video/7alpha/images/img-logo.png</property>
  <property name="ttl">25</property>
  <property name="aspect_ratio">1</property>
  <property name="progressive">1</property>
  <property name="seekable">1</property>
  <property name="meta.media.width">3000</property>
  <property name="meta.media.height">1688</property>
  <property name="mlt_service">qimage</property>
  <property name="kdenlive:clipname">img-logo.png</property>
  <property name="kdenlive:duration">00:00:05,000</property>
  <property name="kdenlive:folderid">38</property>
  <property name="kdenlive:id">7</property>
  <property name="kdenlive:file_size">50953</property>
  <property name="global_feed">1</property>
  <property name="kdenlive:originalurl">g1179.png</property>
  <property name="kdenlive:file_hash">50f957a4ad63ae7e69693c21d136261e</property>
 </producer>
 <producer title="Anonymous Submission" id="producer30" in="00:00:00,000" out="00:03:14,800">
  <property name="length">5845</property>
  <property name="eof">pause</property>
  <property name="resource">0xffffffff</property>
  <property name="aspect_ratio">1</property>
  <property name="mlt_service">color</property>
  <property name="kdenlive:clipname">White</property>
  <property name="kdenlive:duration">00:00:05,000</property>
  <property name="kdenlive:folderid">38</property>
  <property name="kdenlive:id">8</property>
  <property name="kdenlive:file_hash">039b56a692cd66eefeea44a17539e5a2</property>
  <property name="global_feed">1</property>
 </producer>
 <producer title="Anonymous Submission" id="producer11" in="00:00:00,000" out="00:03:41,033">
  <property name="length">6632</property>
  <property name="eof">pause</property>
  <property name="resource">/home/sherlock/Video/7alpha/audio/Awakening.mp3</property>
  <property name="meta.media.nb_streams">1</property>
  <property name="meta.media.0.stream.type">audio</property>
  <property name="meta.media.0.codec.sample_fmt">fltp</property>
  <property name="meta.media.0.codec.sample_rate">44100</property>
  <property name="meta.media.0.codec.channels">2</property>
  <property name="meta.media.0.codec.name">mp3float</property>
  <property name="meta.media.0.codec.long_name">MP3 (MPEG audio layer 3)</property>
  <property name="meta.media.0.codec.bit_rate">320000</property>
  <property name="meta.attr.0.stream.encoder.markup">Lavf</property>
  <property name="meta.attr.title.markup">Awakening</property>
  <property name="meta.attr.artist.markup">Silent Partner</property>
  <property name="meta.attr.album.markup">YouTube Audio Library</property>
  <property name="meta.attr.genre.markup">Rock</property>
  <property name="meta.attr.encoder.markup">Google</property>
  <property name="seekable">1</property>
  <property name="audio_index">0</property>
  <property name="video_index">-1</property>
  <property name="mute_on_pause">1</property>
  <property name="mlt_service">avformat</property>
  <property name="kdenlive:clipname">Awakening.mp3</property>
  <property name="kdenlive:folderid">18</property>
  <property name="kdenlive:id">9</property>
  <property name="kdenlive:file_size">8844211</property>
  <property name="global_feed">1</property>
  <property name="kdenlive:originalurl">/home/sherlock/Unduhan/Telegram Desktop/Awakening.mp3</property>
  <property name="kdenlive:file_hash">ca425bf5f233d419e68b7a2f54104e84</property>
 </producer>
 <producer id="producer29" in="00:00:00,000" out="00:00:05,433">
  <property name="length">00:00:05,467</property>
  <property name="eof">pause</property>
  <property name="resource">/home/sherlock/Video/7alpha/images/img-thanks.png</property>
  <property name="ttl">25</property>
  <property name="aspect_ratio">1</property>
  <property name="progressive">1</property>
  <property name="seekable">1</property>
  <property name="meta.media.width">3000</property>
  <property name="meta.media.height">1688</property>
  <property name="mlt_service">qimage</property>
  <property name="kdenlive:clipname">img-thanks.png</property>
  <property name="kdenlive:duration">00:00:05,000</property>
  <property name="kdenlive:folderid">38</property>
  <property name="kdenlive:id">10</property>
  <property name="kdenlive:file_size">58784</property>
  <property name="global_feed">1</property>
  <property name="kdenlive:originalurl">g1424.png</property>
  <property name="kdenlive:file_hash">bbfe102718faa7acbf3dbceb3190836b</property>
 </producer>
 <producer id="producer23" in="00:00:00,000" out="00:00:04,967">
  <property name="length">00:00:05,000</property>
  <property name="eof">pause</property>
  <property name="resource">/home/sherlock/Video/7alpha/images/img-credit-illustrations.png</property>
  <property name="ttl">25</property>
  <property name="aspect_ratio">1</property>
  <property name="progressive">1</property>
  <property name="seekable">1</property>
  <property name="meta.media.width">3000</property>
  <property name="meta.media.height">1688</property>
  <property name="mlt_service">qimage</property>
  <property name="kdenlive:clipname">img-credit-illustrations.png</property>
  <property name="kdenlive:duration">00:00:05,000</property>
  <property name="kdenlive:folderid">38</property>
  <property name="kdenlive:id">11</property>
  <property name="kdenlive:file_size">67142</property>
  <property name="global_feed">1</property>
  <property name="kdenlive:originalurl">g3202.png</property>
  <property name="kdenlive:file_hash">75538de455e4826bc3a60fb63fdbf15f</property>
 </producer>
 <producer id="producer21" in="00:00:00,000" out="00:00:04,967">
  <property name="length">00:00:05,000</property>
  <property name="eof">pause</property>
  <property name="resource">/home/sherlock/Video/7alpha/images/img-apps.png</property>
  <property name="ttl">25</property>
  <property name="aspect_ratio">1</property>
  <property name="progressive">1</property>
  <property name="seekable">1</property>
  <property name="meta.media.width">3000</property>
  <property name="meta.media.height">1688</property>
  <property name="mlt_service">qimage</property>
  <property name="kdenlive:clipname">img-apps.png</property>
  <property name="kdenlive:duration">00:00:05,000</property>
  <property name="kdenlive:folderid">38</property>
  <property name="kdenlive:id">12</property>
  <property name="kdenlive:file_size">116934</property>
  <property name="kdenlive:originalurl">g3252.png</property>
  <property name="global_feed">1</property>
  <property name="kdenlive:file_hash">3d0b0dd3bbe21d7d416fa14c495a46dc</property>
 </producer>
 <producer id="producer76" in="00:00:00,000" out="00:00:04,967">
  <property name="length">00:00:05,000</property>
  <property name="eof">pause</property>
  <property name="resource">images/img-audio.png</property>
  <property name="ttl">25</property>
  <property name="aspect_ratio">1</property>
  <property name="progressive">1</property>
  <property name="seekable">1</property>
  <property name="meta.media.width">6000</property>
  <property name="meta.media.height">3375</property>
  <property name="mlt_service">qimage</property>
  <property name="kdenlive:clipname">img-audio.png</property>
  <property name="kdenlive:duration">00:00:05,000</property>
  <property name="kdenlive:folderid">38</property>
  <property name="kdenlive:id">13</property>
  <property name="kdenlive:file_size">53172</property>
  <property name="kdenlive:originalurl">/home/sherlock/Video/7alpha/images/img-audio.png</property>
  <property name="global_feed">1</property>
  <property name="kdenlive:file_hash">b66f78e2f51b9a1099acced2a43d70bc</property>
 </producer>
 <producer id="producer25" in="00:00:00,000" out="00:00:04,967">
  <property name="length">00:00:05,000</property>
  <property name="eof">pause</property>
  <property name="resource">/home/sherlock/Video/7alpha/images/img-end.png</property>
  <property name="ttl">25</property>
  <property name="aspect_ratio">1</property>
  <property name="progressive">1</property>
  <property name="seekable">1</property>
  <property name="meta.media.width">3000</property>
  <property name="meta.media.height">1688</property>
  <property name="mlt_service">qimage</property>
  <property name="kdenlive:clipname">img-end.png</property>
  <property name="kdenlive:duration">00:00:05,000</property>
  <property name="kdenlive:folderid">38</property>
  <property name="kdenlive:id">14</property>
  <property name="kdenlive:file_size">36971</property>
  <property name="global_feed">1</property>
  <property name="kdenlive:originalurl">g3326.png</property>
  <property name="kdenlive:file_hash">e3bec9a0ee270212319edef50f51f250</property>
 </producer>
 <producer title="Anonymous Submission" id="producer0" in="00:00:00,000" out="00:03:11,600">
  <property name="length">5749</property>
  <property name="eof">pause</property>
  <property name="resource">audio/LibreOffice_by_Ahmad_Haris.mp3</property>
  <property name="meta.media.nb_streams">1</property>
  <property name="meta.media.0.stream.type">audio</property>
  <property name="meta.media.0.codec.sample_fmt">fltp</property>
  <property name="meta.media.0.codec.sample_rate">44100</property>
  <property name="meta.media.0.codec.channels">2</property>
  <property name="meta.media.0.codec.name">mp3float</property>
  <property name="meta.media.0.codec.long_name">MP3 (MPEG audio layer 3)</property>
  <property name="meta.media.0.codec.bit_rate">192000</property>
  <property name="meta.attr.TSS.markup">GarageBand 10.3.4</property>
  <property name="meta.attr.iTunNORM.markup"> 000001AC 00000182 00001170 00000FD7 0001E78D 0002BF0F 00007BAD 00007017 0001B89C 0002C3A7</property>
  <property name="meta.attr.iTunSMPB.markup"> 00000000 00000210 000009B6 000000000080E83A 00000000 00461A20 00000000 00000000 00000000 00000000 00000000 00000000</property>
  <property name="seekable">1</property>
  <property name="audio_index">0</property>
  <property name="video_index">-1</property>
  <property name="mute_on_pause">1</property>
  <property name="mlt_service">avformat</property>
  <property name="kdenlive:clipname"/>
  <property name="kdenlive:folderid">18</property>
  <property name="kdenlive:id">15</property>
  <property name="kdenlive:file_size">4603319</property>
  <property name="kdenlive:file_hash">a086585c02391b36ee6bc2c95e712605</property>
  <property name="global_feed">1</property>
 </producer>
 <producer title="Anonymous Submission" id="producer1" in="00:00:00,000" out="00:00:04,967">
  <property name="length">00:00:05,000</property>
  <property name="eof">pause</property>
  <property name="resource">images/relibreoffice7newfeaturesvideo/01.png</property>
  <property name="ttl">25</property>
  <property name="aspect_ratio">1</property>
  <property name="progressive">1</property>
  <property name="seekable">1</property>
  <property name="meta.media.width">872</property>
  <property name="meta.media.height">256</property>
  <property name="mlt_service">qimage</property>
  <property name="kdenlive:clipname"/>
  <property name="kdenlive:duration">00:00:05,000</property>
  <property name="kdenlive:folderid">16</property>
  <property name="kdenlive:id">20</property>
  <property name="kdenlive:file_size">50738</property>
  <property name="kdenlive:file_hash">c0a95cc20d78c9837731dceb4c00b1e0</property>
  <property name="global_feed">1</property>
 </producer>
 <producer title="Anonymous Submission" id="producer2" in="00:00:00,000" out="00:00:05,133">
  <property name="length">155</property>
  <property name="eof">pause</property>
  <property name="resource">images/relibreoffice7newfeaturesvideo/02.png</property>
  <property name="ttl">25</property>
  <property name="aspect_ratio">1</property>
  <property name="progressive">1</property>
  <property name="seekable">1</property>
  <property name="meta.media.width">512</property>
  <property name="meta.media.height">445</property>
  <property name="mlt_service">qimage</property>
  <property name="kdenlive:clipname"/>
  <property name="kdenlive:duration">00:00:05,000</property>
  <property name="kdenlive:folderid">16</property>
  <property name="kdenlive:id">21</property>
  <property name="kdenlive:file_size">28435</property>
  <property name="kdenlive:file_hash">14434da4ad31adc6452282bcb8cf0331</property>
  <property name="global_feed">1</property>
 </producer>
 <producer title="Anonymous Submission" id="producer3" in="00:00:00,000" out="00:00:04,967">
  <property name="length">00:00:05,000</property>
  <property name="eof">pause</property>
  <property name="resource">images/relibreoffice7newfeaturesvideo/03.png</property>
  <property name="ttl">25</property>
  <property name="aspect_ratio">1</property>
  <property name="progressive">1</property>
  <property name="seekable">1</property>
  <property name="meta.media.width">798</property>
  <property name="meta.media.height">524</property>
  <property name="mlt_service">qimage</property>
  <property name="kdenlive:clipname"/>
  <property name="kdenlive:duration">00:00:05,000</property>
  <property name="kdenlive:folderid">16</property>
  <property name="kdenlive:id">22</property>
  <property name="kdenlive:file_size">86557</property>
  <property name="kdenlive:file_hash">9d521290e3989cad5dc44b289de6ad23</property>
  <property name="global_feed">1</property>
 </producer>
 <producer title="Anonymous Submission" id="producer4" in="00:00:00,000" out="00:00:05,167">
  <property name="length">156</property>
  <property name="eof">pause</property>
  <property name="resource">images/relibreoffice7newfeaturesvideo/04.png</property>
  <property name="ttl">25</property>
  <property name="aspect_ratio">1</property>
  <property name="progressive">1</property>
  <property name="seekable">1</property>
  <property name="meta.media.width">1025</property>
  <property name="meta.media.height">526</property>
  <property name="mlt_service">qimage</property>
  <property name="kdenlive:clipname"/>
  <property name="kdenlive:duration">00:00:05,000</property>
  <property name="kdenlive:folderid">16</property>
  <property name="kdenlive:id">23</property>
  <property name="kdenlive:file_size">146070</property>
  <property name="kdenlive:file_hash">44daad4e648fd7143366d984d0d110f6</property>
  <property name="global_feed">1</property>
 </producer>
 <producer title="Anonymous Submission" id="producer5" in="00:00:00,000" out="00:00:04,967">
  <property name="length">00:00:05,000</property>
  <property name="eof">pause</property>
  <property name="resource">images/relibreoffice7newfeaturesvideo/05.png</property>
  <property name="ttl">25</property>
  <property name="aspect_ratio">1</property>
  <property name="progressive">1</property>
  <property name="seekable">1</property>
  <property name="meta.media.width">760</property>
  <property name="meta.media.height">2050</property>
  <property name="mlt_service">qimage</property>
  <property name="kdenlive:clipname"/>
  <property name="kdenlive:duration">00:00:05,000</property>
  <property name="kdenlive:folderid">16</property>
  <property name="kdenlive:id">24</property>
  <property name="kdenlive:file_size">117183</property>
  <property name="kdenlive:file_hash">28e20ff01fe8a99a2657222742bde179</property>
  <property name="global_feed">1</property>
 </producer>
 <producer title="Anonymous Submission" id="producer6" in="00:00:00,000" out="00:00:05,800">
  <property name="length">175</property>
  <property name="eof">pause</property>
  <property name="resource">images/relibreoffice7newfeaturesvideo/06.png</property>
  <property name="ttl">25</property>
  <property name="aspect_ratio">1</property>
  <property name="progressive">1</property>
  <property name="seekable">1</property>
  <property name="meta.media.width">912</property>
  <property name="meta.media.height">517</property>
  <property name="mlt_service">qimage</property>
  <property name="kdenlive:clipname"/>
  <property name="kdenlive:duration">00:00:05,000</property>
  <property name="kdenlive:folderid">16</property>
  <property name="kdenlive:id">25</property>
  <property name="kdenlive:file_size">96797</property>
  <property name="kdenlive:file_hash">fd662747a07ee7a6eb04efe730496404</property>
  <property name="global_feed">1</property>
 </producer>
 <producer title="Anonymous Submission" id="producer7" in="00:00:00,000" out="00:00:04,967">
  <property name="length">00:00:05,000</property>
  <property name="eof">pause</property>
  <property name="resource">images/relibreoffice7newfeaturesvideo/07.png</property>
  <property name="ttl">25</property>
  <property name="aspect_ratio">1</property>
  <property name="progressive">1</property>
  <property name="seekable">1</property>
  <property name="meta.media.width">1200</property>
  <property name="meta.media.height">662</property>
  <property name="mlt_service">qimage</property>
  <property name="kdenlive:clipname"/>
  <property name="kdenlive:duration">00:00:05,000</property>
  <property name="kdenlive:folderid">16</property>
  <property name="kdenlive:id">26</property>
  <property name="kdenlive:file_size">37720</property>
  <property name="kdenlive:file_hash">1e0eb1675919563e524ade9fa1bc3949</property>
  <property name="global_feed">1</property>
 </producer>
 <producer title="Anonymous Submission" id="producer8" in="00:00:00,000" out="00:00:04,967">
  <property name="length">00:00:05,000</property>
  <property name="eof">pause</property>
  <property name="resource">images/relibreoffice7newfeaturesvideo/08.png</property>
  <property name="ttl">25</property>
  <property name="aspect_ratio">1</property>
  <property name="progressive">1</property>
  <property name="seekable">1</property>
  <property name="meta.media.width">642</property>
  <property name="meta.media.height">854</property>
  <property name="mlt_service">qimage</property>
  <property name="kdenlive:clipname"/>
  <property name="kdenlive:duration">00:00:05,000</property>
  <property name="kdenlive:folderid">16</property>
  <property name="kdenlive:id">27</property>
  <property name="kdenlive:file_size">184210</property>
  <property name="kdenlive:file_hash">65fbb7b16ee67f23935f5e0de0bb0a2b</property>
  <property name="global_feed">1</property>
 </producer>
 <producer title="Anonymous Submission" id="producer9" in="00:00:00,000" out="00:00:04,967">
  <property name="length">00:00:05,000</property>
  <property name="eof">pause</property>
  <property name="resource">images/relibreoffice7newfeaturesvideo/09.png</property>
  <property name="ttl">25</property>
  <property name="aspect_ratio">1</property>
  <property name="progressive">1</property>
  <property name="seekable">1</property>
  <property name="meta.media.width">640</property>
  <property name="meta.media.height">142</property>
  <property name="mlt_service">qimage</property>
  <property name="kdenlive:clipname"/>
  <property name="kdenlive:duration">00:00:05,000</property>
  <property name="kdenlive:folderid">16</property>
  <property name="kdenlive:id">28</property>
  <property name="kdenlive:file_size">9744</property>
  <property name="kdenlive:file_hash">854097507f7f30b18c4619c17a865e37</property>
  <property name="global_feed">1</property>
 </producer>
 <producer title="Anonymous Submission" id="producer10" in="00:00:00,000" out="00:00:04,967">
  <property name="length">00:00:05,000</property>
  <property name="eof">pause</property>
  <property name="resource">images/relibreoffice7newfeaturesvideo/10.png</property>
  <property name="ttl">25</property>
  <property name="aspect_ratio">1</property>
  <property name="progressive">1</property>
  <property name="seekable">1</property>
  <property name="meta.media.width">536</property>
  <property name="meta.media.height">298</property>
  <property name="mlt_service">qimage</property>
  <property name="kdenlive:clipname"/>
  <property name="kdenlive:duration">00:00:05,000</property>
  <property name="kdenlive:folderid">16</property>
  <property name="kdenlive:id">29</property>
  <property name="kdenlive:file_size">44566</property>
  <property name="kdenlive:file_hash">4534454cc8369875f07a362ab3cb54ac</property>
  <property name="global_feed">1</property>
 </producer>
 <producer title="Anonymous Submission" id="producer13" in="00:00:00,000" out="00:00:04,967">
  <property name="length">00:00:05,000</property>
  <property name="eof">pause</property>
  <property name="resource">images/relibreoffice7newfeaturesvideo/11.png</property>
  <property name="ttl">25</property>
  <property name="aspect_ratio">1</property>
  <property name="progressive">1</property>
  <property name="seekable">1</property>
  <property name="meta.media.width">300</property>
  <property name="meta.media.height">300</property>
  <property name="mlt_service">qimage</property>
  <property name="kdenlive:clipname"/>
  <property name="kdenlive:duration">00:00:05,000</property>
  <property name="kdenlive:folderid">16</property>
  <property name="kdenlive:id">30</property>
  <property name="kdenlive:file_size">6086</property>
  <property name="kdenlive:file_hash">10d45a01a58820c024cabf4f17aebb30</property>
  <property name="global_feed">1</property>
 </producer>
 <producer title="Anonymous Submission" id="producer14" in="00:00:00,000" out="00:00:05,033">
  <property name="length">152</property>
  <property name="eof">pause</property>
  <property name="resource">images/relibreoffice7newfeaturesvideo/12.png</property>
  <property name="ttl">25</property>
  <property name="aspect_ratio">1</property>
  <property name="progressive">1</property>
  <property name="seekable">1</property>
  <property name="meta.media.width">746</property>
  <property name="meta.media.height">490</property>
  <property name="mlt_service">qimage</property>
  <property name="kdenlive:clipname"/>
  <property name="kdenlive:duration">00:00:05,000</property>
  <property name="kdenlive:folderid">16</property>
  <property name="kdenlive:id">31</property>
  <property name="kdenlive:file_size">25242</property>
  <property name="kdenlive:file_hash">c0075e4266c208414c8eb67f6e1be859</property>
  <property name="global_feed">1</property>
 </producer>
 <producer title="Anonymous Submission" id="producer15" in="00:00:00,000" out="00:00:04,967">
  <property name="length">00:00:05,000</property>
  <property name="eof">pause</property>
  <property name="resource">images/relibreoffice7newfeaturesvideo/13.png</property>
  <property name="ttl">25</property>
  <property name="aspect_ratio">1</property>
  <property name="progressive">1</property>
  <property name="seekable">1</property>
  <property name="meta.media.width">1546</property>
  <property name="meta.media.height">482</property>
  <property name="mlt_service">qimage</property>
  <property name="kdenlive:clipname"/>
  <property name="kdenlive:duration">00:00:05,000</property>
  <property name="kdenlive:folderid">16</property>
  <property name="kdenlive:id">32</property>
  <property name="kdenlive:file_size">59760</property>
  <property name="kdenlive:file_hash">9503a989754ba15317cd27e1f644561b</property>
  <property name="global_feed">1</property>
 </producer>
 <producer title="Anonymous Submission" id="producer17" in="00:00:00,000" out="00:00:04,967">
  <property name="length">00:00:05,000</property>
  <property name="eof">pause</property>
  <property name="resource">images/relibreoffice7newfeaturesvideo/15.png</property>
  <property name="ttl">25</property>
  <property name="aspect_ratio">1</property>
  <property name="progressive">1</property>
  <property name="seekable">1</property>
  <property name="meta.media.width">416</property>
  <property name="meta.media.height">156</property>
  <property name="mlt_service">qimage</property>
  <property name="kdenlive:clipname"/>
  <property name="kdenlive:duration">00:00:05,000</property>
  <property name="kdenlive:folderid">16</property>
  <property name="kdenlive:id">34</property>
  <property name="kdenlive:file_size">19560</property>
  <property name="kdenlive:file_hash">ca540166d4a831dc739fcef9a4a24f78</property>
  <property name="global_feed">1</property>
 </producer>
 <producer title="Anonymous Submission" id="producer19" in="00:00:00,000" out="00:00:05,133">
  <property name="length">155</property>
  <property name="eof">pause</property>
  <property name="resource">images/relibreoffice7newfeaturesvideo/17.png</property>
  <property name="ttl">25</property>
  <property name="aspect_ratio">1</property>
  <property name="progressive">1</property>
  <property name="seekable">1</property>
  <property name="meta.media.width">1032</property>
  <property name="meta.media.height">425</property>
  <property name="mlt_service">qimage</property>
  <property name="kdenlive:clipname"/>
  <property name="kdenlive:duration">00:00:05,000</property>
  <property name="kdenlive:folderid">16</property>
  <property name="kdenlive:id">35</property>
  <property name="kdenlive:file_size">168755</property>
  <property name="kdenlive:file_hash">e0531f09a15e092ed17b2192d7996c76</property>
  <property name="global_feed">1</property>
 </producer>
 <producer title="Anonymous Submission" id="producer20" in="00:00:00,000" out="00:00:04,967">
  <property name="length">00:00:05,000</property>
  <property name="eof">pause</property>
  <property name="resource">images/relibreoffice7newfeaturesvideo/18.png</property>
  <property name="ttl">25</property>
  <property name="aspect_ratio">1</property>
  <property name="progressive">1</property>
  <property name="seekable">1</property>
  <property name="meta.media.width">241</property>
  <property name="meta.media.height">256</property>
  <property name="mlt_service">qimage</property>
  <property name="kdenlive:clipname"/>
  <property name="kdenlive:duration">00:00:05,000</property>
  <property name="kdenlive:folderid">16</property>
  <property name="kdenlive:id">36</property>
  <property name="kdenlive:file_size">36334</property>
  <property name="kdenlive:file_hash">b6c0885c448a6618e69cfbf7348532a7</property>
  <property name="global_feed">1</property>
 </producer>
 <producer title="Anonymous Submission" id="producer32" in="00:00:00,000" out="00:00:04,800">
  <property name="length">145</property>
  <property name="eof">pause</property>
  <property name="resource">synfig-files/opening.mp4</property>
  <property name="audio_index">-1</property>
  <property name="video_index">0</property>
  <property name="mute_on_pause">0</property>
  <property name="mlt_service">avformat-novalidate</property>
  <property name="meta.media.nb_streams">1</property>
  <property name="meta.media.0.stream.type">video</property>
  <property name="meta.media.0.stream.frame_rate">30</property>
  <property name="meta.media.0.stream.sample_aspect_ratio">0</property>
  <property name="meta.media.0.codec.width">1920</property>
  <property name="meta.media.0.codec.height">1080</property>
  <property name="meta.media.0.codec.rotate">0</property>
  <property name="meta.media.0.codec.frame_rate">30</property>
  <property name="meta.media.0.codec.pix_fmt">yuv420p</property>
  <property name="meta.media.0.codec.sample_aspect_ratio">1</property>
  <property name="meta.media.0.codec.colorspace">709</property>
  <property name="meta.media.0.codec.name">mpeg4</property>
  <property name="meta.media.0.codec.long_name">MPEG-4 part 2</property>
  <property name="meta.media.0.codec.bit_rate">4458787</property>
  <property name="meta.attr.0.stream.handler_name.markup">VideoHandler</property>
  <property name="meta.attr.major_brand.markup">isom</property>
  <property name="meta.attr.minor_version.markup">512</property>
  <property name="meta.attr.compatible_brands.markup">isomiso2mp41</property>
  <property name="meta.attr.title.markup">"opening.sif"</property>
  <property name="meta.attr.encoder.markup">Lavf58.45.100</property>
  <property name="seekable">1</property>
  <property name="meta.media.sample_aspect_num">1</property>
  <property name="meta.media.sample_aspect_den">1</property>
  <property name="aspect_ratio">1</property>
  <property name="kdenlive:clipname"/>
  <property name="kdenlive:folderid">19</property>
  <property name="meta.media.frame_rate_num">30</property>
  <property name="meta.media.frame_rate_den">1</property>
  <property name="meta.media.colorspace">709</property>
  <property name="meta.media.color_trc">2</property>
  <property name="meta.media.width">1920</property>
  <property name="meta.media.height">1080</property>
  <property name="meta.media.color_range">mpeg</property>
  <property name="kdenlive:id">37</property>
  <property name="kdenlive:file_size">2695409</property>
  <property name="kdenlive:file_hash">8d15a222456edb8e98719f4cb234dae6</property>
  <property name="meta.media.top_field_first">0</property>
  <property name="meta.media.progressive">1</property>
  <property name="global_feed">1</property>
 </producer>
 <producer title="Anonymous Submission" id="producer33" in="00:00:00,000" out="00:00:04,967">
  <property name="length">150</property>
  <property name="eof">pause</property>
  <property name="resource"/>
  <property name="progressive">1</property>
  <property name="aspect_ratio">1</property>
  <property name="seekable">1</property>
  <property name="mlt_service">kdenlivetitle</property>
  <property name="kdenlive:duration">150</property>
  <property name="kdenlive:clipname">Proudly Pres...</property>
  <property name="xmldata">&lt;kdenlivetitle duration="150" LC_NUMERIC="id_ID.UTF-8" width="1920" height="1080" out="149">
 &lt;item type="QGraphicsTextItem" z-index="0">
  &lt;position x="735" y="503">
   &lt;transform>1,0,0,0,1,0,0,0,1&lt;/transform>
  &lt;/position>
  &lt;content line-spacing="0" shadow="0;#64000000;3;3;3" font-underline="0" box-height="74" font-outline-color="46,52,54,255" font="Inter" letter-spacing="0" font-pixel-size="60" font-italic="0" alignment="4" font-weight="50" font-outline="0" box-width="449.313" font-color="23,23,23,255">Proudly Present&lt;/content>
 &lt;/item>
 &lt;startviewport rect="0,0,1920,1080"/>
 &lt;endviewport rect="0,0,1920,1080"/>
 &lt;background color="0,0,0,0"/>
&lt;/kdenlivetitle>
</property>
  <property name="kdenlive:folderid">40</property>
  <property name="kdenlive:id">39</property>
  <property name="kdenlive:file_hash">55191c419f014f85950931c8e83e293b</property>
  <property name="force_reload">0</property>
  <property name="meta.media.width">1920</property>
  <property name="meta.media.height">1080</property>
  <property name="global_feed">1</property>
 </producer>
 <producer title="Anonymous Submission" id="producer24" in="00:00:00,000" out="00:00:06,433">
  <property name="length">00:00:06,467</property>
  <property name="eof">pause</property>
  <property name="resource">images/img-LibreOffice-7.0.png</property>
  <property name="ttl">25</property>
  <property name="aspect_ratio">1</property>
  <property name="progressive">1</property>
  <property name="seekable">1</property>
  <property name="meta.media.width">1920</property>
  <property name="meta.media.height">1080</property>
  <property name="mlt_service">qimage</property>
  <property name="kdenlive:clipname">img-LibreOffice-7.0.png</property>
  <property name="kdenlive:duration">00:00:05,000</property>
  <property name="kdenlive:folderid">38</property>
  <property name="kdenlive:id">41</property>
  <property name="kdenlive:file_size">27141</property>
  <property name="kdenlive:originalurl">img-LibreOffice-7.0.png</property>
  <property name="global_feed">1</property>
  <property name="kdenlive:file_hash">aae73c8a7606a47f6d3031bde23012c4</property>
 </producer>
 <producer title="Anonymous Submission" id="producer34" in="00:00:00,000" out="00:00:04,800">
  <property name="length">145</property>
  <property name="eof">pause</property>
  <property name="resource">synfig-files/office-compatiblity.mp4</property>
  <property name="audio_index">-1</property>
  <property name="video_index">0</property>
  <property name="mute_on_pause">0</property>
  <property name="mlt_service">avformat-novalidate</property>
  <property name="meta.media.nb_streams">1</property>
  <property name="meta.media.0.stream.type">video</property>
  <property name="meta.media.0.stream.frame_rate">30</property>
  <property name="meta.media.0.stream.sample_aspect_ratio">0</property>
  <property name="meta.media.0.codec.width">1920</property>
  <property name="meta.media.0.codec.height">1080</property>
  <property name="meta.media.0.codec.rotate">0</property>
  <property name="meta.media.0.codec.frame_rate">30</property>
  <property name="meta.media.0.codec.pix_fmt">yuv420p</property>
  <property name="meta.media.0.codec.sample_aspect_ratio">1</property>
  <property name="meta.media.0.codec.colorspace">709</property>
  <property name="meta.media.0.codec.name">mpeg4</property>
  <property name="meta.media.0.codec.long_name">MPEG-4 part 2</property>
  <property name="meta.media.0.codec.bit_rate">2023145</property>
  <property name="meta.attr.0.stream.handler_name.markup">VideoHandler</property>
  <property name="meta.attr.major_brand.markup">isom</property>
  <property name="meta.attr.minor_version.markup">512</property>
  <property name="meta.attr.compatible_brands.markup">isomiso2mp41</property>
  <property name="meta.attr.title.markup">"Synfig Animation 1"</property>
  <property name="meta.attr.encoder.markup">Lavf58.45.100</property>
  <property name="seekable">1</property>
  <property name="meta.media.sample_aspect_num">1</property>
  <property name="meta.media.sample_aspect_den">1</property>
  <property name="aspect_ratio">1</property>
  <property name="kdenlive:clipname"/>
  <property name="kdenlive:folderid">19</property>
  <property name="meta.media.frame_rate_num">30</property>
  <property name="meta.media.frame_rate_den">1</property>
  <property name="meta.media.colorspace">709</property>
  <property name="meta.media.color_trc">2</property>
  <property name="meta.media.width">1920</property>
  <property name="meta.media.height">1080</property>
  <property name="meta.media.color_range">mpeg</property>
  <property name="kdenlive:id">42</property>
  <property name="kdenlive:file_size">1223866</property>
  <property name="kdenlive:file_hash">dd63d12ab9774bbc6da926a0da537a4c</property>
  <property name="meta.media.top_field_first">0</property>
  <property name="meta.media.progressive">1</property>
  <property name="global_feed">1</property>
 </producer>
 <producer title="Anonymous Submission" id="producer35" in="00:00:00,000" out="00:00:04,967">
  <property name="length">150</property>
  <property name="eof">pause</property>
  <property name="resource"/>
  <property name="progressive">1</property>
  <property name="aspect_ratio">1</property>
  <property name="seekable">1</property>
  <property name="mlt_service">kdenlivetitle</property>
  <property name="kdenlive:duration">150</property>
  <property name="kdenlive:clipname">01</property>
  <property name="xmldata">&lt;kdenlivetitle duration="150" LC_NUMERIC="id_ID.UTF-8" width="1920" height="1080" out="149">
 &lt;item type="QGraphicsRectItem" z-index="1">
  &lt;position x="196" y="942">
   &lt;transform zoom="100">1,0,0,0,1,0,0,0,1&lt;/transform>
  &lt;/position>
  &lt;content brushcolor="34,70,92,255" pencolor="0,0,0,255" penwidth="0" rect="0,0,198,7"/>
 &lt;/item>
 &lt;item type="QGraphicsTextItem" z-index="0">
  &lt;position x="197" y="897">
   &lt;transform>1,0,0,0,1,0,0,0,1&lt;/transform>
  &lt;/position>
  &lt;content line-spacing="0" shadow="0;#64000000;3;3;3" font-underline="0" box-height="39" font="Inter" letter-spacing="0" font-pixel-size="32" font-italic="0" alignment="4" font-weight="63" box-width="824.5" font-color="34,70,92,255">Major improvements to Microsoft Office compatibility&lt;/content>
 &lt;/item>
 &lt;startviewport rect="0,0,1920,1080"/>
 &lt;endviewport rect="0,0,1920,1080"/>
 &lt;background color="0,0,0,0"/>
&lt;/kdenlivetitle>
</property>
  <property name="kdenlive:folderid">40</property>
  <property name="kdenlive:id">43</property>
  <property name="kdenlive:file_hash">55191c419f014f85950931c8e83e293b</property>
  <property name="force_reload">0</property>
  <property name="global_feed">1</property>
  <property name="meta.media.width">1920</property>
  <property name="meta.media.height">1080</property>
 </producer>
 <producer title="Anonymous Submission" id="producer36" in="00:00:00,000" out="00:00:04,800">
  <property name="length">145</property>
  <property name="eof">pause</property>
  <property name="resource">synfig-files/odf-log.avi</property>
  <property name="audio_index">-1</property>
  <property name="video_index">0</property>
  <property name="mute_on_pause">0</property>
  <property name="mlt_service">avformat-novalidate</property>
  <property name="meta.media.nb_streams">1</property>
  <property name="meta.media.0.stream.type">video</property>
  <property name="meta.media.0.stream.frame_rate">60</property>
  <property name="meta.media.0.stream.sample_aspect_ratio">0</property>
  <property name="meta.media.0.codec.width">1920</property>
  <property name="meta.media.0.codec.height">1080</property>
  <property name="meta.media.0.codec.rotate">0</property>
  <property name="meta.media.0.codec.frame_rate">60</property>
  <property name="meta.media.0.codec.pix_fmt">yuv420p</property>
  <property name="meta.media.0.codec.sample_aspect_ratio">1</property>
  <property name="meta.media.0.codec.colorspace">709</property>
  <property name="meta.media.0.codec.name">mpeg4</property>
  <property name="meta.media.0.codec.long_name">MPEG-4 part 2</property>
  <property name="meta.media.0.codec.bit_rate">3602060</property>
  <property name="meta.attr.title.markup">"odf-logo.sifz"</property>
  <property name="meta.attr.encoder.markup">Lavf58.45.100</property>
  <property name="seekable">1</property>
  <property name="meta.media.sample_aspect_num">1</property>
  <property name="meta.media.sample_aspect_den">1</property>
  <property name="aspect_ratio">1</property>
  <property name="kdenlive:clipname"/>
  <property name="kdenlive:folderid">18</property>
  <property name="meta.media.frame_rate_num">60</property>
  <property name="meta.media.frame_rate_den">1</property>
  <property name="meta.media.colorspace">709</property>
  <property name="meta.media.color_trc">2</property>
  <property name="meta.media.width">1920</property>
  <property name="meta.media.height">1080</property>
  <property name="meta.media.color_range">mpeg</property>
  <property name="kdenlive:id">44</property>
  <property name="kdenlive:file_size">2173998</property>
  <property name="kdenlive:file_hash">fa9c0a17983d3b4dbcaff4c073320745</property>
  <property name="meta.media.top_field_first">0</property>
  <property name="meta.media.progressive">1</property>
  <property name="global_feed">1</property>
 </producer>
 <producer title="Anonymous Submission" id="producer37" in="00:00:00,000" out="00:00:04,967">
  <property name="length">150</property>
  <property name="eof">pause</property>
  <property name="resource"/>
  <property name="progressive">1</property>
  <property name="aspect_ratio">1</property>
  <property name="seekable">1</property>
  <property name="mlt_service">kdenlivetitle</property>
  <property name="kdenlive:duration">150</property>
  <property name="kdenlive:clipname">02</property>
  <property name="xmldata">&lt;kdenlivetitle duration="150" LC_NUMERIC="id_ID.UTF-8" width="1920" height="1080" out="149">
 &lt;item type="QGraphicsRectItem" z-index="1">
  &lt;position x="196" y="942">
   &lt;transform zoom="100">1,0,0,0,1,0,0,0,1&lt;/transform>
  &lt;/position>
  &lt;content brushcolor="34,70,92,255" pencolor="0,0,0,255" penwidth="0" rect="0,0,198,7"/>
 &lt;/item>
 &lt;item type="QGraphicsTextItem" z-index="0">
  &lt;position x="197" y="897">
   &lt;transform>1,0,0,0,1,0,0,0,1&lt;/transform>
  &lt;/position>
  &lt;content line-spacing="0" shadow="0;#64000000;3;3;3" font-underline="0" box-height="39" font="Inter" letter-spacing="0" font-pixel-size="32" font-italic="0" alignment="4" font-weight="63" box-width="906.469" font-color="34,70,92,255">OpenDocument, LibreOffice's native format, updated to 1.3&lt;/content>
 &lt;/item>
 &lt;startviewport rect="0,0,1920,1080"/>
 &lt;endviewport rect="0,0,1920,1080"/>
 &lt;background color="0,0,0,0"/>
&lt;/kdenlivetitle>
</property>
  <property name="kdenlive:folderid">40</property>
  <property name="kdenlive:id">45</property>
  <property name="kdenlive:file_hash">a19e45ba2804bb07bc56bf5d6635dd2c</property>
  <property name="force_reload">0</property>
  <property name="global_feed">1</property>
  <property name="meta.media.width">1920</property>
  <property name="meta.media.height">1080</property>
 </producer>
 <producer title="Anonymous Submission" id="producer38" in="00:00:00,000" out="00:00:16,467">
  <property name="length">495</property>
  <property name="eof">pause</property>
  <property name="resource">clip/feature-clips/03_Accessibility_check_for_PDFs_when_exporting_2020_07_20_13_23.mkv</property>
  <property name="audio_index">-1</property>
  <property name="video_index">0</property>
  <property name="mute_on_pause">0</property>
  <property name="mlt_service">avformat-novalidate</property>
  <property name="meta.media.nb_streams">1</property>
  <property name="meta.media.0.stream.type">video</property>
  <property name="meta.media.0.stream.frame_rate">62,5</property>
  <property name="meta.media.0.stream.sample_aspect_ratio">1</property>
  <property name="meta.media.0.codec.width">1346</property>
  <property name="meta.media.0.codec.height">662</property>
  <property name="meta.media.0.codec.rotate">0</property>
  <property name="meta.media.0.codec.frame_rate">60</property>
  <property name="meta.media.0.codec.pix_fmt">yuv420p</property>
  <property name="meta.media.0.codec.sample_aspect_ratio">1</property>
  <property name="meta.media.0.codec.colorspace">709</property>
  <property name="meta.media.0.codec.color_trc">1</property>
  <property name="meta.media.0.codec.name">h264</property>
  <property name="meta.media.0.codec.long_name">H.264 / AVC / MPEG-4 AVC / MPEG-4 part 10</property>
  <property name="meta.media.0.codec.bit_rate">0</property>
  <property name="meta.attr.0.stream.DURATION.markup">00:00:16,500000000</property>
  <property name="meta.attr.ENCODER.markup">Lavf58.29.100</property>
  <property name="seekable">1</property>
  <property name="meta.media.sample_aspect_num">1</property>
  <property name="meta.media.sample_aspect_den">1</property>
  <property name="aspect_ratio">1</property>
  <property name="kdenlive:clipname"/>
  <property name="kdenlive:folderid">47</property>
  <property name="meta.media.frame_rate_num">125</property>
  <property name="meta.media.frame_rate_den">2</property>
  <property name="meta.media.colorspace">709</property>
  <property name="meta.media.color_trc">1</property>
  <property name="meta.media.width">1346</property>
  <property name="meta.media.height">662</property>
  <property name="meta.media.color_range">mpeg</property>
  <property name="kdenlive:id">46</property>
  <property name="kdenlive:file_size">1165714</property>
  <property name="kdenlive:file_hash">fb2308396042481e789bd6d700a3d847</property>
  <property name="meta.media.top_field_first">0</property>
  <property name="meta.media.progressive">1</property>
  <property name="global_feed">1</property>
 </producer>
 <producer title="Anonymous Submission" id="producer39" in="00:00:00,000" out="00:00:28,000">
  <property name="length">841</property>
  <property name="eof">pause</property>
  <property name="resource">clip/feature-clips/04-theme-icon-2020-07-20_15.15.54.mkv</property>
  <property name="audio_index">-1</property>
  <property name="video_index">0</property>
  <property name="mute_on_pause">0</property>
  <property name="mlt_service">avformat-novalidate</property>
  <property name="meta.media.nb_streams">1</property>
  <property name="meta.media.0.stream.type">video</property>
  <property name="meta.media.0.stream.frame_rate">62,5</property>
  <property name="meta.media.0.stream.sample_aspect_ratio">1</property>
  <property name="meta.media.0.codec.width">1266</property>
  <property name="meta.media.0.codec.height">716</property>
  <property name="meta.media.0.codec.rotate">0</property>
  <property name="meta.media.0.codec.frame_rate">60</property>
  <property name="meta.media.0.codec.pix_fmt">yuv420p</property>
  <property name="meta.media.0.codec.sample_aspect_ratio">1</property>
  <property name="meta.media.0.codec.colorspace">709</property>
  <property name="meta.media.0.codec.color_trc">1</property>
  <property name="meta.media.0.codec.name">h264</property>
  <property name="meta.media.0.codec.long_name">H.264 / AVC / MPEG-4 AVC / MPEG-4 part 10</property>
  <property name="meta.media.0.codec.bit_rate">0</property>
  <property name="meta.attr.0.stream.DURATION.markup">00:00:28,033000000</property>
  <property name="meta.attr.ENCODER.markup">Lavf58.29.100</property>
  <property name="seekable">1</property>
  <property name="meta.media.sample_aspect_num">1</property>
  <property name="meta.media.sample_aspect_den">1</property>
  <property name="aspect_ratio">1</property>
  <property name="kdenlive:clipname"/>
  <property name="kdenlive:folderid">47</property>
  <property name="meta.media.frame_rate_num">125</property>
  <property name="meta.media.frame_rate_den">2</property>
  <property name="meta.media.colorspace">709</property>
  <property name="meta.media.color_trc">1</property>
  <property name="meta.media.width">1266</property>
  <property name="meta.media.height">716</property>
  <property name="meta.media.color_range">mpeg</property>
  <property name="kdenlive:id">48</property>
  <property name="kdenlive:file_size">1475935</property>
  <property name="kdenlive:file_hash">b3fed8e62ab4dbe49f7467bd0e8ca2b8</property>
  <property name="meta.media.top_field_first">0</property>
  <property name="meta.media.progressive">1</property>
  <property name="global_feed">1</property>
 </producer>
 <producer title="Anonymous Submission" id="producer40" in="00:00:00,000" out="00:00:31,200">
  <property name="length">937</property>
  <property name="eof">pause</property>
  <property name="resource">clip/feature-clips/05-new-gallery-2020-07-20_15.21.05.mkv</property>
  <property name="audio_index">-1</property>
  <property name="video_index">0</property>
  <property name="mute_on_pause">0</property>
  <property name="mlt_service">avformat-novalidate</property>
  <property name="meta.media.nb_streams">1</property>
  <property name="meta.media.0.stream.type">video</property>
  <property name="meta.media.0.stream.frame_rate">62,5</property>
  <property name="meta.media.0.stream.sample_aspect_ratio">1</property>
  <property name="meta.media.0.codec.width">1266</property>
  <property name="meta.media.0.codec.height">716</property>
  <property name="meta.media.0.codec.rotate">0</property>
  <property name="meta.media.0.codec.frame_rate">60</property>
  <property name="meta.media.0.codec.pix_fmt">yuv420p</property>
  <property name="meta.media.0.codec.sample_aspect_ratio">1</property>
  <property name="meta.media.0.codec.colorspace">709</property>
  <property name="meta.media.0.codec.color_trc">1</property>
  <property name="meta.media.0.codec.name">h264</property>
  <property name="meta.media.0.codec.long_name">H.264 / AVC / MPEG-4 AVC / MPEG-4 part 10</property>
  <property name="meta.media.0.codec.bit_rate">0</property>
  <property name="meta.attr.0.stream.DURATION.markup">00:00:31,217000000</property>
  <property name="meta.attr.ENCODER.markup">Lavf58.29.100</property>
  <property name="seekable">1</property>
  <property name="meta.media.sample_aspect_num">1</property>
  <property name="meta.media.sample_aspect_den">1</property>
  <property name="aspect_ratio">1</property>
  <property name="kdenlive:clipname"/>
  <property name="kdenlive:folderid">47</property>
  <property name="meta.media.frame_rate_num">125</property>
  <property name="meta.media.frame_rate_den">2</property>
  <property name="meta.media.colorspace">709</property>
  <property name="meta.media.color_trc">1</property>
  <property name="meta.media.width">1266</property>
  <property name="meta.media.height">716</property>
  <property name="meta.media.color_range">mpeg</property>
  <property name="kdenlive:id">49</property>
  <property name="kdenlive:file_size">2070810</property>
  <property name="kdenlive:file_hash">cceba054664dd8a0c1f3beb1ccd5050e</property>
  <property name="meta.media.top_field_first">0</property>
  <property name="meta.media.progressive">1</property>
  <property name="global_feed">1</property>
 </producer>
 <producer id="producer41" in="00:00:00,000" out="00:00:28,000">
  <property name="length">841</property>
  <property name="eof">pause</property>
  <property name="resource">clip/feature-clips/05-theme-icon-2020-07-20_15.15.54.mkv</property>
  <property name="audio_index">-1</property>
  <property name="video_index">0</property>
  <property name="mute_on_pause">0</property>
  <property name="mlt_service">avformat-novalidate</property>
  <property name="meta.media.nb_streams">1</property>
  <property name="meta.media.0.stream.type">video</property>
  <property name="meta.media.0.stream.frame_rate">62,5</property>
  <property name="meta.media.0.stream.sample_aspect_ratio">1</property>
  <property name="meta.media.0.codec.width">1266</property>
  <property name="meta.media.0.codec.height">716</property>
  <property name="meta.media.0.codec.rotate">0</property>
  <property name="meta.media.0.codec.frame_rate">60</property>
  <property name="meta.media.0.codec.pix_fmt">yuv420p</property>
  <property name="meta.media.0.codec.sample_aspect_ratio">1</property>
  <property name="meta.media.0.codec.colorspace">709</property>
  <property name="meta.media.0.codec.color_trc">1</property>
  <property name="meta.media.0.codec.name">h264</property>
  <property name="meta.media.0.codec.long_name">H.264 / AVC / MPEG-4 AVC / MPEG-4 part 10</property>
  <property name="meta.media.0.codec.bit_rate">0</property>
  <property name="meta.attr.0.stream.DURATION.markup">00:00:28,033000000</property>
  <property name="meta.attr.ENCODER.markup">Lavf58.29.100</property>
  <property name="seekable">1</property>
  <property name="meta.media.sample_aspect_num">1</property>
  <property name="meta.media.sample_aspect_den">1</property>
  <property name="aspect_ratio">1</property>
  <property name="kdenlive:clipname"/>
  <property name="kdenlive:folderid">47</property>
  <property name="meta.media.frame_rate_num">125</property>
  <property name="meta.media.frame_rate_den">2</property>
  <property name="meta.media.colorspace">709</property>
  <property name="meta.media.color_trc">1</property>
  <property name="meta.media.width">1266</property>
  <property name="meta.media.height">716</property>
  <property name="meta.media.color_range">mpeg</property>
  <property name="kdenlive:id">50</property>
  <property name="kdenlive:file_size">1475935</property>
  <property name="kdenlive:file_hash">b3fed8e62ab4dbe49f7467bd0e8ca2b8</property>
 </producer>
 <producer title="Anonymous Submission" id="producer42" in="00:00:00,000" out="00:00:26,933">
  <property name="length">809</property>
  <property name="eof">pause</property>
  <property name="resource">clip/feature-clips/08-Navigator-is-easier-to-use-2020-07-20_13.58.01-BEFORE.mkv</property>
  <property name="audio_index">-1</property>
  <property name="video_index">0</property>
  <property name="mute_on_pause">0</property>
  <property name="mlt_service">avformat-novalidate</property>
  <property name="meta.media.nb_streams">1</property>
  <property name="meta.media.0.stream.type">video</property>
  <property name="meta.media.0.stream.frame_rate">62,5</property>
  <property name="meta.media.0.stream.sample_aspect_ratio">1</property>
  <property name="meta.media.0.codec.width">1346</property>
  <property name="meta.media.0.codec.height">662</property>
  <property name="meta.media.0.codec.rotate">0</property>
  <property name="meta.media.0.codec.frame_rate">60</property>
  <property name="meta.media.0.codec.pix_fmt">yuv420p</property>
  <property name="meta.media.0.codec.sample_aspect_ratio">1</property>
  <property name="meta.media.0.codec.colorspace">709</property>
  <property name="meta.media.0.codec.color_trc">1</property>
  <property name="meta.media.0.codec.name">h264</property>
  <property name="meta.media.0.codec.long_name">H.264 / AVC / MPEG-4 AVC / MPEG-4 part 10</property>
  <property name="meta.media.0.codec.bit_rate">0</property>
  <property name="meta.attr.0.stream.DURATION.markup">00:00:26,967000000</property>
  <property name="meta.attr.ENCODER.markup">Lavf58.29.100</property>
  <property name="seekable">1</property>
  <property name="meta.media.sample_aspect_num">1</property>
  <property name="meta.media.sample_aspect_den">1</property>
  <property name="aspect_ratio">1</property>
  <property name="kdenlive:clipname"/>
  <property name="kdenlive:folderid">47</property>
  <property name="meta.media.frame_rate_num">125</property>
  <property name="meta.media.frame_rate_den">2</property>
  <property name="meta.media.colorspace">709</property>
  <property name="meta.media.color_trc">1</property>
  <property name="meta.media.width">1346</property>
  <property name="meta.media.height">662</property>
  <property name="meta.media.color_range">mpeg</property>
  <property name="kdenlive:id">51</property>
  <property name="kdenlive:file_size">1419934</property>
  <property name="kdenlive:file_hash">0fee73029f0fc529d508029af12bbc75</property>
  <property name="meta.media.top_field_first">0</property>
  <property name="meta.media.progressive">1</property>
  <property name="global_feed">1</property>
 </producer>
 <producer title="Anonymous Submission" id="producer43" in="00:00:00,000" out="00:00:08,133">
  <property name="length">245</property>
  <property name="eof">pause</property>
  <property name="resource">clip/feature-clips/09-Semi-transparent-text-writer-2020-07-20_14.18.37.mkv</property>
  <property name="audio_index">-1</property>
  <property name="video_index">0</property>
  <property name="mute_on_pause">0</property>
  <property name="mlt_service">avformat-novalidate</property>
  <property name="meta.media.nb_streams">1</property>
  <property name="meta.media.0.stream.type">video</property>
  <property name="meta.media.0.stream.frame_rate">62,5</property>
  <property name="meta.media.0.stream.sample_aspect_ratio">1</property>
  <property name="meta.media.0.codec.width">1346</property>
  <property name="meta.media.0.codec.height">662</property>
  <property name="meta.media.0.codec.rotate">0</property>
  <property name="meta.media.0.codec.frame_rate">60</property>
  <property name="meta.media.0.codec.pix_fmt">yuv420p</property>
  <property name="meta.media.0.codec.sample_aspect_ratio">1</property>
  <property name="meta.media.0.codec.colorspace">709</property>
  <property name="meta.media.0.codec.color_trc">1</property>
  <property name="meta.media.0.codec.name">h264</property>
  <property name="meta.media.0.codec.long_name">H.264 / AVC / MPEG-4 AVC / MPEG-4 part 10</property>
  <property name="meta.media.0.codec.bit_rate">0</property>
  <property name="meta.attr.0.stream.DURATION.markup">00:00:08,183000000</property>
  <property name="meta.attr.ENCODER.markup">Lavf58.29.100</property>
  <property name="seekable">1</property>
  <property name="meta.media.sample_aspect_num">1</property>
  <property name="meta.media.sample_aspect_den">1</property>
  <property name="aspect_ratio">1</property>
  <property name="kdenlive:clipname"/>
  <property name="kdenlive:folderid">47</property>
  <property name="meta.media.frame_rate_num">125</property>
  <property name="meta.media.frame_rate_den">2</property>
  <property name="meta.media.colorspace">709</property>
  <property name="meta.media.color_trc">1</property>
  <property name="meta.media.width">1346</property>
  <property name="meta.media.height">662</property>
  <property name="meta.media.color_range">mpeg</property>
  <property name="kdenlive:id">52</property>
  <property name="kdenlive:file_size">872341</property>
  <property name="kdenlive:file_hash">d1eea47450849a01e3142a5b3ff797ac</property>
  <property name="meta.media.top_field_first">0</property>
  <property name="meta.media.progressive">1</property>
  <property name="global_feed">1</property>
 </producer>
 <producer title="Anonymous Submission" id="producer44" in="00:00:00,000" out="00:00:09,000">
  <property name="length">271</property>
  <property name="eof">pause</property>
  <property name="resource">clip/feature-clips/10-bookmark-2020-07-20_14.44.50.mkv</property>
  <property name="audio_index">-1</property>
  <property name="video_index">0</property>
  <property name="mute_on_pause">0</property>
  <property name="mlt_service">avformat-novalidate</property>
  <property name="meta.media.nb_streams">1</property>
  <property name="meta.media.0.stream.type">video</property>
  <property name="meta.media.0.stream.frame_rate">62,5</property>
  <property name="meta.media.0.stream.sample_aspect_ratio">1</property>
  <property name="meta.media.0.codec.width">1082</property>
  <property name="meta.media.0.codec.height">768</property>
  <property name="meta.media.0.codec.rotate">0</property>
  <property name="meta.media.0.codec.frame_rate">60</property>
  <property name="meta.media.0.codec.pix_fmt">yuv420p</property>
  <property name="meta.media.0.codec.sample_aspect_ratio">1</property>
  <property name="meta.media.0.codec.colorspace">709</property>
  <property name="meta.media.0.codec.color_trc">1</property>
  <property name="meta.media.0.codec.name">h264</property>
  <property name="meta.media.0.codec.long_name">H.264 / AVC / MPEG-4 AVC / MPEG-4 part 10</property>
  <property name="meta.media.0.codec.bit_rate">0</property>
  <property name="meta.attr.0.stream.DURATION.markup">00:00:09,017000000</property>
  <property name="meta.attr.ENCODER.markup">Lavf58.29.100</property>
  <property name="seekable">1</property>
  <property name="meta.media.sample_aspect_num">1</property>
  <property name="meta.media.sample_aspect_den">1</property>
  <property name="aspect_ratio">1</property>
  <property name="kdenlive:clipname"/>
  <property name="kdenlive:folderid">47</property>
  <property name="meta.media.frame_rate_num">125</property>
  <property name="meta.media.frame_rate_den">2</property>
  <property name="meta.media.colorspace">709</property>
  <property name="meta.media.color_trc">1</property>
  <property name="meta.media.width">1082</property>
  <property name="meta.media.height">768</property>
  <property name="meta.media.color_range">mpeg</property>
  <property name="kdenlive:id">53</property>
  <property name="kdenlive:file_size">1053777</property>
  <property name="kdenlive:file_hash">52bc8c0467d27444d3add6173c7bf6bc</property>
  <property name="meta.media.top_field_first">0</property>
  <property name="meta.media.progressive">1</property>
  <property name="global_feed">1</property>
 </producer>
 <producer title="Anonymous Submission" id="producer45" in="00:00:00,000" out="00:00:07,733">
  <property name="length">233</property>
  <property name="eof">pause</property>
  <property name="resource">clip/feature-clips/11-padded-numbering-2020-07-20_15.10.35.mkv</property>
  <property name="audio_index">-1</property>
  <property name="video_index">0</property>
  <property name="mute_on_pause">0</property>
  <property name="mlt_service">avformat-novalidate</property>
  <property name="meta.media.nb_streams">1</property>
  <property name="meta.media.0.stream.type">video</property>
  <property name="meta.media.0.stream.frame_rate">62,5</property>
  <property name="meta.media.0.stream.sample_aspect_ratio">1</property>
  <property name="meta.media.0.codec.width">1266</property>
  <property name="meta.media.0.codec.height">628</property>
  <property name="meta.media.0.codec.rotate">0</property>
  <property name="meta.media.0.codec.frame_rate">60</property>
  <property name="meta.media.0.codec.pix_fmt">yuv420p</property>
  <property name="meta.media.0.codec.sample_aspect_ratio">1</property>
  <property name="meta.media.0.codec.colorspace">709</property>
  <property name="meta.media.0.codec.color_trc">1</property>
  <property name="meta.media.0.codec.name">h264</property>
  <property name="meta.media.0.codec.long_name">H.264 / AVC / MPEG-4 AVC / MPEG-4 part 10</property>
  <property name="meta.media.0.codec.bit_rate">0</property>
  <property name="meta.attr.0.stream.DURATION.markup">00:00:07,767000000</property>
  <property name="meta.attr.ENCODER.markup">Lavf58.29.100</property>
  <property name="seekable">1</property>
  <property name="meta.media.sample_aspect_num">1</property>
  <property name="meta.media.sample_aspect_den">1</property>
  <property name="aspect_ratio">1</property>
  <property name="kdenlive:clipname"/>
  <property name="kdenlive:folderid">47</property>
  <property name="meta.media.frame_rate_num">125</property>
  <property name="meta.media.frame_rate_den">2</property>
  <property name="meta.media.colorspace">709</property>
  <property name="meta.media.color_trc">1</property>
  <property name="meta.media.width">1266</property>
  <property name="meta.media.height">628</property>
  <property name="meta.media.color_range">mpeg</property>
  <property name="kdenlive:id">54</property>
  <property name="kdenlive:file_size">606726</property>
  <property name="kdenlive:file_hash">3e79cd01d23651089c90ed1c83636d07</property>
  <property name="meta.media.top_field_first">0</property>
  <property name="meta.media.progressive">1</property>
  <property name="global_feed">1</property>
 </producer>
 <producer title="Anonymous Submission" id="producer46" in="00:00:00,000" out="00:00:09,833">
  <property name="length">296</property>
  <property name="eof">pause</property>
  <property name="resource">clip/feature-clips/13-random-non-volatile-calc-2020-07-20_15.46.52.mkv</property>
  <property name="audio_index">-1</property>
  <property name="video_index">0</property>
  <property name="mute_on_pause">0</property>
  <property name="mlt_service">avformat-novalidate</property>
  <property name="meta.media.nb_streams">1</property>
  <property name="meta.media.0.stream.type">video</property>
  <property name="meta.media.0.stream.frame_rate">62,5</property>
  <property name="meta.media.0.stream.sample_aspect_ratio">1</property>
  <property name="meta.media.0.codec.width">1272</property>
  <property name="meta.media.0.codec.height">662</property>
  <property name="meta.media.0.codec.rotate">0</property>
  <property name="meta.media.0.codec.frame_rate">60</property>
  <property name="meta.media.0.codec.pix_fmt">yuv420p</property>
  <property name="meta.media.0.codec.sample_aspect_ratio">1</property>
  <property name="meta.media.0.codec.colorspace">709</property>
  <property name="meta.media.0.codec.color_trc">1</property>
  <property name="meta.media.0.codec.name">h264</property>
  <property name="meta.media.0.codec.long_name">H.264 / AVC / MPEG-4 AVC / MPEG-4 part 10</property>
  <property name="meta.media.0.codec.bit_rate">0</property>
  <property name="meta.attr.0.stream.DURATION.markup">00:00:09,867000000</property>
  <property name="meta.attr.ENCODER.markup">Lavf58.29.100</property>
  <property name="seekable">1</property>
  <property name="meta.media.sample_aspect_num">1</property>
  <property name="meta.media.sample_aspect_den">1</property>
  <property name="aspect_ratio">1</property>
  <property name="kdenlive:clipname"/>
  <property name="kdenlive:folderid">47</property>
  <property name="meta.media.frame_rate_num">125</property>
  <property name="meta.media.frame_rate_den">2</property>
  <property name="meta.media.colorspace">709</property>
  <property name="meta.media.color_trc">1</property>
  <property name="meta.media.width">1272</property>
  <property name="meta.media.height">662</property>
  <property name="meta.media.color_range">mpeg</property>
  <property name="kdenlive:id">55</property>
  <property name="kdenlive:file_size">293652</property>
  <property name="kdenlive:file_hash">07ddbe21e207c7b24f706a73ad78802b</property>
  <property name="meta.media.top_field_first">0</property>
  <property name="meta.media.progressive">1</property>
  <property name="global_feed">1</property>
 </producer>
 <producer title="Anonymous Submission" id="producer47" in="00:00:00,000" out="00:00:04,967">
  <property name="length">150</property>
  <property name="eof">pause</property>
  <property name="resource"/>
  <property name="progressive">1</property>
  <property name="aspect_ratio">1</property>
  <property name="seekable">1</property>
  <property name="mlt_service">kdenlivetitle</property>
  <property name="kdenlive:duration">150</property>
  <property name="kdenlive:clipname">03</property>
  <property name="xmldata">&lt;kdenlivetitle duration="150" LC_NUMERIC="id_ID.UTF-8" width="1920" height="1080" out="149">
 &lt;item type="QGraphicsRectItem" z-index="1">
  &lt;position x="861" y="588">
   &lt;transform zoom="100">1,0,0,0,1,0,0,0,1&lt;/transform>
  &lt;/position>
  &lt;content brushcolor="34,70,92,255" pencolor="0,0,0,255" penwidth="0" rect="0,0,198,7"/>
 &lt;/item>
 &lt;item type="QGraphicsTextItem" z-index="0">
  &lt;position x="508" y="514">
   &lt;transform>1,0,0,0,1,0,0,0,1&lt;/transform>
  &lt;/position>
  &lt;content line-spacing="0" shadow="0;#64000000;3;3;3" font-underline="0" box-height="52" font-outline-color="46,52,54,255" font="Inter" letter-spacing="0" font-pixel-size="42" font-italic="0" alignment="4" font-weight="63" font-outline="0" box-width="904.703" font-color="34,70,92,255">Accessibility check for PDFs when exporting&lt;/content>
 &lt;/item>
 &lt;startviewport rect="0,0,1920,1080"/>
 &lt;endviewport rect="0,0,1920,1080"/>
 &lt;background color="0,0,0,0"/>
&lt;/kdenlivetitle>
</property>
  <property name="kdenlive:folderid">40</property>
  <property name="kdenlive:id">56</property>
  <property name="kdenlive:file_hash">c6329a5fd2e344730b6803b8a6b815ac</property>
  <property name="force_reload">0</property>
  <property name="global_feed">1</property>
  <property name="meta.media.width">1920</property>
  <property name="meta.media.height">1080</property>
 </producer>
 <producer id="producer48" in="00:00:00,000" out="00:00:04,967">
  <property name="length">00:00:05,000</property>
  <property name="eof">pause</property>
  <property name="resource">images/bg.png</property>
  <property name="ttl">25</property>
  <property name="aspect_ratio">1</property>
  <property name="progressive">1</property>
  <property name="seekable">1</property>
  <property name="meta.media.width">1920</property>
  <property name="meta.media.height">1080</property>
  <property name="mlt_service">qimage</property>
  <property name="kdenlive:clipname"/>
  <property name="kdenlive:duration">00:00:05,000</property>
  <property name="kdenlive:folderid">17</property>
  <property name="kdenlive:id">57</property>
  <property name="kdenlive:file_size">10299</property>
  <property name="kdenlive:file_hash">fa89e8c8dd8908e9b29f1e527e77aa57</property>
 </producer>
 <producer title="Anonymous Submission" id="producer49" in="00:00:00,000" out="00:00:05,567">
  <property name="length">168</property>
  <property name="eof">pause</property>
  <property name="resource"/>
  <property name="progressive">1</property>
  <property name="aspect_ratio">1</property>
  <property name="seekable">1</property>
  <property name="mlt_service">kdenlivetitle</property>
  <property name="kdenlive:duration">150</property>
  <property name="kdenlive:clipname">contributor</property>
  <property name="xmldata">&lt;kdenlivetitle duration="150" LC_NUMERIC="id_ID.UTF-8" width="1920" height="1080" out="149">
 &lt;item type="QGraphicsRectItem" z-index="1">
  &lt;position x="861" y="588">
   &lt;transform zoom="100">1,0,0,0,1,0,0,0,1&lt;/transform>
  &lt;/position>
  &lt;content brushcolor="34,70,92,255" pencolor="0,0,0,255" penwidth="0" rect="0,0,198,7"/>
 &lt;/item>
 &lt;item type="QGraphicsTextItem" z-index="0">
  &lt;position x="770" y="514">
   &lt;transform>1,0,0,0,1,0,0,0,1&lt;/transform>
  &lt;/position>
  &lt;content line-spacing="0" shadow="0;#64000000;3;3;3" font-underline="0" box-height="52" font-outline-color="46,52,54,255" font="Inter" letter-spacing="0" font-pixel-size="42" font-italic="0" alignment="4" font-weight="63" font-outline="0" box-width="379.141" font-color="34,70,92,255">Dummy Tittle Here&lt;/content>
 &lt;/item>
 &lt;startviewport rect="0,0,1920,1080"/>
 &lt;endviewport rect="0,0,1920,1080"/>
 &lt;background color="0,0,0,0"/>
&lt;/kdenlivetitle>
</property>
  <property name="kdenlive:folderid">40</property>
  <property name="kdenlive:id">58</property>
  <property name="kdenlive:file_hash">3990b6a0b7fa93819bb985bab4261d7f</property>
  <property name="force_reload">0</property>
  <property name="global_feed">1</property>
  <property name="meta.media.width">1920</property>
  <property name="meta.media.height">1080</property>
 </producer>
 <producer title="Anonymous Submission" id="producer55" in="00:00:00,000" out="00:00:05,567">
  <property name="length">168</property>
  <property name="eof">pause</property>
  <property name="resource"/>
  <property name="progressive">1</property>
  <property name="aspect_ratio">1</property>
  <property name="seekable">1</property>
  <property name="mlt_service">kdenlivetitle</property>
  <property name="kdenlive:duration">150</property>
  <property name="kdenlive:clipname">writer</property>
  <property name="xmldata">&lt;kdenlivetitle duration="150" LC_NUMERIC="id_ID.UTF-8" width="1920" height="1080" out="149">
 &lt;item type="QGraphicsRectItem" z-index="1">
  &lt;position x="861" y="588">
   &lt;transform zoom="100">1,0,0,0,1,0,0,0,1&lt;/transform>
  &lt;/position>
  &lt;content brushcolor="34,70,92,255" pencolor="0,0,0,255" penwidth="0" rect="0,0,198,7"/>
 &lt;/item>
 &lt;item type="QGraphicsTextItem" z-index="0">
  &lt;position x="779" y="514">
   &lt;transform>1,0,0,0,1,0,0,0,1&lt;/transform>
  &lt;/position>
  &lt;content line-spacing="0" shadow="0;#64000000;3;3;3" font-underline="0" box-height="52" font="Inter" letter-spacing="0" font-pixel-size="42" font-italic="0" alignment="4" font-weight="63" box-width="362.125" font-color="34,70,92,255">LibreOffice Writer&lt;/content>
 &lt;/item>
 &lt;startviewport rect="0,0,1920,1080"/>
 &lt;endviewport rect="0,0,1920,1080"/>
 &lt;background color="0,0,0,0"/>
&lt;/kdenlivetitle>
</property>
  <property name="kdenlive:folderid">40</property>
  <property name="kdenlive:id">59</property>
  <property name="kdenlive:file_hash">e18150439e0c5c6d59e2cadfaacb3121</property>
  <property name="force_reload">0</property>
  <property name="global_feed">1</property>
  <property name="meta.media.width">1920</property>
  <property name="meta.media.height">1080</property>
 </producer>
 <producer title="Anonymous Submission" id="producer60" in="00:00:00,000" out="00:00:05,567">
  <property name="length">168</property>
  <property name="eof">pause</property>
  <property name="resource"/>
  <property name="progressive">1</property>
  <property name="aspect_ratio">1</property>
  <property name="seekable">1</property>
  <property name="mlt_service">kdenlivetitle</property>
  <property name="kdenlive:duration">150</property>
  <property name="kdenlive:clipname">13</property>
  <property name="xmldata">&lt;kdenlivetitle duration="150" LC_NUMERIC="id_ID.UTF-8" width="1920" height="1080" out="149">
 &lt;item type="QGraphicsRectItem" z-index="1">
  &lt;position x="861" y="588">
   &lt;transform zoom="100">1,0,0,0,1,0,0,0,1&lt;/transform>
  &lt;/position>
  &lt;content brushcolor="34,70,92,255" pencolor="0,0,0,255" penwidth="0" rect="0,0,198,7"/>
 &lt;/item>
 &lt;item type="QGraphicsTextItem" z-index="0">
  &lt;position x="371" y="514">
   &lt;transform>1,0,0,0,1,0,0,0,1&lt;/transform>
  &lt;/position>
  &lt;content line-spacing="0" shadow="0;#64000000;3;3;3" font-underline="0" box-height="52" font="Inter" letter-spacing="0" font-pixel-size="42" font-italic="0" alignment="4" font-weight="63" box-width="1178.45" font-color="34,70,92,255">New functions for non-volatile random number generation&lt;/content>
 &lt;/item>
 &lt;startviewport rect="0,0,1920,1080"/>
 &lt;endviewport rect="0,0,1920,1080"/>
 &lt;background color="0,0,0,0"/>
&lt;/kdenlivetitle>
</property>
  <property name="kdenlive:folderid">40</property>
  <property name="kdenlive:id">60</property>
  <property name="kdenlive:file_hash">491d28bc1b67ad34305f6d717ad889ca</property>
  <property name="force_reload">0</property>
  <property name="global_feed">1</property>
  <property name="meta.media.width">1920</property>
  <property name="meta.media.height">1080</property>
 </producer>
 <producer title="Anonymous Submission" id="producer66" in="00:00:00,000" out="00:00:05,567">
  <property name="length">168</property>
  <property name="eof">pause</property>
  <property name="resource"/>
  <property name="progressive">1</property>
  <property name="aspect_ratio">1</property>
  <property name="seekable">1</property>
  <property name="mlt_service">kdenlivetitle</property>
  <property name="kdenlive:duration">150</property>
  <property name="kdenlive:clipname">wcalc</property>
  <property name="xmldata">&lt;kdenlivetitle duration="150" LC_NUMERIC="id_ID.UTF-8" width="1920" height="1080" out="149">
 &lt;item type="QGraphicsRectItem" z-index="1">
  &lt;position x="861" y="588">
   &lt;transform zoom="100">1,0,0,0,1,0,0,0,1&lt;/transform>
  &lt;/position>
  &lt;content brushcolor="34,70,92,255" pencolor="0,0,0,255" penwidth="0" rect="0,0,198,7"/>
 &lt;/item>
 &lt;item type="QGraphicsTextItem" z-index="0">
  &lt;position x="797" y="514">
   &lt;transform>1,0,0,0,1,0,0,0,1&lt;/transform>
  &lt;/position>
  &lt;content line-spacing="0" shadow="0;#64000000;3;3;3" font-underline="0" box-height="52" font="Inter" letter-spacing="0" font-pixel-size="42" font-italic="0" alignment="4" font-weight="63" box-width="326.969" font-color="34,70,92,255">LibreOffice Calc&lt;/content>
 &lt;/item>
 &lt;startviewport rect="0,0,1920,1080"/>
 &lt;endviewport rect="0,0,1920,1080"/>
 &lt;background color="0,0,0,0"/>
&lt;/kdenlivetitle>
</property>
  <property name="kdenlive:folderid">40</property>
  <property name="kdenlive:id">61</property>
  <property name="kdenlive:file_hash">0b643e5cb673c896ce71a8000e890521</property>
  <property name="force_reload">0</property>
  <property name="global_feed">1</property>
  <property name="meta.media.width">1920</property>
  <property name="meta.media.height">1080</property>
 </producer>
 <producer id="producer67" in="00:00:00,000" out="00:00:05,567">
  <property name="length">168</property>
  <property name="eof">pause</property>
  <property name="resource"/>
  <property name="progressive">1</property>
  <property name="aspect_ratio">1</property>
  <property name="seekable">1</property>
  <property name="mlt_service">kdenlivetitle</property>
  <property name="kdenlive:duration">150</property>
  <property name="kdenlive:clipname">wimpress</property>
  <property name="xmldata">&lt;kdenlivetitle duration="150" LC_NUMERIC="id_ID.UTF-8" width="1920" height="1080" out="149">
 &lt;item type="QGraphicsRectItem" z-index="1">
  &lt;position x="861" y="588">
   &lt;transform zoom="100">1,0,0,0,1,0,0,0,1&lt;/transform>
  &lt;/position>
  &lt;content brushcolor="34,70,92,255" pencolor="0,0,0,255" penwidth="0" rect="0,0,198,7"/>
 &lt;/item>
 &lt;item type="QGraphicsTextItem" z-index="0">
  &lt;position x="761" y="514">
   &lt;transform>1,0,0,0,1,0,0,0,1&lt;/transform>
  &lt;/position>
  &lt;content line-spacing="0" shadow="0;#64000000;3;3;3" font-underline="0" box-height="52" font="Inter" letter-spacing="0" font-pixel-size="42" font-italic="0" alignment="4" font-weight="63" box-width="398.578" font-color="34,70,92,255">LibreOffice Impress&lt;/content>
 &lt;/item>
 &lt;startviewport rect="0,0,1920,1080"/>
 &lt;endviewport rect="0,0,1920,1080"/>
 &lt;background color="0,0,0,0"/>
&lt;/kdenlivetitle>
</property>
  <property name="kdenlive:folderid">40</property>
  <property name="kdenlive:id">62</property>
  <property name="kdenlive:file_hash">a72bbd1d05dc996c54020a7dedec1a7f</property>
  <property name="force_reload">0</property>
  <property name="global_feed">1</property>
  <property name="meta.media.width">1920</property>
  <property name="meta.media.height">1080</property>
 </producer>
 <producer title="Anonymous Submission" id="producer68" in="00:00:00,000" out="00:00:22,800">
  <property name="length">685</property>
  <property name="eof">pause</property>
  <property name="resource">images/img-laptop.png</property>
  <property name="ttl">25</property>
  <property name="aspect_ratio">1</property>
  <property name="progressive">1</property>
  <property name="seekable">1</property>
  <property name="meta.media.width">3000</property>
  <property name="meta.media.height">1688</property>
  <property name="mlt_service">qimage</property>
  <property name="kdenlive:clipname"/>
  <property name="kdenlive:duration">00:00:05,000</property>
  <property name="kdenlive:folderid">17</property>
  <property name="kdenlive:id">63</property>
  <property name="kdenlive:file_size">31253</property>
  <property name="kdenlive:file_hash">4b8247e6f2ab70672a114f8f29e614f8</property>
  <property name="global_feed">1</property>
 </producer>
 <producer id="producer69" in="00:00:00,000" out="00:00:04,967">
  <property name="length">00:00:05,000</property>
  <property name="eof">pause</property>
  <property name="resource">images/title-background.png</property>
  <property name="ttl">25</property>
  <property name="aspect_ratio">1</property>
  <property name="progressive">1</property>
  <property name="seekable">1</property>
  <property name="meta.media.width">3000</property>
  <property name="meta.media.height">1688</property>
  <property name="mlt_service">qimage</property>
  <property name="kdenlive:clipname"/>
  <property name="kdenlive:duration">00:00:05,000</property>
  <property name="kdenlive:folderid">17</property>
  <property name="kdenlive:id">64</property>
  <property name="kdenlive:file_size">20464</property>
  <property name="kdenlive:file_hash">71900e2fdd836a9847ebb9fe852ae5ea</property>
 </producer>
 <producer id="producer70" in="00:00:00,000" out="00:00:05,000">
  <property name="length">00:00:05,033</property>
  <property name="eof">pause</property>
  <property name="resource">images/img-laptop.png</property>
  <property name="ttl">25</property>
  <property name="aspect_ratio">1</property>
  <property name="progressive">1</property>
  <property name="seekable">1</property>
  <property name="meta.media.width">3000</property>
  <property name="meta.media.height">1688</property>
  <property name="mlt_service">qimage</property>
  <property name="kdenlive:clipname"/>
  <property name="kdenlive:duration">00:00:05,000</property>
  <property name="kdenlive:folderid">17</property>
  <property name="kdenlive:id">65</property>
  <property name="kdenlive:file_size">31253</property>
  <property name="kdenlive:file_hash">4b8247e6f2ab70672a114f8f29e614f8</property>
  <property name="global_feed">1</property>
 </producer>
 <producer title="Anonymous Submission" id="producer71" in="00:00:00,000" out="00:00:04,967">
  <property name="length">150</property>
  <property name="eof">pause</property>
  <property name="resource"/>
  <property name="progressive">1</property>
  <property name="aspect_ratio">1</property>
  <property name="seekable">1</property>
  <property name="mlt_service">kdenlivetitle</property>
  <property name="kdenlive:duration">150</property>
  <property name="kdenlive:clipname">05</property>
  <property name="xmldata">&lt;kdenlivetitle duration="150" LC_NUMERIC="id_ID.UTF-8" width="1920" height="1080" out="149">
 &lt;item type="QGraphicsRectItem" z-index="1">
  &lt;position x="196" y="942">
   &lt;transform zoom="100">1,0,0,0,1,0,0,0,1&lt;/transform>
  &lt;/position>
  &lt;content brushcolor="34,70,92,255" pencolor="0,0,0,255" penwidth="0" rect="0,0,198,7"/>
 &lt;/item>
 &lt;item type="QGraphicsTextItem" z-index="0">
  &lt;position x="196" y="890">
   &lt;transform>1,0,0,0,1,0,0,0,1&lt;/transform>
  &lt;/position>
  &lt;content line-spacing="0" shadow="0;#64000000;3;3;3" font-underline="0" box-height="39" font-outline-color="46,52,54,255" font="Inter" letter-spacing="0" font-pixel-size="32" font-italic="0" alignment="1" font-weight="63" font-outline="0" box-width="907.172" font-color="34,70,92,255">New shapes galleries - arrows, diagrams, icons and more...&lt;/content>
 &lt;/item>
 &lt;startviewport rect="0,0,1920,1080"/>
 &lt;endviewport rect="0,0,1920,1080"/>
 &lt;background color="0,0,0,0"/>
&lt;/kdenlivetitle>
</property>
  <property name="kdenlive:folderid">40</property>
  <property name="kdenlive:id">66</property>
  <property name="kdenlive:file_hash">c6329a5fd2e344730b6803b8a6b815ac</property>
  <property name="force_reload">0</property>
  <property name="global_feed">1</property>
  <property name="meta.media.width">1920</property>
  <property name="meta.media.height">1080</property>
 </producer>
 <producer id="producer51" in="00:00:00,000" out="00:00:05,167">
  <property name="length">156</property>
  <property name="eof">pause</property>
  <property name="resource"/>
  <property name="progressive">1</property>
  <property name="aspect_ratio">1</property>
  <property name="seekable">1</property>
  <property name="mlt_service">kdenlivetitle</property>
  <property name="kdenlive:duration">150</property>
  <property name="kdenlive:clipname">04</property>
  <property name="xmldata">&lt;kdenlivetitle duration="150" LC_NUMERIC="id_ID.UTF-8" width="1920" height="1080" out="149">
 &lt;item type="QGraphicsRectItem" z-index="1">
  &lt;position x="196" y="942">
   &lt;transform zoom="100">1,0,0,0,1,0,0,0,1&lt;/transform>
  &lt;/position>
  &lt;content brushcolor="34,70,92,255" pencolor="0,0,0,255" penwidth="0" rect="0,0,198,7"/>
 &lt;/item>
 &lt;item type="QGraphicsTextItem" z-index="0">
  &lt;position x="193" y="883">
   &lt;transform>1,0,0,0,1,0,0,0,1&lt;/transform>
  &lt;/position>
  &lt;content line-spacing="0" shadow="0;#64000000;3;3;3" font-underline="0" box-height="39" font="Inter" letter-spacing="0" font-pixel-size="32" font-italic="0" alignment="1" font-weight="63" box-width="1003.48" font-color="34,70,92,255">New icon theme, the default on macOS: Sukapura&lt;/content>
 &lt;/item>
 &lt;startviewport rect="0,0,1920,1080"/>
 &lt;endviewport rect="0,0,1920,1080"/>
 &lt;background color="0,0,0,0"/>
&lt;/kdenlivetitle>
</property>
  <property name="kdenlive:folderid">40</property>
  <property name="kdenlive:id">67</property>
  <property name="kdenlive:file_hash">5bb720f15402e2107c5126bfdb1266db</property>
  <property name="force_reload">0</property>
  <property name="global_feed">1</property>
  <property name="meta.media.width">1920</property>
  <property name="meta.media.height">1080</property>
 </producer>
 <producer title="Anonymous Submission" id="producer52" in="00:00:00,000" out="00:00:04,967">
  <property name="length">150</property>
  <property name="eof">pause</property>
  <property name="resource"/>
  <property name="progressive">1</property>
  <property name="aspect_ratio">1</property>
  <property name="seekable">1</property>
  <property name="mlt_service">kdenlivetitle</property>
  <property name="kdenlive:duration">150</property>
  <property name="kdenlive:clipname">06</property>
  <property name="xmldata">&lt;kdenlivetitle duration="150" LC_NUMERIC="id_ID.UTF-8" width="1920" height="1080" out="149">
 &lt;item type="QGraphicsRectItem" z-index="1">
  &lt;position x="196" y="942">
   &lt;transform zoom="100">1,0,0,0,1,0,0,0,1&lt;/transform>
  &lt;/position>
  &lt;content brushcolor="34,70,92,255" pencolor="0,0,0,255" penwidth="0" rect="0,0,198,7"/>
 &lt;/item>
 &lt;item type="QGraphicsTextItem" z-index="0">
  &lt;position x="198" y="881">
   &lt;transform>1,0,0,0,1,0,0,0,1&lt;/transform>
  &lt;/position>
  &lt;content line-spacing="0" shadow="0;#64000000;3;3;3" font-underline="0" box-height="39" font="Inter" letter-spacing="0" font-pixel-size="32" font-italic="0" alignment="1" font-weight="63" box-width="775.609" font-color="34,70,92,255">Glow and soft edge effects for objects&lt;/content>
 &lt;/item>
 &lt;startviewport rect="0,0,1920,1080"/>
 &lt;endviewport rect="0,0,1920,1080"/>
 &lt;background color="0,0,0,0"/>
&lt;/kdenlivetitle>
</property>
  <property name="kdenlive:folderid">40</property>
  <property name="kdenlive:id">68</property>
  <property name="kdenlive:file_hash">5bb720f15402e2107c5126bfdb1266db</property>
  <property name="force_reload">0</property>
  <property name="global_feed">1</property>
  <property name="meta.media.width">1920</property>
  <property name="meta.media.height">1080</property>
 </producer>
 <producer title="Anonymous Submission" id="producer53" in="00:00:00,000" out="00:00:04,967">
  <property name="length">150</property>
  <property name="eof">pause</property>
  <property name="resource"/>
  <property name="progressive">1</property>
  <property name="aspect_ratio">1</property>
  <property name="seekable">1</property>
  <property name="mlt_service">kdenlivetitle</property>
  <property name="kdenlive:duration">150</property>
  <property name="kdenlive:clipname">07</property>
  <property name="xmldata">&lt;kdenlivetitle duration="150" LC_NUMERIC="id_ID.UTF-8" width="1920" height="1080" out="149">
 &lt;item type="QGraphicsRectItem" z-index="1">
  &lt;position x="196" y="942">
   &lt;transform zoom="100">1,0,0,0,1,0,0,0,1&lt;/transform>
  &lt;/position>
  &lt;content brushcolor="34,70,92,255" pencolor="0,0,0,255" penwidth="0" rect="0,0,198,7"/>
 &lt;/item>
 &lt;item type="QGraphicsTextItem" z-index="0">
  &lt;position x="194" y="884">
   &lt;transform>1,0,0,0,1,0,0,0,1&lt;/transform>
  &lt;/position>
  &lt;content line-spacing="0" shadow="0;#64000000;3;3;3" font-underline="0" box-height="39" font-outline-color="46,52,54,255" font="Inter" letter-spacing="0" font-pixel-size="32" font-italic="0" alignment="1" font-weight="63" font-outline="0" box-width="679.922" font-color="34,70,92,255">Skia graphics engine for faster performance&lt;/content>
 &lt;/item>
 &lt;startviewport rect="0,0,1920,1080"/>
 &lt;endviewport rect="0,0,1920,1080"/>
 &lt;background color="0,0,0,0"/>
&lt;/kdenlivetitle>
</property>
  <property name="kdenlive:folderid">40</property>
  <property name="kdenlive:id">69</property>
  <property name="kdenlive:file_hash">a6ae07618a21f3bd14d570f783d37bed</property>
  <property name="force_reload">0</property>
  <property name="global_feed">1</property>
  <property name="meta.media.width">1920</property>
  <property name="meta.media.height">1080</property>
 </producer>
 <producer title="Anonymous Submission" id="producer54" in="00:00:00,000" out="00:00:04,967">
  <property name="length">150</property>
  <property name="eof">pause</property>
  <property name="resource"/>
  <property name="progressive">1</property>
  <property name="aspect_ratio">1</property>
  <property name="seekable">1</property>
  <property name="mlt_service">kdenlivetitle</property>
  <property name="kdenlive:duration">150</property>
  <property name="kdenlive:clipname">08</property>
  <property name="xmldata">&lt;kdenlivetitle duration="150" LC_NUMERIC="id_ID.UTF-8" width="1920" height="1080" out="149">
 &lt;item type="QGraphicsRectItem" z-index="1">
  &lt;position x="196" y="942">
   &lt;transform zoom="100">1,0,0,0,1,0,0,0,1&lt;/transform>
  &lt;/position>
  &lt;content brushcolor="34,70,92,255" pencolor="0,0,0,255" penwidth="0" rect="0,0,198,7"/>
 &lt;/item>
 &lt;item type="QGraphicsTextItem" z-index="0">
  &lt;position x="196" y="885">
   &lt;transform>1,0,0,0,1,0,0,0,1&lt;/transform>
  &lt;/position>
  &lt;content line-spacing="0" shadow="0;#64000000;3;3;3" font-underline="0" box-height="39" font="Inter" letter-spacing="0" font-pixel-size="32" font-italic="0" alignment="1" font-weight="63" box-width="1049.75" font-color="34,70,92,255">Navigator is easier to use, with more context menus&lt;/content>
 &lt;/item>
 &lt;startviewport rect="0,0,1920,1080"/>
 &lt;endviewport rect="0,0,1920,1080"/>
 &lt;background color="0,0,0,0"/>
&lt;/kdenlivetitle>
</property>
  <property name="kdenlive:folderid">40</property>
  <property name="kdenlive:id">70</property>
  <property name="kdenlive:file_hash">ed1adc2ff76886fef949e86d9bad92af</property>
  <property name="force_reload">0</property>
  <property name="global_feed">1</property>
  <property name="meta.media.width">1920</property>
  <property name="meta.media.height">1080</property>
 </producer>
 <producer title="Anonymous Submission" id="producer56" in="00:00:00,000" out="00:00:04,967">
  <property name="length">150</property>
  <property name="eof">pause</property>
  <property name="resource"/>
  <property name="progressive">1</property>
  <property name="aspect_ratio">1</property>
  <property name="seekable">1</property>
  <property name="mlt_service">kdenlivetitle</property>
  <property name="kdenlive:duration">150</property>
  <property name="kdenlive:clipname">09</property>
  <property name="xmldata">&lt;kdenlivetitle duration="150" LC_NUMERIC="id_ID.UTF-8" width="1920" height="1080" out="149">
 &lt;item type="QGraphicsRectItem" z-index="1">
  &lt;position x="196" y="942">
   &lt;transform zoom="100">1,0,0,0,1,0,0,0,1&lt;/transform>
  &lt;/position>
  &lt;content brushcolor="34,70,92,255" pencolor="0,0,0,255" penwidth="0" rect="0,0,198,7"/>
 &lt;/item>
 &lt;item type="QGraphicsTextItem" z-index="0">
  &lt;position x="194" y="879">
   &lt;transform>1,0,0,0,1,0,0,0,1&lt;/transform>
  &lt;/position>
  &lt;content line-spacing="0" shadow="0;#64000000;3;3;3" font-underline="0" box-height="39" font="Inter" letter-spacing="0" font-pixel-size="32" font-italic="0" alignment="1" font-weight="63" box-width="810.328" font-color="34,70,92,255">Semi-transparent text is now supported&lt;/content>
 &lt;/item>
 &lt;startviewport rect="0,0,1920,1080"/>
 &lt;endviewport rect="0,0,1920,1080"/>
 &lt;background color="0,0,0,0"/>
&lt;/kdenlivetitle>
</property>
  <property name="kdenlive:folderid">40</property>
  <property name="kdenlive:id">71</property>
  <property name="kdenlive:file_hash">909c367675c5251d0f6221d213c7fa55</property>
  <property name="force_reload">0</property>
  <property name="global_feed">1</property>
  <property name="meta.media.width">1920</property>
  <property name="meta.media.height">1080</property>
 </producer>
 <producer title="Anonymous Submission" id="producer57" in="00:00:00,000" out="00:00:04,967">
  <property name="length">150</property>
  <property name="eof">pause</property>
  <property name="resource"/>
  <property name="progressive">1</property>
  <property name="aspect_ratio">1</property>
  <property name="seekable">1</property>
  <property name="mlt_service">kdenlivetitle</property>
  <property name="kdenlive:duration">150</property>
  <property name="kdenlive:clipname">10</property>
  <property name="xmldata">&lt;kdenlivetitle duration="150" LC_NUMERIC="id_ID.UTF-8" width="1920" height="1080" out="149">
 &lt;item type="QGraphicsRectItem" z-index="1">
  &lt;position x="196" y="942">
   &lt;transform zoom="100">1,0,0,0,1,0,0,0,1&lt;/transform>
  &lt;/position>
  &lt;content brushcolor="34,70,92,255" pencolor="0,0,0,255" penwidth="0" rect="0,0,198,7"/>
 &lt;/item>
 &lt;item type="QGraphicsTextItem" z-index="0">
  &lt;position x="196" y="880">
   &lt;transform>1,0,0,0,1,0,0,0,1&lt;/transform>
  &lt;/position>
  &lt;content line-spacing="0" shadow="0;#64000000;3;3;3" font-underline="0" box-height="39" font="Inter" letter-spacing="0" font-pixel-size="32" font-italic="0" alignment="1" font-weight="63" box-width="952.266" font-color="34,70,92,255">Bookmarks can now be displayed in-line in text&lt;/content>
 &lt;/item>
 &lt;startviewport rect="0,0,1920,1080"/>
 &lt;endviewport rect="0,0,1920,1080"/>
 &lt;background color="0,0,0,0"/>
&lt;/kdenlivetitle>
</property>
  <property name="kdenlive:folderid">40</property>
  <property name="kdenlive:id">72</property>
  <property name="kdenlive:file_hash">91f6a9fbe549ce55f60371ecad38cc9f</property>
  <property name="force_reload">0</property>
  <property name="global_feed">1</property>
  <property name="meta.media.width">1920</property>
  <property name="meta.media.height">1080</property>
 </producer>
 <producer title="Anonymous Submission" id="producer58" in="00:00:00,000" out="00:00:04,967">
  <property name="length">150</property>
  <property name="eof">pause</property>
  <property name="resource"/>
  <property name="progressive">1</property>
  <property name="aspect_ratio">1</property>
  <property name="seekable">1</property>
  <property name="mlt_service">kdenlivetitle</property>
  <property name="kdenlive:duration">150</property>
  <property name="kdenlive:clipname">11</property>
  <property name="xmldata">&lt;kdenlivetitle duration="150" LC_NUMERIC="id_ID.UTF-8" width="1920" height="1080" out="149">
 &lt;item type="QGraphicsRectItem" z-index="1">
  &lt;position x="196" y="942">
   &lt;transform zoom="100">1,0,0,0,1,0,0,0,1&lt;/transform>
  &lt;/position>
  &lt;content brushcolor="34,70,92,255" pencolor="0,0,0,255" penwidth="0" rect="0,0,198,7"/>
 &lt;/item>
 &lt;item type="QGraphicsTextItem" z-index="0">
  &lt;position x="195" y="880">
   &lt;transform>1,0,0,0,1,0,0,0,1&lt;/transform>
  &lt;/position>
  &lt;content line-spacing="0" shadow="0;#64000000;3;3;3" font-underline="0" box-height="39" font="Inter" letter-spacing="0" font-pixel-size="32" font-italic="0" alignment="1" font-weight="63" box-width="862.516" font-color="34,70,92,255">Padded numbering in lists, for consistency&lt;/content>
 &lt;/item>
 &lt;startviewport rect="0,0,1920,1080"/>
 &lt;endviewport rect="0,0,1920,1080"/>
 &lt;background color="0,0,0,0"/>
&lt;/kdenlivetitle>
</property>
  <property name="kdenlive:folderid">40</property>
  <property name="kdenlive:id">73</property>
  <property name="kdenlive:file_hash">edf329a1016dc44fbbcec90854fa5240</property>
  <property name="force_reload">0</property>
  <property name="global_feed">1</property>
  <property name="meta.media.width">1920</property>
  <property name="meta.media.height">1080</property>
 </producer>
 <producer title="Anonymous Submission" id="producer59" in="00:00:00,000" out="00:00:04,967">
  <property name="length">150</property>
  <property name="eof">pause</property>
  <property name="resource"/>
  <property name="progressive">1</property>
  <property name="aspect_ratio">1</property>
  <property name="seekable">1</property>
  <property name="mlt_service">kdenlivetitle</property>
  <property name="kdenlive:duration">150</property>
  <property name="kdenlive:clipname">12</property>
  <property name="xmldata">&lt;kdenlivetitle duration="150" LC_NUMERIC="id_ID.UTF-8" width="1920" height="1080" out="149">
 &lt;item type="QGraphicsRectItem" z-index="1">
  &lt;position x="196" y="942">
   &lt;transform zoom="100">1,0,0,0,1,0,0,0,1&lt;/transform>
  &lt;/position>
  &lt;content brushcolor="34,70,92,255" pencolor="0,0,0,255" penwidth="0" rect="0,0,198,7"/>
 &lt;/item>
 &lt;item type="QGraphicsTextItem" z-index="0">
  &lt;position x="194" y="881">
   &lt;transform>1,0,0,0,1,0,0,0,1&lt;/transform>
  &lt;/position>
  &lt;content line-spacing="0" shadow="0;#64000000;3;3;3" font-underline="0" box-height="39" font="Inter" letter-spacing="0" font-pixel-size="32" font-italic="0" alignment="1" font-weight="63" box-width="1058.25" font-color="34,70,92,255">Better handling of quotation marks and apostrophes&lt;/content>
 &lt;/item>
 &lt;startviewport rect="0,0,1920,1080"/>
 &lt;endviewport rect="0,0,1920,1080"/>
 &lt;background color="0,0,0,0"/>
&lt;/kdenlivetitle>
</property>
  <property name="kdenlive:folderid">40</property>
  <property name="kdenlive:id">74</property>
  <property name="kdenlive:file_hash">04b40d849e693010701aac0a037be63d</property>
  <property name="force_reload">0</property>
  <property name="global_feed">1</property>
  <property name="meta.media.width">1920</property>
  <property name="meta.media.height">1080</property>
 </producer>
 <producer title="Anonymous Submission" id="producer72" in="00:00:00,000" out="00:00:04,967">
  <property name="length">150</property>
  <property name="eof">pause</property>
  <property name="resource"/>
  <property name="progressive">1</property>
  <property name="aspect_ratio">1</property>
  <property name="seekable">1</property>
  <property name="mlt_service">kdenlivetitle</property>
  <property name="kdenlive:duration">150</property>
  <property name="kdenlive:clipname">13</property>
  <property name="xmldata">&lt;kdenlivetitle duration="150" LC_NUMERIC="id_ID.UTF-8" width="1920" height="1080" out="149">
 &lt;item type="QGraphicsRectItem" z-index="1">
  &lt;position x="196" y="942">
   &lt;transform zoom="100">1,0,0,0,1,0,0,0,1&lt;/transform>
  &lt;/position>
  &lt;content brushcolor="34,70,92,255" pencolor="0,0,0,255" penwidth="0" rect="0,0,198,7"/>
 &lt;/item>
 &lt;item type="QGraphicsTextItem" z-index="0">
  &lt;position x="194" y="882">
   &lt;transform>1,0,0,0,1,0,0,0,1&lt;/transform>
  &lt;/position>
  &lt;content line-spacing="0" shadow="0;#64000000;3;3;3" font-underline="0" box-height="39" font="Inter" letter-spacing="0" font-pixel-size="32" font-italic="0" alignment="1" font-weight="63" box-width="1178.45" font-color="34,70,92,255">New functions for non-volatile random number generation&lt;/content>
 &lt;/item>
 &lt;startviewport rect="0,0,1920,1080"/>
 &lt;endviewport rect="0,0,1920,1080"/>
 &lt;background color="0,0,0,0"/>
&lt;/kdenlivetitle>
</property>
  <property name="kdenlive:folderid">40</property>
  <property name="kdenlive:id">75</property>
  <property name="kdenlive:file_hash">b4eba054e61f40b5ee9be3933d544974</property>
  <property name="force_reload">0</property>
  <property name="global_feed">1</property>
  <property name="meta.media.width">1920</property>
  <property name="meta.media.height">1080</property>
 </producer>
 <producer title="Anonymous Submission" id="producer18" in="00:00:00,000" out="00:00:04,967">
  <property name="length">150</property>
  <property name="eof">pause</property>
  <property name="resource"/>
  <property name="progressive">1</property>
  <property name="aspect_ratio">1</property>
  <property name="seekable">1</property>
  <property name="mlt_service">kdenlivetitle</property>
  <property name="kdenlive:duration">150</property>
  <property name="kdenlive:clipname">14</property>
  <property name="xmldata">&lt;kdenlivetitle duration="150" LC_NUMERIC="id_ID.UTF-8" width="1920" height="1080" out="149">
 &lt;item type="QGraphicsRectItem" z-index="1">
  &lt;position x="196" y="942">
   &lt;transform zoom="100">1,0,0,0,1,0,0,0,1&lt;/transform>
  &lt;/position>
  &lt;content brushcolor="34,70,92,255" pencolor="0,0,0,255" penwidth="0" rect="0,0,198,7"/>
 &lt;/item>
 &lt;item type="QGraphicsTextItem" z-index="0">
  &lt;position x="195" y="881">
   &lt;transform>1,0,0,0,1,0,0,0,1&lt;/transform>
  &lt;/position>
  &lt;content line-spacing="0" shadow="0;#64000000;3;3;3" font-underline="0" box-height="39" font="Inter" letter-spacing="0" font-pixel-size="32" font-italic="0" alignment="1" font-weight="63" box-width="736.781" font-color="34,70,92,255">Many improvements to performance&lt;/content>
 &lt;/item>
 &lt;startviewport rect="0,0,1920,1080"/>
 &lt;endviewport rect="0,0,1920,1080"/>
 &lt;background color="0,0,0,0"/>
&lt;/kdenlivetitle>
</property>
  <property name="kdenlive:folderid">40</property>
  <property name="kdenlive:id">76</property>
  <property name="kdenlive:file_hash">c25cad4a853f2d1f754061cbf4472f76</property>
  <property name="force_reload">0</property>
  <property name="global_feed">1</property>
  <property name="meta.media.width">1920</property>
  <property name="meta.media.height">1080</property>
 </producer>
 <producer title="Anonymous Submission" id="producer61" in="00:00:00,000" out="00:00:04,967">
  <property name="length">150</property>
  <property name="eof">pause</property>
  <property name="resource"/>
  <property name="progressive">1</property>
  <property name="aspect_ratio">1</property>
  <property name="seekable">1</property>
  <property name="mlt_service">kdenlivetitle</property>
  <property name="kdenlive:duration">150</property>
  <property name="kdenlive:clipname">15</property>
  <property name="xmldata">&lt;kdenlivetitle duration="150" LC_NUMERIC="id_ID.UTF-8" width="1920" height="1080" out="149">
 &lt;item type="QGraphicsRectItem" z-index="1">
  &lt;position x="196" y="942">
   &lt;transform zoom="100">1,0,0,0,1,0,0,0,1&lt;/transform>
  &lt;/position>
  &lt;content brushcolor="34,70,92,255" pencolor="0,0,0,255" penwidth="0" rect="0,0,198,7"/>
 &lt;/item>
 &lt;item type="QGraphicsTextItem" z-index="0">
  &lt;position x="191" y="881">
   &lt;transform>1,0,0,0,1,0,0,0,1&lt;/transform>
  &lt;/position>
  &lt;content line-spacing="0" shadow="0;#64000000;3;3;3" font-underline="0" box-height="39" font="Inter" letter-spacing="0" font-pixel-size="32" font-italic="0" alignment="1" font-weight="63" box-width="587.719" font-color="34,70,92,255">Keyboard shortcut added for autosum&lt;/content>
 &lt;/item>
 &lt;startviewport rect="0,0,1920,1080"/>
 &lt;endviewport rect="0,0,1920,1080"/>
 &lt;background color="0,0,0,0"/>
&lt;/kdenlivetitle>
</property>
  <property name="kdenlive:folderid">40</property>
  <property name="kdenlive:id">77</property>
  <property name="kdenlive:file_hash">7463269888d68fc4404516e604bb7217</property>
  <property name="force_reload">0</property>
  <property name="global_feed">1</property>
  <property name="meta.media.width">1920</property>
  <property name="meta.media.height">1080</property>
 </producer>
 <producer title="Anonymous Submission" id="producer62" in="00:00:00,000" out="00:00:04,967">
  <property name="length">150</property>
  <property name="eof">pause</property>
  <property name="resource"/>
  <property name="progressive">1</property>
  <property name="aspect_ratio">1</property>
  <property name="seekable">1</property>
  <property name="mlt_service">kdenlivetitle</property>
  <property name="kdenlive:duration">150</property>
  <property name="kdenlive:clipname">16</property>
  <property name="xmldata">&lt;kdenlivetitle duration="150" LC_NUMERIC="id_ID.UTF-8" width="1920" height="1080" out="149">
 &lt;item type="QGraphicsRectItem" z-index="1">
  &lt;position x="196" y="942">
   &lt;transform zoom="100">1,0,0,0,1,0,0,0,1&lt;/transform>
  &lt;/position>
  &lt;content brushcolor="34,70,92,255" pencolor="0,0,0,255" penwidth="0" rect="0,0,198,7"/>
 &lt;/item>
 &lt;item type="QGraphicsTextItem" z-index="0">
  &lt;position x="193" y="882">
   &lt;transform>1,0,0,0,1,0,0,0,1&lt;/transform>
  &lt;/position>
  &lt;content line-spacing="0" shadow="0;#64000000;3;3;3" font-underline="0" box-height="39" font="Inter" letter-spacing="0" font-pixel-size="32" font-italic="0" alignment="1" font-weight="63" box-width="893.078" font-color="34,70,92,255">Semi-transparent text is supported here too&lt;/content>
 &lt;/item>
 &lt;startviewport rect="0,0,1920,1080"/>
 &lt;endviewport rect="0,0,1920,1080"/>
 &lt;background color="0,0,0,0"/>
&lt;/kdenlivetitle>
</property>
  <property name="kdenlive:folderid">40</property>
  <property name="kdenlive:id">78</property>
  <property name="kdenlive:file_hash">bb2e58469922caaba4d1b340da548fb8</property>
  <property name="force_reload">0</property>
  <property name="global_feed">1</property>
  <property name="meta.media.width">1920</property>
  <property name="meta.media.height">1080</property>
 </producer>
 <producer id="producer63" in="00:00:00,000" out="00:00:04,967">
  <property name="length">00:00:05,000</property>
  <property name="eof">pause</property>
  <property name="resource">images/relibreoffice7newfeaturesvideo/16.png</property>
  <property name="ttl">25</property>
  <property name="aspect_ratio">1</property>
  <property name="progressive">1</property>
  <property name="seekable">1</property>
  <property name="meta.media.width">1280</property>
  <property name="meta.media.height">844</property>
  <property name="mlt_service">qimage</property>
  <property name="kdenlive:clipname"/>
  <property name="kdenlive:duration">00:00:05,000</property>
  <property name="kdenlive:folderid">16</property>
  <property name="kdenlive:id">79</property>
  <property name="kdenlive:file_size">269734</property>
  <property name="kdenlive:file_hash">4b38660662de37bc5a219389610b4a7b</property>
 </producer>
 <producer title="Anonymous Submission" id="producer64" in="00:00:00,000" out="00:00:04,967">
  <property name="length">150</property>
  <property name="eof">pause</property>
  <property name="resource"/>
  <property name="progressive">1</property>
  <property name="aspect_ratio">1</property>
  <property name="seekable">1</property>
  <property name="mlt_service">kdenlivetitle</property>
  <property name="kdenlive:duration">150</property>
  <property name="kdenlive:clipname">17</property>
  <property name="xmldata">&lt;kdenlivetitle duration="150" LC_NUMERIC="id_ID.UTF-8" width="1920" height="1080" out="149">
 &lt;item type="QGraphicsRectItem" z-index="1">
  &lt;position x="196" y="942">
   &lt;transform zoom="100">1,0,0,0,1,0,0,0,1&lt;/transform>
  &lt;/position>
  &lt;content brushcolor="34,70,92,255" pencolor="0,0,0,255" penwidth="0" rect="0,0,198,7"/>
 &lt;/item>
 &lt;item type="QGraphicsTextItem" z-index="0">
  &lt;position x="193" y="878">
   &lt;transform>1,0,0,0,1,0,0,0,1&lt;/transform>
  &lt;/position>
  &lt;content line-spacing="0" shadow="0;#64000000;3;3;3" font-underline="0" box-height="39" font="Inter" letter-spacing="0" font-pixel-size="32" font-italic="0" alignment="1" font-weight="63" box-width="857.125" font-color="34,70,92,255">Subscripts now return to the default of 8%&lt;/content>
 &lt;/item>
 &lt;startviewport rect="0,0,1920,1080"/>
 &lt;endviewport rect="0,0,1920,1080"/>
 &lt;background color="0,0,0,0"/>
&lt;/kdenlivetitle>
</property>
  <property name="kdenlive:folderid">40</property>
  <property name="kdenlive:id">80</property>
  <property name="kdenlive:file_hash">e7e3bf6fb9803b70828e069bbc45118d</property>
  <property name="force_reload">0</property>
  <property name="global_feed">1</property>
  <property name="meta.media.width">1920</property>
  <property name="meta.media.height">1080</property>
 </producer>
 <producer id="producer65" in="00:00:00,000" out="00:00:04,967">
  <property name="length">150</property>
  <property name="eof">pause</property>
  <property name="resource"/>
  <property name="progressive">1</property>
  <property name="aspect_ratio">1</property>
  <property name="seekable">1</property>
  <property name="mlt_service">kdenlivetitle</property>
  <property name="kdenlive:duration">150</property>
  <property name="kdenlive:clipname">18</property>
  <property name="xmldata">&lt;kdenlivetitle duration="150" LC_NUMERIC="id_ID.UTF-8" width="1920" height="1080" out="149">
 &lt;item type="QGraphicsRectItem" z-index="1">
  &lt;position x="196" y="942">
   &lt;transform zoom="100">1,0,0,0,1,0,0,0,1&lt;/transform>
  &lt;/position>
  &lt;content brushcolor="34,70,92,255" pencolor="0,0,0,255" penwidth="0" rect="0,0,198,7"/>
 &lt;/item>
 &lt;item type="QGraphicsTextItem" z-index="0">
  &lt;position x="193" y="882">
   &lt;transform>1,0,0,0,1,0,0,0,1&lt;/transform>
  &lt;/position>
  &lt;content line-spacing="0" shadow="0;#64000000;3;3;3" font-underline="0" box-height="39" font="Inter" letter-spacing="0" font-pixel-size="32" font-italic="0" alignment="1" font-weight="63" box-width="1088.42" font-color="34,70,92,255">PDFs larger than 200" / 500cm can now be generated&lt;/content>
 &lt;/item>
 &lt;startviewport rect="0,0,1920,1080"/>
 &lt;endviewport rect="0,0,1920,1080"/>
 &lt;background color="0,0,0,0"/>
&lt;/kdenlivetitle>
</property>
  <property name="kdenlive:folderid">40</property>
  <property name="kdenlive:id">81</property>
  <property name="kdenlive:file_hash">e7e3bf6fb9803b70828e069bbc45118d</property>
  <property name="force_reload">0</property>
  <property name="global_feed">1</property>
  <property name="meta.media.width">1920</property>
  <property name="meta.media.height">1080</property>
 </producer>
 <producer title="Anonymous Submission" id="producer73" in="00:00:00,000" out="00:00:04,967">
  <property name="length">00:00:05,000</property>
  <property name="eof">pause</property>
  <property name="resource">images/img-credit.png</property>
  <property name="ttl">25</property>
  <property name="aspect_ratio">1</property>
  <property name="progressive">1</property>
  <property name="seekable">1</property>
  <property name="meta.media.width">3000</property>
  <property name="meta.media.height">1688</property>
  <property name="mlt_service">qimage</property>
  <property name="kdenlive:clipname"/>
  <property name="kdenlive:duration">00:00:05,000</property>
  <property name="kdenlive:folderid">17</property>
  <property name="kdenlive:id">82</property>
  <property name="kdenlive:file_size">222845</property>
  <property name="kdenlive:file_hash">c8668f3b05c685cae27298432235447f</property>
  <property name="global_feed">1</property>
 </producer>
 <producer title="Anonymous Submission" id="producer74" in="00:00:00,000" out="00:00:04,967">
  <property name="length">00:00:05,000</property>
  <property name="eof">pause</property>
  <property name="resource">images/img-thanks.png</property>
  <property name="ttl">25</property>
  <property name="aspect_ratio">1</property>
  <property name="progressive">1</property>
  <property name="seekable">1</property>
  <property name="meta.media.width">3000</property>
  <property name="meta.media.height">1688</property>
  <property name="mlt_service">qimage</property>
  <property name="kdenlive:clipname"/>
  <property name="kdenlive:duration">00:00:05,000</property>
  <property name="kdenlive:folderid">38</property>
  <property name="kdenlive:id">83</property>
  <property name="kdenlive:file_size">72820</property>
  <property name="kdenlive:file_hash">6bb4e82b363d492c440889e5d5f14555</property>
  <property name="global_feed">1</property>
 </producer>
 <producer id="producer75" in="00:00:00,000" out="00:00:04,967">
  <property name="length">00:00:05,000</property>
  <property name="eof">pause</property>
  <property name="resource">images/img-deploy.png</property>
  <property name="ttl">25</property>
  <property name="aspect_ratio">1</property>
  <property name="progressive">1</property>
  <property name="seekable">1</property>
  <property name="meta.media.width">1920</property>
  <property name="meta.media.height">1080</property>
  <property name="mlt_service">qimage</property>
  <property name="kdenlive:clipname"/>
  <property name="kdenlive:duration">00:00:05,000</property>
  <property name="kdenlive:folderid">38</property>
  <property name="kdenlive:id">84</property>
  <property name="kdenlive:file_size">48076</property>
  <property name="kdenlive:file_hash">6a4c5d16a91951538eb3152914c0ab7b</property>
  <property name="global_feed">1</property>
 </producer>
 <producer title="Anonymous Submission" id="producer77" in="00:00:00,000" out="00:00:04,800">
  <property name="length">145</property>
  <property name="eof">pause</property>
  <property name="resource">synfig-files/skia.mp4</property>
  <property name="audio_index">-1</property>
  <property name="video_index">0</property>
  <property name="mute_on_pause">0</property>
  <property name="mlt_service">avformat-novalidate</property>
  <property name="meta.media.nb_streams">1</property>
  <property name="meta.media.0.stream.type">video</property>
  <property name="meta.media.0.stream.frame_rate">30</property>
  <property name="meta.media.0.stream.sample_aspect_ratio">0</property>
  <property name="meta.media.0.codec.width">1920</property>
  <property name="meta.media.0.codec.height">1080</property>
  <property name="meta.media.0.codec.rotate">0</property>
  <property name="meta.media.0.codec.frame_rate">30</property>
  <property name="meta.media.0.codec.pix_fmt">yuv420p</property>
  <property name="meta.media.0.codec.sample_aspect_ratio">1</property>
  <property name="meta.media.0.codec.colorspace">709</property>
  <property name="meta.media.0.codec.name">mpeg4</property>
  <property name="meta.media.0.codec.long_name">MPEG-4 part 2</property>
  <property name="meta.media.0.codec.bit_rate">1357218</property>
  <property name="meta.attr.0.stream.handler_name.markup">VideoHandler</property>
  <property name="meta.attr.major_brand.markup">isom</property>
  <property name="meta.attr.minor_version.markup">512</property>
  <property name="meta.attr.compatible_brands.markup">isomiso2mp41</property>
  <property name="meta.attr.title.markup">"skia.sif"</property>
  <property name="meta.attr.encoder.markup">Lavf58.45.100</property>
  <property name="seekable">1</property>
  <property name="meta.media.sample_aspect_num">1</property>
  <property name="meta.media.sample_aspect_den">1</property>
  <property name="aspect_ratio">1</property>
  <property name="kdenlive:clipname"/>
  <property name="kdenlive:folderid">19</property>
  <property name="meta.media.frame_rate_num">30</property>
  <property name="meta.media.frame_rate_den">1</property>
  <property name="meta.media.colorspace">709</property>
  <property name="meta.media.color_trc">2</property>
  <property name="meta.media.width">1920</property>
  <property name="meta.media.height">1080</property>
  <property name="meta.media.color_range">mpeg</property>
  <property name="kdenlive:id">86</property>
  <property name="kdenlive:file_size">821509</property>
  <property name="kdenlive:file_hash">a2337753f128c087f42daabc133215be</property>
  <property name="meta.media.top_field_first">0</property>
  <property name="meta.media.progressive">1</property>
  <property name="global_feed">1</property>
 </producer>
 <producer id="producer78" in="00:00:00,000" out="00:00:04,967">
  <property name="length">00:00:05,000</property>
  <property name="eof">pause</property>
  <property name="resource">images/quote-right.png</property>
  <property name="ttl">25</property>
  <property name="aspect_ratio">1</property>
  <property name="progressive">1</property>
  <property name="seekable">1</property>
  <property name="meta.media.width">6000</property>
  <property name="meta.media.height">3375</property>
  <property name="mlt_service">qimage</property>
  <property name="kdenlive:clipname"/>
  <property name="kdenlive:duration">00:00:05,000</property>
  <property name="kdenlive:folderid">16</property>
  <property name="kdenlive:id">87</property>
  <property name="kdenlive:file_size">90581</property>
  <property name="kdenlive:file_hash">46e79a583e19274e43111043dea8c4ec</property>
 </producer>
 <producer id="producer79" in="00:00:00,000" out="00:00:04,967">
  <property name="length">00:00:05,000</property>
  <property name="eof">pause</property>
  <property name="resource">images/quote-left.png</property>
  <property name="ttl">25</property>
  <property name="aspect_ratio">1</property>
  <property name="progressive">1</property>
  <property name="seekable">1</property>
  <property name="meta.media.width">6000</property>
  <property name="meta.media.height">3375</property>
  <property name="mlt_service">qimage</property>
  <property name="kdenlive:clipname"/>
  <property name="kdenlive:duration">00:00:05,000</property>
  <property name="kdenlive:folderid">16</property>
  <property name="kdenlive:id">88</property>
  <property name="kdenlive:file_size">90508</property>
  <property name="kdenlive:file_hash">b07e1115f17b293ea8508553bd7ab3bb</property>
 </producer>
 <producer id="producer80" in="00:00:00,000" out="00:00:04,967">
  <property name="length">00:00:05,000</property>
  <property name="eof">pause</property>
  <property name="resource">images/quotes.png</property>
  <property name="ttl">25</property>
  <property name="aspect_ratio">1</property>
  <property name="progressive">1</property>
  <property name="seekable">1</property>
  <property name="meta.media.width">6000</property>
  <property name="meta.media.height">3375</property>
  <property name="mlt_service">qimage</property>
  <property name="kdenlive:clipname"/>
  <property name="kdenlive:duration">00:00:05,000</property>
  <property name="kdenlive:folderid">16</property>
  <property name="kdenlive:id">89</property>
  <property name="kdenlive:file_size">102160</property>
  <property name="kdenlive:file_hash">95521c09b3bc0e0479cafd390d961000</property>
 </producer>
 <producer title="Anonymous Submission" id="producer81" in="00:00:00,000" out="00:00:09,367">
  <property name="length">282</property>
  <property name="eof">pause</property>
  <property name="resource">clip/feature-clips/06-glow-and-soft-effect-2020-07-31_19.13.04.mkv</property>
  <property name="audio_index">-1</property>
  <property name="video_index">0</property>
  <property name="mute_on_pause">0</property>
  <property name="mlt_service">avformat-novalidate</property>
  <property name="meta.media.nb_streams">1</property>
  <property name="meta.media.0.stream.type">video</property>
  <property name="meta.media.0.stream.frame_rate">62,5</property>
  <property name="meta.media.0.stream.sample_aspect_ratio">1</property>
  <property name="meta.media.0.codec.width">1082</property>
  <property name="meta.media.0.codec.height">808</property>
  <property name="meta.media.0.codec.rotate">0</property>
  <property name="meta.media.0.codec.frame_rate">60</property>
  <property name="meta.media.0.codec.pix_fmt">yuv420p</property>
  <property name="meta.media.0.codec.sample_aspect_ratio">1</property>
  <property name="meta.media.0.codec.colorspace">709</property>
  <property name="meta.media.0.codec.color_trc">1</property>
  <property name="meta.media.0.codec.name">h264</property>
  <property name="meta.media.0.codec.long_name">H.264 / AVC / MPEG-4 AVC / MPEG-4 part 10</property>
  <property name="meta.media.0.codec.bit_rate">0</property>
  <property name="meta.attr.0.stream.DURATION.markup">00:00:09,400000000</property>
  <property name="meta.attr.ENCODER.markup">Lavf58.29.100</property>
  <property name="seekable">1</property>
  <property name="meta.media.sample_aspect_num">1</property>
  <property name="meta.media.sample_aspect_den">1</property>
  <property name="aspect_ratio">1</property>
  <property name="kdenlive:clipname"/>
  <property name="kdenlive:folderid">19</property>
  <property name="meta.media.frame_rate_num">125</property>
  <property name="meta.media.frame_rate_den">2</property>
  <property name="meta.media.colorspace">709</property>
  <property name="meta.media.color_trc">1</property>
  <property name="meta.media.width">1082</property>
  <property name="meta.media.height">808</property>
  <property name="meta.media.color_range">mpeg</property>
  <property name="kdenlive:id">90</property>
  <property name="kdenlive:file_size">374798</property>
  <property name="kdenlive:file_hash">a25ddb3e5cebe0dea1a268d64319e5a9</property>
  <property name="meta.media.top_field_first">0</property>
  <property name="meta.media.progressive">1</property>
  <property name="global_feed">1</property>
 </producer>
 <producer title="Anonymous Submission" id="producer16" in="00:00:00,000" out="00:00:04,833">
  <property name="length">146</property>
  <property name="eof">pause</property>
  <property name="resource">synfig-files/shortcut.gif</property>
  <property name="audio_index">-1</property>
  <property name="video_index">0</property>
  <property name="mute_on_pause">0</property>
  <property name="mlt_service">avformat-novalidate</property>
  <property name="seekable">1</property>
  <property name="aspect_ratio">1</property>
  <property name="kdenlive:clipname"/>
  <property name="kdenlive:duration">00:00:05,000</property>
  <property name="kdenlive:folderid">19</property>
  <property name="kdenlive:id">91</property>
  <property name="kdenlive:file_size">929539</property>
  <property name="kdenlive:file_hash">11337629c4818bbf6b93cd2a1cf29207</property>
  <property name="global_feed">1</property>
  <property name="meta.media.nb_streams">1</property>
  <property name="meta.media.0.stream.type">video</property>
  <property name="meta.media.0.stream.frame_rate">20</property>
  <property name="meta.media.0.stream.sample_aspect_ratio">0</property>
  <property name="meta.media.0.codec.width">1920</property>
  <property name="meta.media.0.codec.height">1080</property>
  <property name="meta.media.0.codec.rotate">0</property>
  <property name="meta.media.0.codec.frame_rate">100</property>
  <property name="meta.media.0.codec.pix_fmt">bgra</property>
  <property name="meta.media.0.codec.sample_aspect_ratio">0</property>
  <property name="meta.media.0.codec.colorspace">709</property>
  <property name="meta.media.0.codec.name">gif</property>
  <property name="meta.media.0.codec.long_name">GIF (Graphics Interchange Format)</property>
  <property name="meta.media.0.codec.bit_rate">0</property>
  <property name="meta.media.sample_aspect_num">1</property>
  <property name="meta.media.sample_aspect_den">1</property>
  <property name="meta.media.frame_rate_num">20</property>
  <property name="meta.media.frame_rate_den">1</property>
  <property name="meta.media.colorspace">709</property>
  <property name="meta.media.color_trc">2</property>
  <property name="meta.media.width">1920</property>
  <property name="meta.media.height">1080</property>
  <property name="meta.media.color_range">mpeg</property>
  <property name="meta.media.top_field_first">0</property>
  <property name="meta.media.progressive">1</property>
 </producer>
 <producer title="Anonymous Submission" id="producer50" in="00:00:00,000" out="00:00:04,967">
  <property name="length">00:00:05,000</property>
  <property name="eof">pause</property>
  <property name="resource">synfig-files/pdf.gif</property>
  <property name="meta.media.nb_streams">1</property>
  <property name="meta.media.0.stream.type">video</property>
  <property name="meta.media.0.stream.frame_rate">20</property>
  <property name="meta.media.0.stream.sample_aspect_ratio">0</property>
  <property name="meta.media.0.codec.width">1920</property>
  <property name="meta.media.0.codec.height">1080</property>
  <property name="meta.media.0.codec.rotate">0</property>
  <property name="meta.media.0.codec.frame_rate">100</property>
  <property name="meta.media.0.codec.pix_fmt">bgra</property>
  <property name="meta.media.0.codec.sample_aspect_ratio">0</property>
  <property name="meta.media.0.codec.colorspace">709</property>
  <property name="meta.media.0.codec.name">gif</property>
  <property name="meta.media.0.codec.long_name">GIF (Graphics Interchange Format)</property>
  <property name="meta.media.0.codec.bit_rate">0</property>
  <property name="seekable">1</property>
  <property name="meta.media.sample_aspect_num">1</property>
  <property name="meta.media.sample_aspect_den">1</property>
  <property name="aspect_ratio">1</property>
  <property name="audio_index">-1</property>
  <property name="video_index">0</property>
  <property name="mute_on_pause">0</property>
  <property name="mlt_service">avformat-novalidate</property>
  <property name="kdenlive:clipname"/>
  <property name="kdenlive:duration">00:00:05,000</property>
  <property name="kdenlive:folderid">19</property>
  <property name="meta.media.frame_rate_num">20</property>
  <property name="meta.media.frame_rate_den">1</property>
  <property name="meta.media.colorspace">709</property>
  <property name="meta.media.color_trc">2</property>
  <property name="meta.media.width">1920</property>
  <property name="meta.media.height">1080</property>
  <property name="meta.media.color_range">mpeg</property>
  <property name="kdenlive:id">92</property>
  <property name="kdenlive:file_size">1419454</property>
  <property name="kdenlive:file_hash">0414ad754cb5f55cf76b8217d331ecc6</property>
  <property name="meta.media.top_field_first">0</property>
  <property name="meta.media.progressive">1</property>
  <property name="global_feed">1</property>
 </producer>
 <producer id="producer82" in="00:00:00,000" out="00:00:04,967">
  <property name="length">00:00:05,000</property>
  <property name="eof">pause</property>
  <property name="resource">synfig-files/pdf.png</property>
  <property name="ttl">25</property>
  <property name="aspect_ratio">1</property>
  <property name="progressive">1</property>
  <property name="seekable">1</property>
  <property name="meta.media.width">1920</property>
  <property name="meta.media.height">1080</property>
  <property name="mlt_service">qimage</property>
  <property name="kdenlive:clipname"/>
  <property name="kdenlive:duration">00:00:05,000</property>
  <property name="kdenlive:folderid">19</property>
  <property name="kdenlive:id">93</property>
  <property name="kdenlive:file_size">54212</property>
  <property name="kdenlive:file_hash">81deffbc12c77f91c3571b473b52d7b4</property>
 </producer>
 <producer id="producer83" in="00:00:00,000" out="00:00:05,200">
  <property name="length">157</property>
  <property name="eof">pause</property>
  <property name="resource">images/img-code.png</property>
  <property name="ttl">25</property>
  <property name="aspect_ratio">1</property>
  <property name="progressive">1</property>
  <property name="seekable">1</property>
  <property name="meta.media.width">928</property>
  <property name="meta.media.height">988</property>
  <property name="mlt_service">qimage</property>
  <property name="kdenlive:clipname"/>
  <property name="kdenlive:duration">00:00:05,000</property>
  <property name="kdenlive:folderid">19</property>
  <property name="kdenlive:id">94</property>
  <property name="kdenlive:file_size">163225</property>
  <property name="kdenlive:file_hash">9aa1c284c423ef45735b9adacedebabd</property>
 </producer>
 <producer id="producer84" in="00:00:00,000" out="00:00:04,967">
  <property name="length">00:00:05,000</property>
  <property name="eof">pause</property>
  <property name="resource">images/relibreoffice7newfeaturesvideo/14.png</property>
  <property name="ttl">25</property>
  <property name="aspect_ratio">1</property>
  <property name="progressive">1</property>
  <property name="seekable">1</property>
  <property name="meta.media.width">2315</property>
  <property name="meta.media.height">2337</property>
  <property name="mlt_service">qimage</property>
  <property name="kdenlive:clipname"/>
  <property name="kdenlive:duration">00:00:05,000</property>
  <property name="kdenlive:folderid">16</property>
  <property name="kdenlive:id">33</property>
  <property name="kdenlive:file_size">1428911</property>
  <property name="kdenlive:file_hash">5038fcc1c9d1ad9b7fd6efc1e69e7558</property>
  <property name="global_feed">1</property>
 </producer>
 <producer title="Anonymous Submission" id="producer85" in="00:00:00,000" out="00:00:04,967">
  <property name="length">00:00:05,000</property>
  <property name="eof">pause</property>
  <property name="resource">images/img-writer.png</property>
  <property name="ttl">25</property>
  <property name="aspect_ratio">1</property>
  <property name="progressive">1</property>
  <property name="seekable">1</property>
  <property name="meta.media.width">6000</property>
  <property name="meta.media.height">3375</property>
  <property name="mlt_service">qimage</property>
  <property name="kdenlive:clipname"/>
  <property name="kdenlive:duration">00:00:05,000</property>
  <property name="kdenlive:folderid">17</property>
  <property name="kdenlive:id">95</property>
  <property name="kdenlive:file_size">169397</property>
  <property name="kdenlive:file_hash">17d1462fdb1e49055bd13389002aaeba</property>
  <property name="global_feed">1</property>
 </producer>
 <producer id="producer86" in="00:00:00,000" out="00:00:04,967">
  <property name="length">00:00:05,000</property>
  <property name="eof">pause</property>
  <property name="resource">images/img-calc.png</property>
  <property name="ttl">25</property>
  <property name="aspect_ratio">1</property>
  <property name="progressive">1</property>
  <property name="seekable">1</property>
  <property name="meta.media.width">6000</property>
  <property name="meta.media.height">3375</property>
  <property name="mlt_service">qimage</property>
  <property name="kdenlive:clipname"/>
  <property name="kdenlive:duration">00:00:05,000</property>
  <property name="kdenlive:folderid">17</property>
  <property name="kdenlive:id">96</property>
  <property name="kdenlive:file_size">161451</property>
  <property name="kdenlive:file_hash">4adf03de5d7112f7ccad04d2d36f8547</property>
 </producer>
 <producer id="producer87" in="00:00:00,000" out="00:00:04,967">
  <property name="length">00:00:05,000</property>
  <property name="eof">pause</property>
  <property name="resource">images/img-impress.png</property>
  <property name="ttl">25</property>
  <property name="aspect_ratio">1</property>
  <property name="progressive">1</property>
  <property name="seekable">1</property>
  <property name="meta.media.width">6000</property>
  <property name="meta.media.height">3375</property>
  <property name="mlt_service">qimage</property>
  <property name="kdenlive:clipname"/>
  <property name="kdenlive:duration">00:00:05,000</property>
  <property name="kdenlive:folderid">17</property>
  <property name="kdenlive:id">97</property>
  <property name="kdenlive:file_size">172222</property>
  <property name="kdenlive:file_hash">e9637518704a380b3859f90c434096e9</property>
 </producer>
 <producer id="producer88" in="00:00:00,000" out="00:00:04,967">
  <property name="length">00:00:05,000</property>
  <property name="eof">pause</property>
  <property name="resource">images/img-new.png</property>
  <property name="ttl">25</property>
  <property name="aspect_ratio">1</property>
  <property name="progressive">1</property>
  <property name="seekable">1</property>
  <property name="meta.media.width">6000</property>
  <property name="meta.media.height">3375</property>
  <property name="mlt_service">qimage</property>
  <property name="kdenlive:clipname"/>
  <property name="kdenlive:duration">00:00:05,000</property>
  <property name="kdenlive:folderid">38</property>
  <property name="kdenlive:id">85</property>
  <property name="kdenlive:file_size">118063</property>
  <property name="kdenlive:file_hash">ef5429da2df8755f5169194c05fcda71</property>
  <property name="global_feed">1</property>
 </producer>
 <playlist id="main_bin">
  <property name="kdenlive:folder.-1.17">img</property>
  <property name="kdenlive:folder.-1.18">audio</property>
  <property name="kdenlive:folder.-1.19">clip</property>
  <property name="kdenlive:folder.-1.40">Text</property>
  <property name="kdenlive:folder.-1.47">feature-clips</property>
  <property name="kdenlive:folder.17.16">7.0-features</property>
  <property name="kdenlive:folder.17.38">misc</property>
  <property name="kdenlive:docproperties.activeTrack">5</property>
  <property name="kdenlive:docproperties.audioTarget">-1</property>
  <property name="kdenlive:docproperties.decimalPoint">,</property>
  <property name="kdenlive:docproperties.disablepreview">0</property>
  <property name="kdenlive:docproperties.documentid">1590181328746</property>
  <property name="kdenlive:docproperties.enableTimelineZone">0</property>
  <property name="kdenlive:docproperties.enableexternalproxy">0</property>
  <property name="kdenlive:docproperties.enableproxy">0</property>
  <property name="kdenlive:docproperties.externalproxyparams">../Sub;;S03.MP4;../Clip;;.MXF</property>
  <property name="kdenlive:docproperties.generateimageproxy">0</property>
  <property name="kdenlive:docproperties.generateproxy">0</property>
  <property name="kdenlive:docproperties.groups">[
]
</property>
  <property name="kdenlive:docproperties.kdenliveversion">20.04.3</property>
  <property name="kdenlive:docproperties.position">2745</property>
  <property name="kdenlive:docproperties.previewextension"/>
  <property name="kdenlive:docproperties.previewparameters"/>
  <property name="kdenlive:docproperties.profile">atsc_1080p_30</property>
  <property name="kdenlive:docproperties.proxyextension"/>
  <property name="kdenlive:docproperties.proxyimageminsize">2000</property>
  <property name="kdenlive:docproperties.proxyimagesize">800</property>
  <property name="kdenlive:docproperties.proxyminsize">1000</property>
  <property name="kdenlive:docproperties.proxyparams"/>
  <property name="kdenlive:docproperties.renderaudioquality">0</property>
  <property name="kdenlive:docproperties.rendercategory">Custom</property>
  <property name="kdenlive:docproperties.renderendguide">-1</property>
  <property name="kdenlive:docproperties.renderexportaudio">0</property>
  <property name="kdenlive:docproperties.renderfield">0</property>
  <property name="kdenlive:docproperties.renderguide">0</property>
  <property name="kdenlive:docproperties.renderplay">0</property>
  <property name="kdenlive:docproperties.renderprofile">Quavidia</property>
  <property name="kdenlive:docproperties.renderquality">0</property>
  <property name="kdenlive:docproperties.renderratio">1</property>
  <property name="kdenlive:docproperties.renderrescale">0</property>
  <property name="kdenlive:docproperties.renderrescaleheight">540</property>
  <property name="kdenlive:docproperties.renderrescalewidth">960</property>
  <property name="kdenlive:docproperties.renderscanning">0</property>
  <property name="kdenlive:docproperties.renderspeed">1</property>
  <property name="kdenlive:docproperties.renderstartguide">-1</property>
  <property name="kdenlive:docproperties.rendertcoverlay">0</property>
  <property name="kdenlive:docproperties.rendertctype">0</property>
  <property name="kdenlive:docproperties.rendertwopass">0</property>
  <property name="kdenlive:docproperties.renderurl">LibreOffice-7.0-Final.mp4</property>
  <property name="kdenlive:docproperties.renderzone">0</property>
  <property name="kdenlive:docproperties.scrollPos">3069</property>
  <property name="kdenlive:docproperties.seekOffset">30000</property>
  <property name="kdenlive:docproperties.version">0.99</property>
  <property name="kdenlive:docproperties.verticalzoom">1</property>
  <property name="kdenlive:docproperties.videoTarget">2</property>
  <property name="kdenlive:docproperties.zonein">925</property>
  <property name="kdenlive:docproperties.zoneout">1140</property>
  <property name="kdenlive:docproperties.zoom">5</property>
  <property name="kdenlive:documentnotes"/>
  <property name="xml_retain">1</property>
  <entry producer="producer12" in="00:00:00,000" out="00:00:48,000"/>
  <entry producer="producer31" in="00:00:00,000" out="00:00:04,967"/>
  <entry producer="producer28" in="00:00:00,000" out="00:00:04,967"/>
  <entry producer="producer26" in="00:00:00,000" out="00:00:04,967"/>
  <entry producer="producer22" in="00:00:00,000" out="00:00:04,967"/>
  <entry producer="producer27" in="00:00:00,000" out="00:00:06,267"/>
  <entry producer="producer30" in="00:00:00,000" out="00:03:14,800"/>
  <entry producer="producer11" in="00:00:00,000" out="00:03:41,033"/>
  <entry producer="producer29" in="00:00:00,000" out="00:00:05,433"/>
  <entry producer="producer23" in="00:00:00,000" out="00:00:04,967"/>
  <entry producer="producer21" in="00:00:00,000" out="00:00:04,967"/>
  <entry producer="producer76" in="00:00:00,000" out="00:00:04,967"/>
  <entry producer="producer25" in="00:00:00,000" out="00:00:04,967"/>
  <entry producer="producer0" in="00:00:00,000" out="00:03:11,600"/>
  <entry producer="producer1" in="00:00:00,000" out="00:00:04,967"/>
  <entry producer="producer2" in="00:00:00,000" out="00:00:05,133"/>
  <entry producer="producer3" in="00:00:00,000" out="00:00:04,967"/>
  <entry producer="producer4" in="00:00:00,000" out="00:00:05,167"/>
  <entry producer="producer5" in="00:00:00,000" out="00:00:04,967"/>
  <entry producer="producer6" in="00:00:00,000" out="00:00:05,800"/>
  <entry producer="producer7" in="00:00:00,000" out="00:00:04,967"/>
  <entry producer="producer8" in="00:00:00,000" out="00:00:04,967"/>
  <entry producer="producer9" in="00:00:00,000" out="00:00:04,967"/>
  <entry producer="producer10" in="00:00:00,000" out="00:00:04,967"/>
  <entry producer="producer13" in="00:00:00,000" out="00:00:04,967"/>
  <entry producer="producer14" in="00:00:00,000" out="00:00:05,033"/>
  <entry producer="producer15" in="00:00:00,000" out="00:00:04,967"/>
  <entry producer="producer17" in="00:00:00,000" out="00:00:04,967"/>
  <entry producer="producer19" in="00:00:00,000" out="00:00:04,967"/>
  <entry producer="producer20" in="00:00:00,000" out="00:00:04,967"/>
  <entry producer="producer32" in="00:00:00,000" out="00:00:04,800"/>
  <entry producer="producer33" in="00:00:00,000" out="00:00:04,967"/>
  <entry producer="producer24" in="00:00:00,000" out="00:00:06,433"/>
  <entry producer="producer34" in="00:00:00,000" out="00:00:04,800"/>
  <entry producer="producer35" in="00:00:00,000" out="00:00:04,967"/>
  <entry producer="producer36" in="00:00:00,000" out="00:00:04,800"/>
  <entry producer="producer37" in="00:00:00,000" out="00:00:04,967"/>
  <entry producer="producer38" in="00:00:00,000" out="00:00:16,467"/>
  <entry producer="producer39" in="00:00:00,000" out="00:00:28,000"/>
  <entry producer="producer40" in="00:00:00,000" out="00:00:31,200"/>
  <entry producer="producer41" in="00:00:00,000" out="00:00:28,000"/>
  <entry producer="producer42" in="00:00:00,000" out="00:00:26,933"/>
  <entry producer="producer43" in="00:00:00,000" out="00:00:08,133"/>
  <entry producer="producer44" in="00:00:00,000" out="00:00:09,000"/>
  <entry producer="producer45" in="00:00:00,000" out="00:00:07,733"/>
  <entry producer="producer46" in="00:00:00,000" out="00:00:09,833"/>
  <entry producer="producer47" in="00:00:00,000" out="00:00:04,967"/>
  <entry producer="producer48" in="00:00:00,000" out="00:00:04,967"/>
  <entry producer="producer49" in="00:00:00,000" out="00:00:05,567"/>
  <entry producer="producer55" in="00:00:00,000" out="00:00:05,567"/>
  <entry producer="producer60" in="00:00:00,000" out="00:00:05,567"/>
  <entry producer="producer66" in="00:00:00,000" out="00:00:05,567"/>
  <entry producer="producer67" in="00:00:00,000" out="00:00:05,567"/>
  <entry producer="producer68" in="00:00:00,000" out="00:00:22,800"/>
  <entry producer="producer69" in="00:00:00,000" out="00:00:04,967"/>
  <entry producer="producer70" in="00:00:00,000" out="00:00:05,000"/>
  <entry producer="producer71" in="00:00:00,000" out="00:00:04,967"/>
  <entry producer="producer51" in="00:00:00,000" out="00:00:05,167"/>
  <entry producer="producer52" in="00:00:00,000" out="00:00:04,967"/>
  <entry producer="producer53" in="00:00:00,000" out="00:00:04,967"/>
  <entry producer="producer54" in="00:00:00,000" out="00:00:04,967"/>
  <entry producer="producer56" in="00:00:00,000" out="00:00:04,967"/>
  <entry producer="producer57" in="00:00:00,000" out="00:00:04,967"/>
  <entry producer="producer58" in="00:00:00,000" out="00:00:04,967"/>
  <entry producer="producer59" in="00:00:00,000" out="00:00:04,967"/>
  <entry producer="producer72" in="00:00:00,000" out="00:00:04,967"/>
  <entry producer="producer18" in="00:00:00,000" out="00:00:04,967"/>
  <entry producer="producer61" in="00:00:00,000" out="00:00:04,967"/>
  <entry producer="producer62" in="00:00:00,000" out="00:00:04,967"/>
  <entry producer="producer63" in="00:00:00,000" out="00:00:04,967"/>
  <entry producer="producer64" in="00:00:00,000" out="00:00:04,967"/>
  <entry producer="producer65" in="00:00:00,000" out="00:00:04,967"/>
  <entry producer="producer73" in="00:00:00,000" out="00:00:04,967"/>
  <entry producer="producer74" in="00:00:00,000" out="00:00:04,967"/>
  <entry producer="producer75" in="00:00:00,000" out="00:00:04,967"/>
  <entry producer="producer77" in="00:00:00,000" out="00:00:04,800"/>
  <entry producer="producer78" in="00:00:00,000" out="00:00:04,967"/>
  <entry producer="producer79" in="00:00:00,000" out="00:00:04,967"/>
  <entry producer="producer80" in="00:00:00,000" out="00:00:04,967"/>
  <entry producer="producer81" in="00:00:00,000" out="00:00:09,367"/>
  <entry producer="producer16" in="00:00:00,000" out="00:00:04,833"/>
  <entry producer="producer50" in="00:00:00,000" out="00:00:04,967"/>
  <entry producer="producer82" in="00:00:00,000" out="00:00:04,967"/>
  <entry producer="producer83" in="00:00:00,000" out="00:00:04,967"/>
  <entry producer="producer84" in="00:00:00,000" out="00:00:04,967"/>
  <entry producer="producer85" in="00:00:00,000" out="00:00:04,967"/>
  <entry producer="producer86" in="00:00:00,000" out="00:00:04,967"/>
  <entry producer="producer87" in="00:00:00,000" out="00:00:04,967"/>
  <entry producer="producer88" in="00:00:00,000" out="00:00:04,967"/>
 </playlist>
 <producer id="black_track" in="00:00:00,000" out="00:18:54,767">
  <property name="length">2147483647</property>
  <property name="eof">continue</property>
  <property name="resource">black</property>
  <property name="aspect_ratio">1</property>
  <property name="mlt_service">color</property>
  <property name="mlt_image_format">rgb24a</property>
  <property name="set.test_audio">0</property>
 </producer>
 <producer title="Anonymous Submission" id="producer89" in="00:00:00,000" out="00:03:11,600">
  <property name="length">5749</property>
  <property name="eof">pause</property>
  <property name="resource">audio/LibreOffice_by_Ahmad_Haris.mp3</property>
  <property name="audio_index">0</property>
  <property name="video_index">-1</property>
  <property name="mute_on_pause">0</property>
  <property name="mlt_service">avformat-novalidate</property>
  <property name="meta.media.nb_streams">1</property>
  <property name="meta.media.0.stream.type">audio</property>
  <property name="meta.media.0.codec.sample_fmt">fltp</property>
  <property name="meta.media.0.codec.sample_rate">44100</property>
  <property name="meta.media.0.codec.channels">2</property>
  <property name="meta.media.0.codec.name">mp3float</property>
  <property name="meta.media.0.codec.long_name">MP3 (MPEG audio layer 3)</property>
  <property name="meta.media.0.codec.bit_rate">192000</property>
  <property name="meta.attr.TSS.markup">GarageBand 10.3.4</property>
  <property name="meta.attr.iTunNORM.markup"> 000001AC 00000182 00001170 00000FD7 0001E78D 0002BF0F 00007BAD 00007017 0001B89C 0002C3A7</property>
  <property name="meta.attr.iTunSMPB.markup"> 00000000 00000210 000009B6 000000000080E83A 00000000 00461A20 00000000 00000000 00000000 00000000 00000000 00000000</property>
  <property name="seekable">1</property>
  <property name="kdenlive:clipname"/>
  <property name="kdenlive:folderid">18</property>
  <property name="kdenlive:id">15</property>
  <property name="kdenlive:file_size">4603319</property>
  <property name="kdenlive:file_hash">a086585c02391b36ee6bc2c95e712605</property>
  <property name="global_feed">1</property>
  <property name="xml">was here</property>
  <property name="set.test_audio">0</property>
  <property name="set.test_image">1</property>
 </producer>
 <playlist id="playlist0">
  <property name="kdenlive:audio_track">1</property>
  <blank length="00:01:31,833"/>
  <entry producer="producer89" in="00:02:52,767" out="00:03:08,633">
   <property name="kdenlive:id">15</property>
  </entry>
  <filter id="filter0">
   <property name="window">75</property>
   <property name="max_gain">20dB</property>
   <property name="mlt_service">volume</property>
   <property name="internal_added">237</property>
   <property name="disable">1</property>
  </filter>
  <filter id="filter1">
   <property name="channel">-1</property>
   <property name="mlt_service">panner</property>
   <property name="internal_added">237</property>
   <property name="start">0,5</property>
   <property name="disable">1</property>
  </filter>
 </playlist>
 <playlist id="playlist1"/>
 <tractor id="tractor0" in="00:00:00,000" out="00:01:47,700">
  <property name="kdenlive:audio_track">1</property>
  <property name="kdenlive:trackheight">81</property>
  <property name="kdenlive:collapsed">0</property>
  <property name="kdenlive:thumbs_format"/>
  <property name="kdenlive:audio_rec"/>
  <property name="kdenlive:timeline_active">1</property>
  <track hide="both" producer="playlist0"/>
  <track hide="both" producer="playlist1"/>
  <filter id="filter2">
   <property name="iec_scale">0</property>
   <property name="mlt_service">audiolevel</property>
   <property name="disable">1</property>
  </filter>
 </tractor>
 <producer title="Anonymous Submission" id="producer90" in="00:00:00,000" out="00:03:11,600">
  <property name="length">5749</property>
  <property name="eof">pause</property>
  <property name="resource">audio/LibreOffice_by_Ahmad_Haris.mp3</property>
  <property name="audio_index">0</property>
  <property name="video_index">-1</property>
  <property name="mute_on_pause">0</property>
  <property name="mlt_service">avformat-novalidate</property>
  <property name="meta.media.nb_streams">1</property>
  <property name="meta.media.0.stream.type">audio</property>
  <property name="meta.media.0.codec.sample_fmt">fltp</property>
  <property name="meta.media.0.codec.sample_rate">44100</property>
  <property name="meta.media.0.codec.channels">2</property>
  <property name="meta.media.0.codec.name">mp3float</property>
  <property name="meta.media.0.codec.long_name">MP3 (MPEG audio layer 3)</property>
  <property name="meta.media.0.codec.bit_rate">192000</property>
  <property name="meta.attr.TSS.markup">GarageBand 10.3.4</property>
  <property name="meta.attr.iTunNORM.markup"> 000001AC 00000182 00001170 00000FD7 0001E78D 0002BF0F 00007BAD 00007017 0001B89C 0002C3A7</property>
  <property name="meta.attr.iTunSMPB.markup"> 00000000 00000210 000009B6 000000000080E83A 00000000 00461A20 00000000 00000000 00000000 00000000 00000000 00000000</property>
  <property name="seekable">1</property>
  <property name="kdenlive:clipname"/>
  <property name="kdenlive:folderid">18</property>
  <property name="kdenlive:id">15</property>
  <property name="kdenlive:file_size">4603319</property>
  <property name="kdenlive:file_hash">a086585c02391b36ee6bc2c95e712605</property>
  <property name="global_feed">1</property>
  <property name="xml">was here</property>
  <property name="set.test_audio">0</property>
  <property name="set.test_image">1</property>
 </producer>
 <playlist id="playlist2">
  <property name="kdenlive:audio_track">1</property>
  <entry producer="producer90" in="00:00:51,900" out="00:03:06,633">
   <property name="kdenlive:id">15</property>
   <filter id="filter3" in="00:00:51,900" out="00:00:53,233">
    <property name="window">75</property>
    <property name="max_gain">20dB</property>
    <property name="mlt_service">volume</property>
    <property name="kdenlive_id">fadein</property>
    <property name="gain">0</property>
    <property name="end">1</property>
    <property name="kdenlive:collapsed">0</property>
   </filter>
  </entry>
  <filter id="filter4">
   <property name="window">75</property>
   <property name="max_gain">20dB</property>
   <property name="mlt_service">volume</property>
   <property name="internal_added">237</property>
   <property name="disable">1</property>
  </filter>
  <filter id="filter5">
   <property name="channel">-1</property>
   <property name="mlt_service">panner</property>
   <property name="internal_added">237</property>
   <property name="start">0,5</property>
   <property name="disable">1</property>
  </filter>
 </playlist>
 <playlist id="playlist3"/>
 <tractor id="tractor1" in="00:00:00,000" out="00:02:14,733">
  <property name="kdenlive:audio_track">1</property>
  <property name="kdenlive:trackheight">72</property>
  <property name="kdenlive:collapsed">28</property>
  <property name="kdenlive:thumbs_format"/>
  <property name="kdenlive:audio_rec"/>
  <property name="kdenlive:timeline_active">1</property>
  <track hide="video" producer="playlist2"/>
  <track hide="both" producer="playlist3"/>
  <filter id="filter6">
   <property name="iec_scale">0</property>
   <property name="mlt_service">audiolevel</property>
   <property name="disable">1</property>
  </filter>
 </tractor>
 <producer id="producer91" in="00:00:00,000" out="00:00:21,800">
  <property name="length">655</property>
  <property name="eof">pause</property>
  <property name="resource">2,200000:/home/sherlock/Video/7alpha/clip/about-motion-2020-05-22_07.38.23.mp4</property>
  <property name="aspect_ratio">1</property>
  <property name="meta.media.nb_streams">1</property>
  <property name="meta.media.0.stream.type">video</property>
  <property name="meta.media.0.stream.frame_rate">30,0208</property>
  <property name="meta.media.0.stream.sample_aspect_ratio">1</property>
  <property name="meta.media.0.codec.width">1920</property>
  <property name="meta.media.0.codec.height">1080</property>
  <property name="meta.media.0.codec.rotate">0</property>
  <property name="meta.media.0.codec.frame_rate">30</property>
  <property name="meta.media.0.codec.pix_fmt">yuv420p</property>
  <property name="meta.media.0.codec.sample_aspect_ratio">1</property>
  <property name="meta.media.0.codec.colorspace">709</property>
  <property name="meta.media.0.codec.color_trc">1</property>
  <property name="meta.media.0.codec.name">h264</property>
  <property name="meta.media.0.codec.long_name">H.264 / AVC / MPEG-4 AVC / MPEG-4 part 10</property>
  <property name="meta.media.0.codec.bit_rate">4934149</property>
  <property name="meta.attr.0.stream.handler_name.markup">VideoHandler</property>
  <property name="meta.attr.major_brand.markup">isom</property>
  <property name="meta.attr.minor_version.markup">512</property>
  <property name="meta.attr.compatible_brands.markup">isomiso2avc1mp41</property>
  <property name="meta.attr.encoder.markup">Lavf58.29.100</property>
  <property name="seekable">1</property>
  <property name="meta.media.sample_aspect_num">1</property>
  <property name="meta.media.sample_aspect_den">1</property>
  <property name="audio_index">-1</property>
  <property name="video_index">0</property>
  <property name="mute_on_pause">1</property>
  <property name="warp_speed">2,2</property>
  <property name="warp_resource">/home/sherlock/Video/7alpha/clip/about-motion-2020-05-22_07.38.23.mp4</property>
  <property name="mlt_service">timewarp</property>
  <property name="kdenlive:originalurl">/home/sherlock/Video/LIbreRilis/about-motion-2020-05-22_07.38.23.mp4</property>
  <property name="set.test_audio">1</property>
  <property name="set.test_image">0</property>
  <property name="warp_pitch">0</property>
  <property name="meta.media.frame_rate_num">43260</property>
  <property name="meta.media.frame_rate_den">1441</property>
  <property name="meta.media.colorspace">709</property>
  <property name="meta.media.color_trc">1</property>
  <property name="meta.media.width">1920</property>
  <property name="meta.media.height">1080</property>
  <property name="meta.media.color_range">mpeg</property>
  <property name="meta.media.top_field_first">0</property>
  <property name="meta.media.progressive">1</property>
  <property name="kdenlive:id">2</property>
 </producer>
 <playlist id="playlist4">
  <entry producer="producer30" in="00:00:00,000" out="00:00:05,600">
   <property name="kdenlive:id">8</property>
   <property name="kdenlive:activeeffect">0</property>
   <filter id="filter7" out="00:00:00,733">
    <property name="start">0</property>
    <property name="mlt_service">brightness</property>
    <property name="kdenlive_id">fade_from_black</property>
    <property name="end">1</property>
    <property name="alpha">-1</property>
    <property name="kdenlive:collapsed">0</property>
   </filter>
  </entry>
  <entry producer="producer91" in="00:00:07,100" out="00:00:14,367">
   <property name="kdenlive:id">2</property>
  </entry>
  <entry producer="producer30" in="00:00:00,000" out="00:01:59,433">
   <property name="kdenlive:id">8</property>
   <filter id="filter8" in="00:01:58,333" out="00:01:59,467">
    <property name="start">1</property>
    <property name="mlt_service">brightness</property>
    <property name="kdenlive_id">fade_to_black</property>
    <property name="end">0</property>
    <property name="alpha">-1</property>
    <property name="kdenlive:collapsed">0</property>
   </filter>
  </entry>
 </playlist>
 <playlist id="playlist5"/>
 <tractor id="tractor2" in="00:00:00,000" out="00:02:12,367">
  <property name="kdenlive:trackheight">84</property>
  <property name="kdenlive:collapsed">28</property>
  <property name="kdenlive:thumbs_format"/>
  <property name="kdenlive:audio_rec"/>
  <property name="kdenlive:timeline_active">1</property>
  <track hide="audio" producer="playlist4"/>
  <track hide="both" producer="playlist5"/>
 </tractor>
 <producer title="Anonymous Submission" id="producer92" in="00:00:00,000" out="00:00:04,800">
  <property name="length">145</property>
  <property name="eof">pause</property>
  <property name="resource">synfig-files/opening.mp4</property>
  <property name="audio_index">-1</property>
  <property name="video_index">0</property>
  <property name="mute_on_pause">0</property>
  <property name="mlt_service">avformat-novalidate</property>
  <property name="seekable">1</property>
  <property name="aspect_ratio">1</property>
  <property name="kdenlive:clipname"/>
  <property name="kdenlive:folderid">19</property>
  <property name="kdenlive:id">37</property>
  <property name="kdenlive:file_size">2695409</property>
  <property name="kdenlive:file_hash">8d15a222456edb8e98719f4cb234dae6</property>
  <property name="global_feed">1</property>
  <property name="xml">was here</property>
  <property name="meta.media.nb_streams">1</property>
  <property name="meta.media.0.stream.type">video</property>
  <property name="meta.media.0.stream.frame_rate">30</property>
  <property name="meta.media.0.stream.sample_aspect_ratio">0</property>
  <property name="meta.media.0.codec.width">1920</property>
  <property name="meta.media.0.codec.height">1080</property>
  <property name="meta.media.0.codec.rotate">0</property>
  <property name="meta.media.0.codec.frame_rate">30</property>
  <property name="meta.media.0.codec.pix_fmt">yuv420p</property>
  <property name="meta.media.0.codec.sample_aspect_ratio">1</property>
  <property name="meta.media.0.codec.colorspace">709</property>
  <property name="meta.media.0.codec.name">mpeg4</property>
  <property name="meta.media.0.codec.long_name">MPEG-4 part 2</property>
  <property name="meta.media.0.codec.bit_rate">4458787</property>
  <property name="meta.attr.0.stream.handler_name.markup">VideoHandler</property>
  <property name="meta.attr.major_brand.markup">isom</property>
  <property name="meta.attr.minor_version.markup">512</property>
  <property name="meta.attr.compatible_brands.markup">isomiso2mp41</property>
  <property name="meta.attr.title.markup">"opening.sif"</property>
  <property name="meta.attr.encoder.markup">Lavf58.45.100</property>
  <property name="meta.media.sample_aspect_num">1</property>
  <property name="meta.media.sample_aspect_den">1</property>
  <property name="meta.media.frame_rate_num">30</property>
  <property name="meta.media.frame_rate_den">1</property>
  <property name="meta.media.colorspace">709</property>
  <property name="meta.media.color_trc">2</property>
  <property name="meta.media.width">1920</property>
  <property name="meta.media.height">1080</property>
  <property name="meta.media.color_range">mpeg</property>
  <property name="meta.media.top_field_first">0</property>
  <property name="meta.media.progressive">1</property>
  <property name="set.test_audio">1</property>
  <property name="set.test_image">0</property>
 </producer>
 <producer title="Anonymous Submission" id="producer93" in="00:00:00,000" out="00:00:04,800">
  <property name="length">145</property>
  <property name="eof">pause</property>
  <property name="resource">synfig-files/office-compatiblity.mp4</property>
  <property name="audio_index">-1</property>
  <property name="video_index">0</property>
  <property name="mute_on_pause">0</property>
  <property name="mlt_service">avformat-novalidate</property>
  <property name="seekable">1</property>
  <property name="aspect_ratio">1</property>
  <property name="kdenlive:clipname"/>
  <property name="kdenlive:folderid">19</property>
  <property name="kdenlive:id">42</property>
  <property name="kdenlive:file_size">1223866</property>
  <property name="kdenlive:file_hash">dd63d12ab9774bbc6da926a0da537a4c</property>
  <property name="global_feed">1</property>
  <property name="xml">was here</property>
  <property name="meta.media.nb_streams">1</property>
  <property name="meta.media.0.stream.type">video</property>
  <property name="meta.media.0.stream.frame_rate">30</property>
  <property name="meta.media.0.stream.sample_aspect_ratio">0</property>
  <property name="meta.media.0.codec.width">1920</property>
  <property name="meta.media.0.codec.height">1080</property>
  <property name="meta.media.0.codec.rotate">0</property>
  <property name="meta.media.0.codec.frame_rate">30</property>
  <property name="meta.media.0.codec.pix_fmt">yuv420p</property>
  <property name="meta.media.0.codec.sample_aspect_ratio">1</property>
  <property name="meta.media.0.codec.colorspace">709</property>
  <property name="meta.media.0.codec.name">mpeg4</property>
  <property name="meta.media.0.codec.long_name">MPEG-4 part 2</property>
  <property name="meta.media.0.codec.bit_rate">2023145</property>
  <property name="meta.attr.0.stream.handler_name.markup">VideoHandler</property>
  <property name="meta.attr.major_brand.markup">isom</property>
  <property name="meta.attr.minor_version.markup">512</property>
  <property name="meta.attr.compatible_brands.markup">isomiso2mp41</property>
  <property name="meta.attr.title.markup">"Synfig Animation 1"</property>
  <property name="meta.attr.encoder.markup">Lavf58.45.100</property>
  <property name="meta.media.sample_aspect_num">1</property>
  <property name="meta.media.sample_aspect_den">1</property>
  <property name="meta.media.frame_rate_num">30</property>
  <property name="meta.media.frame_rate_den">1</property>
  <property name="meta.media.colorspace">709</property>
  <property name="meta.media.color_trc">2</property>
  <property name="meta.media.width">1920</property>
  <property name="meta.media.height">1080</property>
  <property name="meta.media.color_range">mpeg</property>
  <property name="meta.media.top_field_first">0</property>
  <property name="meta.media.progressive">1</property>
  <property name="set.test_audio">1</property>
  <property name="set.test_image">0</property>
 </producer>
 <producer title="Anonymous Submission" id="producer94" in="00:00:00,000" out="00:00:48,000">
  <property name="length">1441</property>
  <property name="eof">pause</property>
  <property name="resource">/home/sherlock/Video/7alpha/clip/about-motion-2020-05-22_07.38.23.mp4</property>
  <property name="audio_index">-1</property>
  <property name="video_index">0</property>
  <property name="mute_on_pause">0</property>
  <property name="mlt_service">avformat-novalidate</property>
  <property name="seekable">1</property>
  <property name="aspect_ratio">1</property>
  <property name="kdenlive:clipname">about-motion-2020-05-22_07.38.23.mp4</property>
  <property name="kdenlive:folderid">19</property>
  <property name="kdenlive:id">2</property>
  <property name="kdenlive:file_size">29632537</property>
  <property name="global_feed">1</property>
  <property name="kdenlive:originalurl">/home/sherlock/Video/LIbreRilis/about-motion-2020-05-22_07.38.23.mp4</property>
  <property name="kdenlive:file_hash">d8ef8dfc2ad863112e947133352c5b08</property>
  <property name="xml">was here</property>
  <property name="meta.media.nb_streams">1</property>
  <property name="meta.media.0.stream.type">video</property>
  <property name="meta.media.0.stream.frame_rate">30,0208</property>
  <property name="meta.media.0.stream.sample_aspect_ratio">1</property>
  <property name="meta.media.0.codec.width">1920</property>
  <property name="meta.media.0.codec.height">1080</property>
  <property name="meta.media.0.codec.rotate">0</property>
  <property name="meta.media.0.codec.frame_rate">30</property>
  <property name="meta.media.0.codec.pix_fmt">yuv420p</property>
  <property name="meta.media.0.codec.sample_aspect_ratio">1</property>
  <property name="meta.media.0.codec.colorspace">709</property>
  <property name="meta.media.0.codec.color_trc">1</property>
  <property name="meta.media.0.codec.name">h264</property>
  <property name="meta.media.0.codec.long_name">H.264 / AVC / MPEG-4 AVC / MPEG-4 part 10</property>
  <property name="meta.media.0.codec.bit_rate">4934149</property>
  <property name="meta.attr.0.stream.handler_name.markup">VideoHandler</property>
  <property name="meta.attr.major_brand.markup">isom</property>
  <property name="meta.attr.minor_version.markup">512</property>
  <property name="meta.attr.compatible_brands.markup">isomiso2avc1mp41</property>
  <property name="meta.attr.encoder.markup">Lavf58.29.100</property>
  <property name="meta.media.sample_aspect_num">1</property>
  <property name="meta.media.sample_aspect_den">1</property>
  <property name="meta.media.frame_rate_num">43260</property>
  <property name="meta.media.frame_rate_den">1441</property>
  <property name="meta.media.colorspace">709</property>
  <property name="meta.media.color_trc">1</property>
  <property name="meta.media.width">1920</property>
  <property name="meta.media.height">1080</property>
  <property name="meta.media.color_range">mpeg</property>
  <property name="meta.media.top_field_first">0</property>
  <property name="meta.media.progressive">1</property>
  <property name="set.test_audio">1</property>
  <property name="set.test_image">0</property>
 </producer>
 <playlist id="playlist6">
  <blank length="00:00:00,800"/>
  <entry producer="producer92" in="00:00:00,000" out="00:00:04,800">
   <property name="kdenlive:id">37</property>
   <property name="kdenlive:activeeffect">-1</property>
  </entry>
  <entry producer="producer24" in="00:00:00,000" out="00:00:03,467">
   <property name="kdenlive:id">41</property>
   <filter id="filter32">
    <property name="rotate_center">1</property>
    <property name="mlt_service">qtblend</property>
    <property name="kdenlive_id">qtblend</property>
    <property name="rect">00:00:00,000=0 -608 1920 1080 1;00:00:00,133=0 -31 1920 1080 1;00:00:03,200=0 -3 1920 1080 0,947368;00:00:03,433=0 610 1920 1080 1</property>
    <property name="rotation">00:00:00,000=0;00:00:00,133=0;00:00:03,200=0;00:00:03,433=0</property>
    <property name="compositing">0</property>
    <property name="distort">0</property>
    <property name="kdenlive:collapsed">0</property>
   </filter>
  </entry>
  <entry producer="producer88" in="00:00:00,000" out="00:00:03,467">
   <property name="kdenlive:id">85</property>
   <filter id="filter9">
    <property name="rotate_center">1</property>
    <property name="mlt_service">qtblend</property>
    <property name="kdenlive_id">qtblend</property>
    <property name="rect">00:00:00,000=0 -608 1920 1080 1;00:00:00,133=0 -31 1920 1080 1;00:00:03,133=0 -3 1920 1080 0,894737;00:00:03,433=0 610 1920 1080 0,894737</property>
    <property name="rotation">00:00:00,000=0;00:00:00,133=0;00:00:03,133=0;00:00:03,433=0</property>
    <property name="compositing">0</property>
    <property name="distort">0</property>
    <property name="kdenlive:collapsed">0</property>
   </filter>
  </entry>
  <blank length="00:00:00,133"/>
  <entry producer="producer93" in="00:00:00,000" out="00:00:04,800">
   <property name="kdenlive:id">42</property>
   <filter id="filter15">
    <property name="background">colour:0</property>
    <property name="mlt_service">affine</property>
    <property name="kdenlive_id">pan_zoom</property>
    <property name="transition.geometry">0=0 0 1920 1080;125=-67 -36 2048 1152;133=-96 -93 2097 1179;144=-96 834 2112 1188</property>
    <property name="transition.distort">0</property>
    <property name="use_normalised">0</property>
    <property name="producer.resource">0x00000000</property>
    <property name="kdenlive:collapsed">0</property>
   </filter>
  </entry>
  <blank length="00:00:04,833"/>
  <entry producer="producer12" in="00:00:21,833" out="00:00:30,700">
   <property name="kdenlive:id">2</property>
   <filter id="filter10">
    <property name="rotate_center">1</property>
    <property name="mlt_service">qtblend</property>
    <property name="kdenlive_id">qtblend</property>
    <property name="rect">00:00:21,833=0 0 1920 1080 0,12</property>
    <property name="rotation">00:00:21,833=0</property>
    <property name="compositing">0</property>
    <property name="distort">0</property>
    <property name="kdenlive:collapsed">0</property>
   </filter>
  </entry>
  <entry producer="producer94" in="00:00:21,833" out="00:00:30,700">
   <property name="kdenlive:id">2</property>
   <filter id="filter11">
    <property name="rotate_center">1</property>
    <property name="mlt_service">qtblend</property>
    <property name="kdenlive_id">qtblend</property>
    <property name="rect">00:00:21,833=0 0 1920 1080 0,12</property>
    <property name="rotation">00:00:21,833=0</property>
    <property name="compositing">0</property>
    <property name="distort">0</property>
    <property name="kdenlive:collapsed">0</property>
   </filter>
  </entry>
  <entry producer="producer94" in="00:00:21,833" out="00:00:30,700">
   <property name="kdenlive:id">2</property>
   <filter id="filter12">
    <property name="rotate_center">1</property>
    <property name="mlt_service">qtblend</property>
    <property name="kdenlive_id">qtblend</property>
    <property name="rect">00:00:21,833=0 0 1920 1080 0,12</property>
    <property name="rotation">00:00:21,833=0</property>
    <property name="compositing">0</property>
    <property name="distort">0</property>
    <property name="kdenlive:collapsed">0</property>
   </filter>
  </entry>
  <entry producer="producer94" in="00:00:21,833" out="00:00:30,700">
   <property name="kdenlive:id">2</property>
   <filter id="filter13">
    <property name="rotate_center">1</property>
    <property name="mlt_service">qtblend</property>
    <property name="kdenlive_id">qtblend</property>
    <property name="rect">00:00:21,833=0 0 1920 1080 0,12</property>
    <property name="rotation">00:00:21,833=0</property>
    <property name="compositing">0</property>
    <property name="distort">0</property>
    <property name="kdenlive:collapsed">0</property>
   </filter>
  </entry>
  <entry producer="producer94" in="00:00:21,833" out="00:00:30,700">
   <property name="kdenlive:id">2</property>
   <filter id="filter14">
    <property name="rotate_center">1</property>
    <property name="mlt_service">qtblend</property>
    <property name="kdenlive_id">qtblend</property>
    <property name="rect">00:00:21,833=0 0 1920 1080 0,12</property>
    <property name="rotation">00:00:21,833=0</property>
    <property name="compositing">0</property>
    <property name="distort">0</property>
    <property name="kdenlive:collapsed">0</property>
   </filter>
  </entry>
  <entry producer="producer94" in="00:00:21,833" out="00:00:30,700">
   <property name="kdenlive:id">2</property>
   <filter id="filter16">
    <property name="rotate_center">1</property>
    <property name="mlt_service">qtblend</property>
    <property name="kdenlive_id">qtblend</property>
    <property name="rect">00:00:21,833=0 0 1920 1080 0,12</property>
    <property name="rotation">00:00:21,833=0</property>
    <property name="compositing">0</property>
    <property name="distort">0</property>
    <property name="kdenlive:collapsed">0</property>
   </filter>
  </entry>
  <entry producer="producer94" in="00:00:21,833" out="00:00:30,700">
   <property name="kdenlive:id">2</property>
   <filter id="filter17">
    <property name="rotate_center">1</property>
    <property name="mlt_service">qtblend</property>
    <property name="kdenlive_id">qtblend</property>
    <property name="rect">00:00:21,833=0 0 1920 1080 0,12</property>
    <property name="rotation">00:00:21,833=0</property>
    <property name="compositing">0</property>
    <property name="distort">0</property>
    <property name="kdenlive:collapsed">0</property>
   </filter>
  </entry>
  <entry producer="producer94" in="00:00:21,833" out="00:00:30,700">
   <property name="kdenlive:id">2</property>
   <filter id="filter18">
    <property name="rotate_center">1</property>
    <property name="mlt_service">qtblend</property>
    <property name="kdenlive_id">qtblend</property>
    <property name="rect">00:00:21,833=0 0 1920 1080 0,12</property>
    <property name="rotation">00:00:21,833=0</property>
    <property name="compositing">0</property>
    <property name="distort">0</property>
    <property name="kdenlive:collapsed">0</property>
   </filter>
  </entry>
  <entry producer="producer94" in="00:00:21,833" out="00:00:30,700">
   <property name="kdenlive:id">2</property>
   <filter id="filter19">
    <property name="rotate_center">1</property>
    <property name="mlt_service">qtblend</property>
    <property name="kdenlive_id">qtblend</property>
    <property name="rect">00:00:21,833=0 0 1920 1080 0,12</property>
    <property name="rotation">00:00:21,833=0</property>
    <property name="compositing">0</property>
    <property name="distort">0</property>
    <property name="kdenlive:collapsed">0</property>
   </filter>
  </entry>
  <entry producer="producer94" in="00:00:21,833" out="00:00:30,700">
   <property name="kdenlive:id">2</property>
   <filter id="filter20">
    <property name="rotate_center">1</property>
    <property name="mlt_service">qtblend</property>
    <property name="kdenlive_id">qtblend</property>
    <property name="rect">00:00:21,833=0 0 1920 1080 0,12</property>
    <property name="rotation">00:00:21,833=0</property>
    <property name="compositing">0</property>
    <property name="distort">0</property>
    <property name="kdenlive:collapsed">0</property>
   </filter>
  </entry>
  <entry producer="producer94" in="00:00:21,833" out="00:00:26,467">
   <property name="kdenlive:id">2</property>
   <filter id="filter21">
    <property name="rotate_center">1</property>
    <property name="mlt_service">qtblend</property>
    <property name="kdenlive_id">qtblend</property>
    <property name="rect">00:00:21,833=0 0 1920 1080 0,12;00:00:23,800=0 0 1920 1080 0,12</property>
    <property name="rotation">00:00:21,833=0;00:00:23,800=0</property>
    <property name="compositing">0</property>
    <property name="distort">0</property>
    <property name="kdenlive:collapsed">0</property>
   </filter>
  </entry>
  <blank length="00:00:04,900"/>
  <entry producer="producer94" in="00:00:21,833" out="00:00:25,667">
   <property name="kdenlive:id">2</property>
   <filter id="filter22">
    <property name="rotate_center">1</property>
    <property name="mlt_service">qtblend</property>
    <property name="kdenlive_id">qtblend</property>
    <property name="rect">00:00:21,833=0 0 1920 1080 0,12;00:00:23,800=0 0 1920 1080 0,12</property>
    <property name="rotation">00:00:21,833=0;00:00:23,800=0</property>
    <property name="compositing">0</property>
    <property name="distort">0</property>
    <property name="kdenlive:collapsed">0</property>
   </filter>
   <filter id="filter23" in="00:00:21,833" out="00:00:22,067">
    <property name="start">0</property>
    <property name="mlt_service">brightness</property>
    <property name="kdenlive_id">fade_from_black</property>
    <property name="end">1</property>
    <property name="alpha">-1</property>
    <property name="kdenlive:collapsed">0</property>
   </filter>
   <filter id="filter24" in="00:00:25,400" out="00:00:25,667">
    <property name="start">1</property>
    <property name="mlt_service">brightness</property>
    <property name="kdenlive_id">fade_to_black</property>
    <property name="end">0</property>
    <property name="alpha">-1</property>
    <property name="kdenlive:collapsed">0</property>
   </filter>
  </entry>
 </playlist>
 <playlist id="playlist7"/>
 <tractor id="tractor3" in="00:00:00,000" out="00:02:04,833">
  <property name="kdenlive:trackheight">42</property>
  <property name="kdenlive:collapsed">28</property>
  <property name="kdenlive:thumbs_format"/>
  <property name="kdenlive:audio_rec"/>
  <property name="kdenlive:timeline_active">1</property>
  <track hide="audio" producer="playlist6"/>
  <track hide="both" producer="playlist7"/>
 </tractor>
 <producer title="Anonymous Submission" id="producer95" in="00:00:00,000" out="00:00:04,800">
  <property name="length">145</property>
  <property name="eof">pause</property>
  <property name="resource">synfig-files/odf-log.avi</property>
  <property name="audio_index">-1</property>
  <property name="video_index">0</property>
  <property name="mute_on_pause">0</property>
  <property name="mlt_service">avformat-novalidate</property>
  <property name="seekable">1</property>
  <property name="aspect_ratio">1</property>
  <property name="kdenlive:clipname"/>
  <property name="kdenlive:folderid">18</property>
  <property name="kdenlive:id">44</property>
  <property name="kdenlive:file_size">2173998</property>
  <property name="kdenlive:file_hash">fa9c0a17983d3b4dbcaff4c073320745</property>
  <property name="global_feed">1</property>
  <property name="xml">was here</property>
  <property name="meta.media.nb_streams">1</property>
  <property name="meta.media.0.stream.type">video</property>
  <property name="meta.media.0.stream.frame_rate">60</property>
  <property name="meta.media.0.stream.sample_aspect_ratio">0</property>
  <property name="meta.media.0.codec.width">1920</property>
  <property name="meta.media.0.codec.height">1080</property>
  <property name="meta.media.0.codec.rotate">0</property>
  <property name="meta.media.0.codec.frame_rate">60</property>
  <property name="meta.media.0.codec.pix_fmt">yuv420p</property>
  <property name="meta.media.0.codec.sample_aspect_ratio">1</property>
  <property name="meta.media.0.codec.colorspace">709</property>
  <property name="meta.media.0.codec.name">mpeg4</property>
  <property name="meta.media.0.codec.long_name">MPEG-4 part 2</property>
  <property name="meta.media.0.codec.bit_rate">3602060</property>
  <property name="meta.attr.title.markup">"odf-logo.sifz"</property>
  <property name="meta.attr.encoder.markup">Lavf58.45.100</property>
  <property name="meta.media.sample_aspect_num">1</property>
  <property name="meta.media.sample_aspect_den">1</property>
  <property name="meta.media.frame_rate_num">60</property>
  <property name="meta.media.frame_rate_den">1</property>
  <property name="meta.media.colorspace">709</property>
  <property name="meta.media.color_trc">2</property>
  <property name="meta.media.width">1920</property>
  <property name="meta.media.height">1080</property>
  <property name="meta.media.color_range">mpeg</property>
  <property name="meta.media.top_field_first">0</property>
  <property name="meta.media.progressive">1</property>
  <property name="set.test_audio">1</property>
  <property name="set.test_image">0</property>
 </producer>
 <producer id="producer96" in="00:00:00,000" out="00:00:06,233">
  <property name="length">188</property>
  <property name="eof">pause</property>
  <property name="resource">1,500000:clip/feature-clips/06-glow-and-soft-effect-2020-07-31_19.13.04.mkv</property>
  <property name="aspect_ratio">1</property>
  <property name="meta.media.nb_streams">1</property>
  <property name="meta.media.0.stream.type">video</property>
  <property name="meta.media.0.stream.frame_rate">62,5</property>
  <property name="meta.media.0.stream.sample_aspect_ratio">1</property>
  <property name="meta.media.0.codec.width">1082</property>
  <property name="meta.media.0.codec.height">808</property>
  <property name="meta.media.0.codec.rotate">0</property>
  <property name="meta.media.0.codec.frame_rate">60</property>
  <property name="meta.media.0.codec.pix_fmt">yuv420p</property>
  <property name="meta.media.0.codec.sample_aspect_ratio">1</property>
  <property name="meta.media.0.codec.colorspace">709</property>
  <property name="meta.media.0.codec.color_trc">1</property>
  <property name="meta.media.0.codec.name">h264</property>
  <property name="meta.media.0.codec.long_name">H.264 / AVC / MPEG-4 AVC / MPEG-4 part 10</property>
  <property name="meta.media.0.codec.bit_rate">0</property>
  <property name="meta.attr.0.stream.DURATION.markup">00:00:09,400000000</property>
  <property name="meta.attr.ENCODER.markup">Lavf58.29.100</property>
  <property name="seekable">1</property>
  <property name="meta.media.sample_aspect_num">1</property>
  <property name="meta.media.sample_aspect_den">1</property>
  <property name="audio_index">-1</property>
  <property name="video_index">0</property>
  <property name="mute_on_pause">1</property>
  <property name="warp_speed">1,5</property>
  <property name="warp_resource">clip/feature-clips/06-glow-and-soft-effect-2020-07-31_19.13.04.mkv</property>
  <property name="mlt_service">timewarp</property>
  <property name="set.test_audio">1</property>
  <property name="set.test_image">0</property>
  <property name="warp_pitch">0</property>
  <property name="meta.media.frame_rate_num">125</property>
  <property name="meta.media.frame_rate_den">2</property>
  <property name="meta.media.colorspace">709</property>
  <property name="meta.media.color_trc">1</property>
  <property name="meta.media.width">1082</property>
  <property name="meta.media.height">808</property>
  <property name="meta.media.color_range">mpeg</property>
  <property name="meta.media.top_field_first">0</property>
  <property name="meta.media.progressive">1</property>
  <property name="kdenlive:id">90</property>
 </producer>
 <producer id="producer97" in="00:00:00,000" out="00:00:05,967">
  <property name="length">181</property>
  <property name="eof">pause</property>
  <property name="resource">1,500000:clip/feature-clips/10-bookmark-2020-07-20_14.44.50.mkv</property>
  <property name="aspect_ratio">1</property>
  <property name="meta.media.nb_streams">1</property>
  <property name="meta.media.0.stream.type">video</property>
  <property name="meta.media.0.stream.frame_rate">62,5</property>
  <property name="meta.media.0.stream.sample_aspect_ratio">1</property>
  <property name="meta.media.0.codec.width">1082</property>
  <property name="meta.media.0.codec.height">768</property>
  <property name="meta.media.0.codec.rotate">0</property>
  <property name="meta.media.0.codec.frame_rate">60</property>
  <property name="meta.media.0.codec.pix_fmt">yuv420p</property>
  <property name="meta.media.0.codec.sample_aspect_ratio">1</property>
  <property name="meta.media.0.codec.colorspace">709</property>
  <property name="meta.media.0.codec.color_trc">1</property>
  <property name="meta.media.0.codec.name">h264</property>
  <property name="meta.media.0.codec.long_name">H.264 / AVC / MPEG-4 AVC / MPEG-4 part 10</property>
  <property name="meta.media.0.codec.bit_rate">0</property>
  <property name="meta.attr.0.stream.DURATION.markup">00:00:09,017000000</property>
  <property name="meta.attr.ENCODER.markup">Lavf58.29.100</property>
  <property name="seekable">1</property>
  <property name="meta.media.sample_aspect_num">1</property>
  <property name="meta.media.sample_aspect_den">1</property>
  <property name="audio_index">-1</property>
  <property name="video_index">0</property>
  <property name="mute_on_pause">1</property>
  <property name="warp_speed">1,5</property>
  <property name="warp_resource">clip/feature-clips/10-bookmark-2020-07-20_14.44.50.mkv</property>
  <property name="mlt_service">timewarp</property>
  <property name="set.test_audio">1</property>
  <property name="set.test_image">0</property>
  <property name="warp_pitch">0</property>
  <property name="meta.media.frame_rate_num">125</property>
  <property name="meta.media.frame_rate_den">2</property>
  <property name="meta.media.colorspace">709</property>
  <property name="meta.media.color_trc">1</property>
  <property name="meta.media.width">1082</property>
  <property name="meta.media.height">768</property>
  <property name="meta.media.color_range">mpeg</property>
  <property name="meta.media.top_field_first">0</property>
  <property name="meta.media.progressive">1</property>
  <property name="kdenlive:id">53</property>
 </producer>
 <playlist id="playlist8">
  <blank length="00:00:17,600"/>
  <entry producer="producer95" in="00:00:00,000" out="00:00:04,800">
   <property name="kdenlive:id">44</property>
   <filter id="filter25">
    <property name="rotate_center">1</property>
    <property name="mlt_service">qtblend</property>
    <property name="kdenlive_id">qtblend</property>
    <property name="rect">00:00:00,000=0 0 1920 1080 1;00:00:04,433=0 0 1920 1080 1;00:00:04,667=-1632 -918 5184 2916 1</property>
    <property name="rotation">00:00:00,000=0;00:00:04,433=0;00:00:04,667=0</property>
    <property name="compositing">0</property>
    <property name="distort">0</property>
    <property name="kdenlive:collapsed">0</property>
   </filter>
   <filter id="filter26" in="00:00:04,600" out="00:00:04,800">
    <property name="start">1</property>
    <property name="mlt_service">brightness</property>
    <property name="kdenlive_id">fade_to_black</property>
    <property name="end">0</property>
    <property name="alpha">-1</property>
    <property name="kdenlive:collapsed">0</property>
   </filter>
  </entry>
  <blank length="00:00:09,367"/>
  <entry producer="producer96" in="00:00:00,733" out="00:00:06,233">
   <property name="kdenlive:id">90</property>
   <property name="kdenlive:activeeffect">1</property>
   <filter id="filter27">
    <property name="rotate_center">1</property>
    <property name="mlt_service">qtblend</property>
    <property name="kdenlive_id">qtblend</property>
    <property name="rect">00:00:00,733=280 145 1355 762 1;00:00:06,167=280 15 1355 762 1</property>
    <property name="rotation">00:00:00,733=0;00:00:06,167=0</property>
    <property name="compositing">0</property>
    <property name="distort">0</property>
    <property name="kdenlive:collapsed">0</property>
   </filter>
   <filter id="filter28">
    <property name="mode">alpha</property>
    <property name="alpha_operation">clear</property>
    <property name="invert">0</property>
    <property name="feather">0</property>
    <property name="feather_passes">1</property>
    <property name="mlt_service">rotoscoping</property>
    <property name="kdenlive_id">rotoscoping</property>
    <property name="spline">{
    "022": [
        [
            [
                0.33616118769883346,
                0.1179076343072573
            ],
            [
                0.22693531283138918,
                0.11922714420358152
            ],
            [
                0.2277836691410392,
                0.2302544769085768
            ]
        ],
        [
            [
                0.23032873806998938,
                0.5633364750235627
            ],
            [
                0.23117709437963943,
                0.674363807728558
            ],
            [
                0.33966065747613994,
                0.6747408105560792
            ]
        ],
        [
            [
                0.6651113467656415,
                0.6758718190386428
            ],
            [
                0.7735949098621421,
                0.6762488218661641
            ],
            [
                0.7734888653234359,
                0.5635249764373234
            ]
        ],
        [
            [
                0.7731707317073171,
                0.22535344015080114
            ],
            [
                0.7730646871686109,
                0.11262959472196042
            ],
            [
                0.6638388123011665,
                0.11394910461828464
            ]
        ]
    ],
    "185": [
        [
            [
                0.33616118769883346,
                0.1179076343072573
            ],
            [
                0.22693531283138918,
                0.11922714420358152
            ],
            [
                0.2277836691410392,
                0.2302544769085768
            ]
        ],
        [
            [
                0.23032873806998938,
                0.5633364750235627
            ],
            [
                0.23117709437963943,
                0.674363807728558
            ],
            [
                0.33966065747613994,
                0.6747408105560792
            ]
        ],
        [
            [
                0.6651113467656415,
                0.6758718190386428
            ],
            [
                0.7735949098621421,
                0.6762488218661641
            ],
            [
                0.7734888653234359,
                0.5635249764373234
            ]
        ],
        [
            [
                0.7731707317073171,
                0.22535344015080114
            ],
            [
                0.7730646871686109,
                0.11262959472196042
            ],
            [
                0.6638388123011665,
                0.11394910461828464
            ]
        ]
    ]
}
</property>
    <property name="kdenlive:collapsed">0</property>
   </filter>
  </entry>
  <blank length="00:00:16,333"/>
  <entry producer="producer97" in="00:00:01,033" out="00:00:05,933">
   <property name="kdenlive:id">53</property>
   <filter id="filter29">
    <property name="rotate_center">1</property>
    <property name="mlt_service">qtblend</property>
    <property name="kdenlive_id">qtblend</property>
    <property name="rect">00:00:01,033=171 145 1442 821 1</property>
    <property name="rotation">00:00:01,033=0</property>
    <property name="compositing">0</property>
    <property name="distort">0</property>
    <property name="kdenlive:collapsed">0</property>
   </filter>
   <filter id="filter30">
    <property name="mode">alpha</property>
    <property name="alpha_operation">clear</property>
    <property name="invert">0</property>
    <property name="feather">0</property>
    <property name="feather_passes">1</property>
    <property name="mlt_service">rotoscoping</property>
    <property name="kdenlive_id">rotoscoping</property>
    <property name="spline">{
    "031": [
        [
            [
                0.33891834570519624,
                0.12601319509896325
            ],
            [
                0.23170731707317074,
                0.1277097078228087
            ],
            [
                0.23191940615058326,
                0.23609802073515554
            ]
        ],
        [
            [
                0.23255567338282077,
                0.561262959472196
            ],
            [
                0.23276776246023329,
                0.6696512723845428
            ],
            [
                0.3412513255567338,
                0.6694627709707823
            ]
        ],
        [
            [
                0.6667020148462354,
                0.6688972667295005
            ],
            [
                0.7751855779427359,
                0.6687087653157399
            ],
            [
                0.7737009544008483,
                0.5588124410933082
            ]
        ],
        [
            [
                0.7692470837751856,
                0.2291234684260132
            ],
            [
                0.767762460233298,
                0.11922714420358152
            ],
            [
                0.6605514316012725,
                0.12092365692742696
            ]
        ]
    ]
}
</property>
    <property name="kdenlive:collapsed">0</property>
   </filter>
  </entry>
  <blank length="00:00:04,700"/>
  <entry producer="producer79" in="00:00:00,000" out="00:00:00,867">
   <property name="kdenlive:id">88</property>
   <filter id="filter31">
    <property name="rotate_center">1</property>
    <property name="mlt_service">qtblend</property>
    <property name="kdenlive_id">qtblend</property>
    <property name="rect">00:00:00,000=-1000 0 1920 1080 1;00:00:00,333=0 0 1920 1080 1</property>
    <property name="rotation">00:00:00,000=0;00:00:00,333=0</property>
    <property name="compositing">0</property>
    <property name="distort">0</property>
    <property name="kdenlive:collapsed">0</property>
   </filter>
  </entry>
  <blank length="00:00:11,067"/>
  <entry producer="producer83" in="00:00:00,000" out="00:00:04,833">
   <property name="kdenlive:id">94</property>
   <property name="kdenlive:activeeffect">0</property>
   <filter id="filter33">
    <property name="rotate_center">1</property>
    <property name="mlt_service">qtblend</property>
    <property name="kdenlive_id">qtblend</property>
    <property name="rect">00:00:00,000=0 168 1920 1080 0,75;00:00:04,833=-19 -256 1958 1101 0,75</property>
    <property name="rotation">00:00:00,000=0;00:00:04,833=0</property>
    <property name="compositing">0</property>
    <property name="distort">0</property>
    <property name="kdenlive:collapsed">0</property>
   </filter>
   <filter id="filter34">
    <property name="mode">alpha</property>
    <property name="alpha_operation">clear</property>
    <property name="invert">0</property>
    <property name="feather">0</property>
    <property name="feather_passes">1</property>
    <property name="mlt_service">rotoscoping</property>
    <property name="kdenlive_id">rotoscoping</property>
    <property name="spline">{
    "000": [
        [
            [
                0.34737678855325915,
                0.126628895184136
            ],
            [
                0.2456279809220986,
                0.12889518413597734
            ],
            [
                0.2468998410174881,
                0.23314447592067988
            ]
        ],
        [
            [
                0.24753577106518268,
                0.5798866855524081
            ],
            [
                0.24880763116057236,
                0.6841359773371105
            ],
            [
                0.34896661367249576,
                0.6835694050991501
            ]
        ],
        [
            [
                0.6589825119236885,
                0.6875354107648725
            ],
            [
                0.7591414944356122,
                0.6869688385269122
            ],
            [
                0.7594594594594596,
                0.5810198300283285
            ]
        ],
        [
            [
                0.7540540540540541,
                0.2461756373937677
            ],
            [
                0.7543720190779015,
                0.14022662889518414
            ],
            [
                0.652623211446741,
                0.1424929178470255
            ]
        ]
    ],
    "145": [
        [
            [
                0.3314785373608904,
                0.10963172804532578
            ],
            [
                0.22972972972972974,
                0.11189801699716714
            ],
            [
                0.23100158982511926,
                0.21614730878186963
            ]
        ],
        [
            [
                0.22845786963434006,
                0.5883852691218131
            ],
            [
                0.22972972972972974,
                0.6926345609065155
            ],
            [
                0.3298887122416532,
                0.6920679886685551
            ]
        ],
        [
            [
                0.678060413354531,
                0.6875354107648725
            ],
            [
                0.7782193958664547,
                0.6869688385269122
            ],
            [
                0.7785373608903021,
                0.5810198300283285
            ]
        ],
        [
            [
                0.7794912559618443,
                0.21218130311614736
            ],
            [
                0.7798092209856917,
                0.10623229461756374
            ],
            [
                0.6780604133545312,
                0.1084985835694051
            ]
        ]
    ]
}
</property>
    <property name="kdenlive:collapsed">0</property>
   </filter>
  </entry>
  <blank length="00:00:11,533"/>
  <entry producer="producer19" in="00:00:00,000" out="00:00:05,133">
   <property name="kdenlive:id">35</property>
   <property name="kdenlive:activeeffect">0</property>
   <filter id="filter35">
    <property name="rotate_center">1</property>
    <property name="mlt_service">qtblend</property>
    <property name="kdenlive_id">qtblend</property>
    <property name="rect">00:00:00,000=473 58 1344 756 1;00:00:04,900=55 25 1440 810 1</property>
    <property name="rotation">00:00:00,000=0;00:00:04,900=0</property>
    <property name="compositing">0</property>
    <property name="distort">0</property>
    <property name="kdenlive:collapsed">0</property>
   </filter>
   <filter id="filter36">
    <property name="mode">alpha</property>
    <property name="alpha_operation">clear</property>
    <property name="invert">0</property>
    <property name="feather">0</property>
    <property name="feather_passes">1</property>
    <property name="mlt_service">rotoscoping</property>
    <property name="kdenlive_id">rotoscoping</property>
    <property name="spline">{
    "000": [
        [
            [
                0.3457869634340223,
                0.13569405099150142
            ],
            [
                0.2424483306836248,
                0.13456090651558075
            ],
            [
                0.24340222575516696,
                0.2427762039660057
            ]
        ],
        [
            [
                0.24626391096979333,
                0.5674220963172804
            ],
            [
                0.24721780604133547,
                0.6756373937677054
            ],
            [
                0.34896661367249604,
                0.6739376770538243
            ]
        ],
        [
            [
                0.6542130365659778,
                0.6688385269121814
            ],
            [
                0.7559618441971384,
                0.6671388101983003
            ],
            [
                0.7565977742448332,
                0.5617563739376771
            ]
        ],
        [
            [
                0.7585055643879174,
                0.24560906515580738
            ],
            [
                0.7591414944356122,
                0.14022662889518414
            ],
            [
                0.6558028616852147,
                0.13909348441926347
            ]
        ]
    ],
    "154": [
        [
            [
                0.33147853736089034,
                0.11303116147308782
            ],
            [
                0.22813990461049286,
                0.11189801699716714
            ],
            [
                0.229093799682035,
                0.22011331444759205
            ]
        ],
        [
            [
                0.22559618441971382,
                0.5872521246458925
            ],
            [
                0.22655007949125597,
                0.6954674220963173
            ],
            [
                0.3282988871224166,
                0.6937677053824364
            ]
        ],
        [
            [
                0.6812400635930049,
                0.6801699716713883
            ],
            [
                0.7829888712241655,
                0.6784702549575071
            ],
            [
                0.7836248012718603,
                0.5730878186968839
            ]
        ],
        [
            [
                0.7728139904610493,
                0.2201133144475921
            ],
            [
                0.7734499205087441,
                0.11473087818696885
            ],
            [
                0.6701112877583466,
                0.11359773371104818
            ]
        ]
    ]
}
</property>
    <property name="kdenlive:collapsed">0</property>
   </filter>
  </entry>
 </playlist>
 <playlist id="playlist9"/>
 <tractor id="tractor4" in="00:00:00,000" out="00:01:36,800">
  <property name="kdenlive:trackheight">84</property>
  <property name="kdenlive:collapsed">28</property>
  <property name="kdenlive:thumbs_format"/>
  <property name="kdenlive:audio_rec"/>
  <property name="kdenlive:timeline_active">1</property>
  <track hide="audio" producer="playlist8"/>
  <track hide="both" producer="playlist9"/>
 </tractor>
 <producer id="producer98" in="00:00:00,000" out="00:00:16,400">
  <property name="length">493</property>
  <property name="eof">pause</property>
  <property name="resource">1,900000:clip/feature-clips/05-new-gallery-2020-07-20_15.21.05.mkv</property>
  <property name="aspect_ratio">1</property>
  <property name="meta.media.nb_streams">1</property>
  <property name="meta.media.0.stream.type">video</property>
  <property name="meta.media.0.stream.frame_rate">62,5</property>
  <property name="meta.media.0.stream.sample_aspect_ratio">1</property>
  <property name="meta.media.0.codec.width">1266</property>
  <property name="meta.media.0.codec.height">716</property>
  <property name="meta.media.0.codec.rotate">0</property>
  <property name="meta.media.0.codec.frame_rate">60</property>
  <property name="meta.media.0.codec.pix_fmt">yuv420p</property>
  <property name="meta.media.0.codec.sample_aspect_ratio">1</property>
  <property name="meta.media.0.codec.colorspace">709</property>
  <property name="meta.media.0.codec.color_trc">1</property>
  <property name="meta.media.0.codec.name">h264</property>
  <property name="meta.media.0.codec.long_name">H.264 / AVC / MPEG-4 AVC / MPEG-4 part 10</property>
  <property name="meta.media.0.codec.bit_rate">0</property>
  <property name="meta.attr.0.stream.DURATION.markup">00:00:31,217000000</property>
  <property name="meta.attr.ENCODER.markup">Lavf58.29.100</property>
  <property name="seekable">1</property>
  <property name="meta.media.sample_aspect_num">1</property>
  <property name="meta.media.sample_aspect_den">1</property>
  <property name="audio_index">-1</property>
  <property name="video_index">0</property>
  <property name="mute_on_pause">1</property>
  <property name="warp_speed">1,9</property>
  <property name="warp_resource">clip/feature-clips/05-new-gallery-2020-07-20_15.21.05.mkv</property>
  <property name="mlt_service">timewarp</property>
  <property name="set.test_audio">1</property>
  <property name="set.test_image">0</property>
  <property name="warp_pitch">0</property>
  <property name="meta.media.frame_rate_num">125</property>
  <property name="meta.media.frame_rate_den">2</property>
  <property name="meta.media.colorspace">709</property>
  <property name="meta.media.color_trc">1</property>
  <property name="meta.media.width">1266</property>
  <property name="meta.media.height">716</property>
  <property name="meta.media.color_range">mpeg</property>
  <property name="meta.media.top_field_first">0</property>
  <property name="meta.media.progressive">1</property>
  <property name="kdenlive:id">49</property>
 </producer>
 <producer id="producer99" in="00:00:00,000" out="00:00:14,167">
  <property name="length">426</property>
  <property name="eof">pause</property>
  <property name="resource">1,900000:clip/feature-clips/08-Navigator-is-easier-to-use-2020-07-20_13.58.01-BEFORE.mkv</property>
  <property name="aspect_ratio">1</property>
  <property name="meta.media.nb_streams">1</property>
  <property name="meta.media.0.stream.type">video</property>
  <property name="meta.media.0.stream.frame_rate">62,5</property>
  <property name="meta.media.0.stream.sample_aspect_ratio">1</property>
  <property name="meta.media.0.codec.width">1346</property>
  <property name="meta.media.0.codec.height">662</property>
  <property name="meta.media.0.codec.rotate">0</property>
  <property name="meta.media.0.codec.frame_rate">60</property>
  <property name="meta.media.0.codec.pix_fmt">yuv420p</property>
  <property name="meta.media.0.codec.sample_aspect_ratio">1</property>
  <property name="meta.media.0.codec.colorspace">709</property>
  <property name="meta.media.0.codec.color_trc">1</property>
  <property name="meta.media.0.codec.name">h264</property>
  <property name="meta.media.0.codec.long_name">H.264 / AVC / MPEG-4 AVC / MPEG-4 part 10</property>
  <property name="meta.media.0.codec.bit_rate">0</property>
  <property name="meta.attr.0.stream.DURATION.markup">00:00:26,967000000</property>
  <property name="meta.attr.ENCODER.markup">Lavf58.29.100</property>
  <property name="seekable">1</property>
  <property name="meta.media.sample_aspect_num">1</property>
  <property name="meta.media.sample_aspect_den">1</property>
  <property name="audio_index">-1</property>
  <property name="video_index">0</property>
  <property name="mute_on_pause">1</property>
  <property name="warp_speed">1,9</property>
  <property name="warp_resource">clip/feature-clips/08-Navigator-is-easier-to-use-2020-07-20_13.58.01-BEFORE.mkv</property>
  <property name="mlt_service">timewarp</property>
  <property name="set.test_audio">1</property>
  <property name="set.test_image">0</property>
  <property name="warp_pitch">0</property>
  <property name="meta.media.frame_rate_num">125</property>
  <property name="meta.media.frame_rate_den">2</property>
  <property name="meta.media.colorspace">709</property>
  <property name="meta.media.color_trc">1</property>
  <property name="meta.media.width">1346</property>
  <property name="meta.media.height">662</property>
  <property name="meta.media.color_range">mpeg</property>
  <property name="meta.media.top_field_first">0</property>
  <property name="meta.media.progressive">1</property>
  <property name="kdenlive:id">51</property>
 </producer>
 <producer id="producer100" in="00:00:00,000" out="00:00:07,400">
  <property name="length">223</property>
  <property name="eof">pause</property>
  <property name="resource">1,100000:clip/feature-clips/09-Semi-transparent-text-writer-2020-07-20_14.18.37.mkv</property>
  <property name="aspect_ratio">1</property>
  <property name="meta.media.nb_streams">1</property>
  <property name="meta.media.0.stream.type">video</property>
  <property name="meta.media.0.stream.frame_rate">62,5</property>
  <property name="meta.media.0.stream.sample_aspect_ratio">1</property>
  <property name="meta.media.0.codec.width">1346</property>
  <property name="meta.media.0.codec.height">662</property>
  <property name="meta.media.0.codec.rotate">0</property>
  <property name="meta.media.0.codec.frame_rate">60</property>
  <property name="meta.media.0.codec.pix_fmt">yuv420p</property>
  <property name="meta.media.0.codec.sample_aspect_ratio">1</property>
  <property name="meta.media.0.codec.colorspace">709</property>
  <property name="meta.media.0.codec.color_trc">1</property>
  <property name="meta.media.0.codec.name">h264</property>
  <property name="meta.media.0.codec.long_name">H.264 / AVC / MPEG-4 AVC / MPEG-4 part 10</property>
  <property name="meta.media.0.codec.bit_rate">0</property>
  <property name="meta.attr.0.stream.DURATION.markup">00:00:08,183000000</property>
  <property name="meta.attr.ENCODER.markup">Lavf58.29.100</property>
  <property name="seekable">1</property>
  <property name="meta.media.sample_aspect_num">1</property>
  <property name="meta.media.sample_aspect_den">1</property>
  <property name="audio_index">-1</property>
  <property name="video_index">0</property>
  <property name="mute_on_pause">1</property>
  <property name="warp_speed">1,1</property>
  <property name="warp_resource">clip/feature-clips/09-Semi-transparent-text-writer-2020-07-20_14.18.37.mkv</property>
  <property name="mlt_service">timewarp</property>
  <property name="set.test_audio">1</property>
  <property name="set.test_image">0</property>
  <property name="warp_pitch">0</property>
  <property name="meta.media.frame_rate_num">125</property>
  <property name="meta.media.frame_rate_den">2</property>
  <property name="meta.media.colorspace">709</property>
  <property name="meta.media.color_trc">1</property>
  <property name="meta.media.width">1346</property>
  <property name="meta.media.height">662</property>
  <property name="meta.media.color_range">mpeg</property>
  <property name="meta.media.top_field_first">0</property>
  <property name="meta.media.progressive">1</property>
  <property name="kdenlive:id">52</property>
 </producer>
 <producer id="producer101" in="00:00:00,000" out="00:00:06,167">
  <property name="length">186</property>
  <property name="eof">pause</property>
  <property name="resource">1,250000:clip/feature-clips/11-padded-numbering-2020-07-20_15.10.35.mkv</property>
  <property name="aspect_ratio">1</property>
  <property name="meta.media.nb_streams">1</property>
  <property name="meta.media.0.stream.type">video</property>
  <property name="meta.media.0.stream.frame_rate">62,5</property>
  <property name="meta.media.0.stream.sample_aspect_ratio">1</property>
  <property name="meta.media.0.codec.width">1266</property>
  <property name="meta.media.0.codec.height">628</property>
  <property name="meta.media.0.codec.rotate">0</property>
  <property name="meta.media.0.codec.frame_rate">60</property>
  <property name="meta.media.0.codec.pix_fmt">yuv420p</property>
  <property name="meta.media.0.codec.sample_aspect_ratio">1</property>
  <property name="meta.media.0.codec.colorspace">709</property>
  <property name="meta.media.0.codec.color_trc">1</property>
  <property name="meta.media.0.codec.name">h264</property>
  <property name="meta.media.0.codec.long_name">H.264 / AVC / MPEG-4 AVC / MPEG-4 part 10</property>
  <property name="meta.media.0.codec.bit_rate">0</property>
  <property name="meta.attr.0.stream.DURATION.markup">00:00:07,767000000</property>
  <property name="meta.attr.ENCODER.markup">Lavf58.29.100</property>
  <property name="seekable">1</property>
  <property name="meta.media.sample_aspect_num">1</property>
  <property name="meta.media.sample_aspect_den">1</property>
  <property name="audio_index">-1</property>
  <property name="video_index">0</property>
  <property name="mute_on_pause">1</property>
  <property name="warp_speed">1,25</property>
  <property name="warp_resource">clip/feature-clips/11-padded-numbering-2020-07-20_15.10.35.mkv</property>
  <property name="mlt_service">timewarp</property>
  <property name="set.test_audio">1</property>
  <property name="set.test_image">0</property>
  <property name="warp_pitch">0</property>
  <property name="meta.media.frame_rate_num">125</property>
  <property name="meta.media.frame_rate_den">2</property>
  <property name="meta.media.colorspace">709</property>
  <property name="meta.media.color_trc">1</property>
  <property name="meta.media.width">1266</property>
  <property name="meta.media.height">628</property>
  <property name="meta.media.color_range">mpeg</property>
  <property name="meta.media.top_field_first">0</property>
  <property name="meta.media.progressive">1</property>
  <property name="kdenlive:id">54</property>
 </producer>
 <producer id="producer102" in="00:00:00,000" out="00:00:05,933">
  <property name="length">179</property>
  <property name="eof">pause</property>
  <property name="resource">1,650000:clip/feature-clips/13-random-non-volatile-calc-2020-07-20_15.46.52.mkv</property>
  <property name="aspect_ratio">1</property>
  <property name="meta.media.nb_streams">1</property>
  <property name="meta.media.0.stream.type">video</property>
  <property name="meta.media.0.stream.frame_rate">62,5</property>
  <property name="meta.media.0.stream.sample_aspect_ratio">1</property>
  <property name="meta.media.0.codec.width">1272</property>
  <property name="meta.media.0.codec.height">662</property>
  <property name="meta.media.0.codec.rotate">0</property>
  <property name="meta.media.0.codec.frame_rate">60</property>
  <property name="meta.media.0.codec.pix_fmt">yuv420p</property>
  <property name="meta.media.0.codec.sample_aspect_ratio">1</property>
  <property name="meta.media.0.codec.colorspace">709</property>
  <property name="meta.media.0.codec.color_trc">1</property>
  <property name="meta.media.0.codec.name">h264</property>
  <property name="meta.media.0.codec.long_name">H.264 / AVC / MPEG-4 AVC / MPEG-4 part 10</property>
  <property name="meta.media.0.codec.bit_rate">0</property>
  <property name="meta.attr.0.stream.DURATION.markup">00:00:09,867000000</property>
  <property name="meta.attr.ENCODER.markup">Lavf58.29.100</property>
  <property name="seekable">1</property>
  <property name="meta.media.sample_aspect_num">1</property>
  <property name="meta.media.sample_aspect_den">1</property>
  <property name="audio_index">-1</property>
  <property name="video_index">0</property>
  <property name="mute_on_pause">1</property>
  <property name="warp_speed">1,65</property>
  <property name="warp_resource">clip/feature-clips/13-random-non-volatile-calc-2020-07-20_15.46.52.mkv</property>
  <property name="mlt_service">timewarp</property>
  <property name="set.test_audio">1</property>
  <property name="set.test_image">0</property>
  <property name="warp_pitch">0</property>
  <property name="meta.media.frame_rate_num">125</property>
  <property name="meta.media.frame_rate_den">2</property>
  <property name="meta.media.colorspace">709</property>
  <property name="meta.media.color_trc">1</property>
  <property name="meta.media.width">1272</property>
  <property name="meta.media.height">662</property>
  <property name="meta.media.color_range">mpeg</property>
  <property name="meta.media.top_field_first">0</property>
  <property name="meta.media.progressive">1</property>
  <property name="kdenlive:id">55</property>
 </producer>
 <producer title="Anonymous Submission" id="producer103" in="00:00:00,000" out="00:00:04,833">
  <property name="length">146</property>
  <property name="eof">pause</property>
  <property name="resource">synfig-files/shortcut.gif</property>
  <property name="audio_index">-1</property>
  <property name="video_index">0</property>
  <property name="mute_on_pause">0</property>
  <property name="mlt_service">avformat-novalidate</property>
  <property name="seekable">1</property>
  <property name="aspect_ratio">1</property>
  <property name="kdenlive:clipname"/>
  <property name="kdenlive:duration">00:00:05,000</property>
  <property name="kdenlive:folderid">19</property>
  <property name="kdenlive:id">91</property>
  <property name="kdenlive:file_size">929539</property>
  <property name="kdenlive:file_hash">11337629c4818bbf6b93cd2a1cf29207</property>
  <property name="global_feed">1</property>
  <property name="xml">was here</property>
  <property name="meta.media.nb_streams">1</property>
  <property name="meta.media.0.stream.type">video</property>
  <property name="meta.media.0.stream.frame_rate">20</property>
  <property name="meta.media.0.stream.sample_aspect_ratio">0</property>
  <property name="meta.media.0.codec.width">1920</property>
  <property name="meta.media.0.codec.height">1080</property>
  <property name="meta.media.0.codec.rotate">0</property>
  <property name="meta.media.0.codec.frame_rate">100</property>
  <property name="meta.media.0.codec.pix_fmt">bgra</property>
  <property name="meta.media.0.codec.sample_aspect_ratio">0</property>
  <property name="meta.media.0.codec.colorspace">709</property>
  <property name="meta.media.0.codec.name">gif</property>
  <property name="meta.media.0.codec.long_name">GIF (Graphics Interchange Format)</property>
  <property name="meta.media.0.codec.bit_rate">0</property>
  <property name="meta.media.sample_aspect_num">1</property>
  <property name="meta.media.sample_aspect_den">1</property>
  <property name="meta.media.frame_rate_num">20</property>
  <property name="meta.media.frame_rate_den">1</property>
  <property name="meta.media.colorspace">709</property>
  <property name="meta.media.color_trc">2</property>
  <property name="meta.media.width">1920</property>
  <property name="meta.media.height">1080</property>
  <property name="meta.media.color_range">mpeg</property>
  <property name="meta.media.top_field_first">0</property>
  <property name="meta.media.progressive">1</property>
  <property name="set.test_audio">1</property>
  <property name="set.test_image">0</property>
 </producer>
 <producer title="Anonymous Submission" id="producer104" in="00:00:00,000" out="00:00:04,967">
  <property name="length">00:00:05,000</property>
  <property name="eof">pause</property>
  <property name="resource">synfig-files/pdf.gif</property>
  <property name="audio_index">-1</property>
  <property name="video_index">0</property>
  <property name="mute_on_pause">0</property>
  <property name="mlt_service">avformat-novalidate</property>
  <property name="seekable">1</property>
  <property name="aspect_ratio">1</property>
  <property name="kdenlive:clipname"/>
  <property name="kdenlive:duration">00:00:05,000</property>
  <property name="kdenlive:folderid">19</property>
  <property name="kdenlive:id">92</property>
  <property name="kdenlive:file_size">1419454</property>
  <property name="kdenlive:file_hash">0414ad754cb5f55cf76b8217d331ecc6</property>
  <property name="global_feed">1</property>
  <property name="xml">was here</property>
  <property name="meta.media.nb_streams">1</property>
  <property name="meta.media.0.stream.type">video</property>
  <property name="meta.media.0.stream.frame_rate">20</property>
  <property name="meta.media.0.stream.sample_aspect_ratio">0</property>
  <property name="meta.media.0.codec.width">1920</property>
  <property name="meta.media.0.codec.height">1080</property>
  <property name="meta.media.0.codec.rotate">0</property>
  <property name="meta.media.0.codec.frame_rate">100</property>
  <property name="meta.media.0.codec.pix_fmt">bgra</property>
  <property name="meta.media.0.codec.sample_aspect_ratio">0</property>
  <property name="meta.media.0.codec.colorspace">709</property>
  <property name="meta.media.0.codec.name">gif</property>
  <property name="meta.media.0.codec.long_name">GIF (Graphics Interchange Format)</property>
  <property name="meta.media.0.codec.bit_rate">0</property>
  <property name="meta.media.sample_aspect_num">1</property>
  <property name="meta.media.sample_aspect_den">1</property>
  <property name="meta.media.frame_rate_num">20</property>
  <property name="meta.media.frame_rate_den">1</property>
  <property name="meta.media.colorspace">709</property>
  <property name="meta.media.color_trc">2</property>
  <property name="meta.media.width">1920</property>
  <property name="meta.media.height">1080</property>
  <property name="meta.media.color_range">mpeg</property>
  <property name="meta.media.top_field_first">0</property>
  <property name="meta.media.progressive">1</property>
  <property name="set.test_audio">1</property>
  <property name="set.test_image">0</property>
 </producer>
 <playlist id="playlist10">
  <blank length="00:00:12,767"/>
  <entry producer="producer35" in="00:00:00,000" out="00:00:04,800">
   <property name="kdenlive:id">43</property>
   <filter id="filter41">
    <property name="rotate_center">1</property>
    <property name="mlt_service">qtblend</property>
    <property name="kdenlive_id">qtblend</property>
    <property name="rect">00:00:00,000=-1918 0 1920 1080 1;00:00:00,267=0 0 1920 1080 1;00:00:03,900=316 0 1920 1080 1;00:00:04,033=128 0 1920 1080 1;00:00:04,200=1925 0 1920 1080 1</property>
    <property name="rotation">00:00:00,000=0;00:00:00,267=0;00:00:03,900=0;00:00:04,033=0;00:00:04,200=0</property>
    <property name="compositing">0</property>
    <property name="distort">0</property>
    <property name="kdenlive:collapsed">0</property>
   </filter>
  </entry>
  <blank length="00:00:00,600"/>
  <entry producer="producer37" in="00:00:00,000" out="00:00:03,833">
   <property name="kdenlive:id">45</property>
   <filter id="filter42">
    <property name="rotate_center">1</property>
    <property name="mlt_service">qtblend</property>
    <property name="kdenlive_id">qtblend</property>
    <property name="rect">00:00:00,000=60 0 1920 1080 1;00:00:02,933=316 0 1920 1080 1;00:00:03,067=128 0 1920 1080 1;00:00:03,233=1925 0 1920 1080 1</property>
    <property name="rotation">00:00:00,000=0;00:00:02,933=0;00:00:03,067=0;00:00:03,233=0</property>
    <property name="compositing">0</property>
    <property name="distort">0</property>
    <property name="kdenlive:collapsed">0</property>
   </filter>
  </entry>
  <blank length="00:00:00,367"/>
  <entry producer="producer4" in="00:00:00,000" out="00:00:04,800">
   <property name="kdenlive:id">23</property>
   <filter id="filter37">
    <property name="rotate_center">1</property>
    <property name="mlt_service">qtblend</property>
    <property name="kdenlive_id">qtblend</property>
    <property name="rect">00:00:00,000=515 170 1152 648 1;00:00:04,800=320 114 1152 648 1</property>
    <property name="rotation">00:00:00,000=0;00:00:04,800=0</property>
    <property name="compositing">0</property>
    <property name="distort">0</property>
    <property name="kdenlive:collapsed">0</property>
   </filter>
   <filter id="filter38">
    <property name="mode">alpha</property>
    <property name="alpha_operation">clear</property>
    <property name="invert">0</property>
    <property name="feather">0</property>
    <property name="feather_passes">1</property>
    <property name="mlt_service">rotoscoping</property>
    <property name="kdenlive_id">rotoscoping</property>
    <property name="spline">{
    "000": [
        [
            [
                0.3616118769883351,
                0.1772855796418473
            ],
            [
                0.2693531283138918,
                0.1776625824693685
            ],
            [
                0.2695652173913043,
                0.27191328934967013
            ]
        ],
        [
            [
                0.27020148462354193,
                0.5546654099905749
            ],
            [
                0.2704135737009544,
                0.6489161168708765
            ],
            [
                0.36246023329798516,
                0.6489161168708765
            ]
        ],
        [
            [
                0.6386002120890775,
                0.6489161168708765
            ],
            [
                0.7306468716861082,
                0.6489161168708765
            ],
            [
                0.7306468716861082,
                0.5542884071630537
            ]
        ],
        [
            [
                0.7306468716861082,
                0.27040527803958525
            ],
            [
                0.7306468716861082,
                0.1757775683317625
            ],
            [
                0.6383881230116649,
                0.1761545711592837
            ]
        ]
    ],
    "144": [
        [
            [
                0.32608695652173914,
                0.13016022620169648
            ],
            [
                0.23382820784729585,
                0.13053722902921774
            ],
            [
                0.2340402969247083,
                0.22478793590951968
            ]
        ],
        [
            [
                0.230965005302227,
                0.5763430725730441
            ],
            [
                0.23117709437963943,
                0.670593779453346
            ],
            [
                0.3232237539766699,
                0.670593779453346
            ]
        ],
        [
            [
                0.6773064687168611,
                0.673421300659755
            ],
            [
                0.7693531283138918,
                0.673421300659755
            ],
            [
                0.7693531283138918,
                0.5787935909519323
            ]
        ],
        [
            [
                0.7661717921527041,
                0.22233741753063133
            ],
            [
                0.7661717921527041,
                0.1277097078228087
            ],
            [
                0.6739130434782609,
                0.12808671065032992
            ]
        ]
    ]
}
</property>
    <property name="kdenlive:collapsed">0</property>
   </filter>
   <filter id="filter39" out="00:00:00,033">
    <property name="start">0</property>
    <property name="mlt_service">brightness</property>
    <property name="kdenlive_id">fade_from_black</property>
    <property name="end">1</property>
    <property name="alpha">-1</property>
   </filter>
  </entry>
  <entry producer="producer98" in="00:00:00,000" out="00:00:04,800">
   <property name="kdenlive:id">49</property>
   <filter id="filter40">
    <property name="rotate_center">1</property>
    <property name="mlt_service">qtblend</property>
    <property name="kdenlive_id">qtblend</property>
    <property name="rect">00:00:00,000=445 145 1152 648 1;00:00:04,800=320 145 1152 648 1</property>
    <property name="rotation">00:00:00,000=0;00:00:04,800=0</property>
    <property name="compositing">0</property>
    <property name="distort">0</property>
    <property name="kdenlive:collapsed">0</property>
   </filter>
   <filter id="filter43">
    <property name="mode">alpha</property>
    <property name="alpha_operation">clear</property>
    <property name="invert">0</property>
    <property name="feather">0</property>
    <property name="feather_passes">1</property>
    <property name="mlt_service">rotoscoping</property>
    <property name="kdenlive_id">rotoscoping</property>
    <property name="spline">{
    "000": [
        [
            [
                0.33891834570519624,
                0.13091423185673892
            ],
            [
                0.23170731707317074,
                0.13147973609802074
            ],
            [
                0.2320254506892895,
                0.23873704052780398
            ]
        ],
        [
            [
                0.23297985153764583,
                0.5605089538171536
            ],
            [
                0.2332979851537646,
                0.6677662582469369
            ],
            [
                0.34019088016967125,
                0.6673892554194156
            ]
        ],
        [
            [
                0.6608695652173913,
                0.666258246936852
            ],
            [
                0.767762460233298,
                0.6658812441093308
            ],
            [
                0.767762460233298,
                0.558435438265787
            ]
        ],
        [
            [
                0.767762460233298,
                0.23609802073515554
            ],
            [
                0.767762460233298,
                0.1286522148916117
            ],
            [
                0.6605514316012725,
                0.1292177191328935
            ]
        ]
    ]
}
</property>
    <property name="kdenlive:collapsed">0</property>
   </filter>
  </entry>
  <blank length="00:00:09,600"/>
  <entry producer="producer85" in="00:00:00,000" out="00:00:02,367">
   <property name="kdenlive:id">95</property>
   <property name="kdenlive:activeeffect">0</property>
   <filter id="filter44">
    <property name="rotate_center">1</property>
    <property name="mlt_service">qtblend</property>
    <property name="kdenlive_id">qtblend</property>
    <property name="rect">00:00:00,000=96 54 1728 972 1;00:00:02,367=0 0 1920 1080 1</property>
    <property name="rotation">00:00:00,000=0;00:00:02,367=0</property>
    <property name="compositing">0</property>
    <property name="distort">0</property>
    <property name="kdenlive:collapsed">0</property>
   </filter>
   <filter id="filter45">
    <property name="background">colour:0</property>
    <property name="mlt_service">affine</property>
    <property name="kdenlive_id">affinerotate</property>
    <property name="transition.rotate_x">0=0;6=0;71=0</property>
    <property name="transition.rotate_y">0=0;6=0;71=0</property>
    <property name="transition.rotate_z">0=54;6=0;71=0</property>
    <property name="transition.ox">0=0;6=0;71=0</property>
    <property name="transition.oy">0=0;6=0;71=0</property>
    <property name="producer.resource">0x00000000</property>
    <property name="transition.keyed">1</property>
    <property name="kdenlive:collapsed">0</property>
   </filter>
  </entry>
  <entry producer="producer99" in="00:00:00,000" out="00:00:04,967">
   <property name="kdenlive:id">51</property>
   <filter id="filter46">
    <property name="rotate_center">1</property>
    <property name="mlt_service">qtblend</property>
    <property name="kdenlive_id">qtblend</property>
    <property name="rect">00:00:00,000=515 170 1152 648 1;00:00:04,800=320 114 1152 648 1</property>
    <property name="rotation">00:00:00,000=0;00:00:04,800=0</property>
    <property name="compositing">0</property>
    <property name="distort">0</property>
    <property name="kdenlive:collapsed">0</property>
   </filter>
   <filter id="filter47">
    <property name="mode">alpha</property>
    <property name="alpha_operation">clear</property>
    <property name="invert">0</property>
    <property name="feather">0</property>
    <property name="feather_passes">1</property>
    <property name="mlt_service">rotoscoping</property>
    <property name="kdenlive_id">rotoscoping</property>
    <property name="spline">{
    "000": [
        [
            [
                0.3616118769883351,
                0.1772855796418473
            ],
            [
                0.2693531283138918,
                0.1776625824693685
            ],
            [
                0.2695652173913043,
                0.27191328934967013
            ]
        ],
        [
            [
                0.27020148462354193,
                0.5546654099905749
            ],
            [
                0.2704135737009544,
                0.6489161168708765
            ],
            [
                0.36246023329798516,
                0.6489161168708765
            ]
        ],
        [
            [
                0.6386002120890775,
                0.6489161168708765
            ],
            [
                0.7306468716861082,
                0.6489161168708765
            ],
            [
                0.7306468716861082,
                0.5542884071630537
            ]
        ],
        [
            [
                0.7306468716861082,
                0.27040527803958525
            ],
            [
                0.7306468716861082,
                0.1757775683317625
            ],
            [
                0.6383881230116649,
                0.1761545711592837
            ]
        ]
    ],
    "144": [
        [
            [
                0.32608695652173914,
                0.13016022620169648
            ],
            [
                0.23382820784729585,
                0.13053722902921774
            ],
            [
                0.2340402969247083,
                0.22478793590951968
            ]
        ],
        [
            [
                0.230965005302227,
                0.5763430725730441
            ],
            [
                0.23117709437963943,
                0.670593779453346
            ],
            [
                0.3232237539766699,
                0.670593779453346
            ]
        ],
        [
            [
                0.6773064687168611,
                0.673421300659755
            ],
            [
                0.7693531283138918,
                0.673421300659755
            ],
            [
                0.7693531283138918,
                0.5787935909519323
            ]
        ],
        [
            [
                0.7661717921527041,
                0.22233741753063133
            ],
            [
                0.7661717921527041,
                0.1277097078228087
            ],
            [
                0.6739130434782609,
                0.12808671065032992
            ]
        ]
    ]
}
</property>
    <property name="kdenlive:collapsed">0</property>
   </filter>
  </entry>
  <entry producer="producer100" in="00:00:02,267" out="00:00:06,900">
   <property name="kdenlive:id">52</property>
   <filter id="filter48">
    <property name="rotate_center">1</property>
    <property name="mlt_service">qtblend</property>
    <property name="kdenlive_id">qtblend</property>
    <property name="rect">00:00:02,267=445 145 1152 648 1;00:00:06,900=329 145 1152 648 1</property>
    <property name="rotation">00:00:02,267=0;00:00:06,900=0</property>
    <property name="compositing">0</property>
    <property name="distort">0</property>
    <property name="kdenlive:collapsed">0</property>
   </filter>
   <filter id="filter49">
    <property name="mode">alpha</property>
    <property name="alpha_operation">clear</property>
    <property name="invert">0</property>
    <property name="feather">0</property>
    <property name="feather_passes">1</property>
    <property name="mlt_service">rotoscoping</property>
    <property name="kdenlive_id">rotoscoping</property>
    <property name="spline">{
    "000": [
        [
            [
                0.33891834570519624,
                0.13091423185673892
            ],
            [
                0.23170731707317074,
                0.13147973609802074
            ],
            [
                0.2320254506892895,
                0.23873704052780398
            ]
        ],
        [
            [
                0.23297985153764583,
                0.5605089538171536
            ],
            [
                0.2332979851537646,
                0.6677662582469369
            ],
            [
                0.34019088016967125,
                0.6673892554194156
            ]
        ],
        [
            [
                0.6608695652173913,
                0.666258246936852
            ],
            [
                0.767762460233298,
                0.6658812441093308
            ],
            [
                0.767762460233298,
                0.558435438265787
            ]
        ],
        [
            [
                0.767762460233298,
                0.23609802073515554
            ],
            [
                0.767762460233298,
                0.1286522148916117
            ],
            [
                0.6605514316012725,
                0.1292177191328935
            ]
        ]
    ]
}
</property>
    <property name="kdenlive:collapsed">0</property>
   </filter>
  </entry>
  <blank length="00:00:04,633"/>
  <entry producer="producer101" in="00:00:01,233" out="00:00:06,100">
   <property name="kdenlive:id">54</property>
   <filter id="filter50">
    <property name="rotate_center">1</property>
    <property name="mlt_service">qtblend</property>
    <property name="kdenlive_id">qtblend</property>
    <property name="rect">00:00:01,233=445 145 1152 648 1;00:00:05,867=329 145 1152 648 1</property>
    <property name="rotation">00:00:01,233=0;00:00:05,867=0</property>
    <property name="compositing">0</property>
    <property name="distort">0</property>
    <property name="kdenlive:collapsed">0</property>
   </filter>
   <filter id="filter51">
    <property name="mode">alpha</property>
    <property name="alpha_operation">clear</property>
    <property name="invert">0</property>
    <property name="feather">0</property>
    <property name="feather_passes">1</property>
    <property name="mlt_service">rotoscoping</property>
    <property name="kdenlive_id">rotoscoping</property>
    <property name="spline">{
    "000": [
        [
            [
                0.33891834570519624,
                0.13091423185673892
            ],
            [
                0.23170731707317074,
                0.13147973609802074
            ],
            [
                0.2320254506892895,
                0.23873704052780398
            ]
        ],
        [
            [
                0.23297985153764583,
                0.5605089538171536
            ],
            [
                0.2332979851537646,
                0.6677662582469369
            ],
            [
                0.34019088016967125,
                0.6673892554194156
            ]
        ],
        [
            [
                0.6608695652173913,
                0.666258246936852
            ],
            [
                0.767762460233298,
                0.6658812441093308
            ],
            [
                0.767762460233298,
                0.558435438265787
            ]
        ],
        [
            [
                0.767762460233298,
                0.23609802073515554
            ],
            [
                0.767762460233298,
                0.1286522148916117
            ],
            [
                0.6605514316012725,
                0.1292177191328935
            ]
        ]
    ]
}
</property>
    <property name="kdenlive:collapsed">0</property>
   </filter>
  </entry>
  <entry producer="producer78" in="00:00:00,000" out="00:00:00,867">
   <property name="kdenlive:id">87</property>
   <filter id="filter52">
    <property name="rotate_center">1</property>
    <property name="mlt_service">qtblend</property>
    <property name="kdenlive_id">qtblend</property>
    <property name="rect">00:00:00,000=1000 0 1920 1080 1;00:00:00,333=0 0 1920 1080 1</property>
    <property name="rotation">00:00:00,000=0;00:00:00,333=0</property>
    <property name="compositing">0</property>
    <property name="distort">0</property>
    <property name="kdenlive:collapsed">0</property>
   </filter>
  </entry>
  <entry producer="producer80" in="00:00:00,000" out="00:00:03,900">
   <property name="kdenlive:id">89</property>
   <filter id="filter53">
    <property name="background">colour:0</property>
    <property name="mlt_service">affine</property>
    <property name="kdenlive_id">affinerotate</property>
    <property name="transition.rotate_x">0=0;70=0;83=0;117=0</property>
    <property name="transition.rotate_y">0=0;70=0;83=0;117=0</property>
    <property name="transition.rotate_z">0=-123,75;70=180;83=180;117=180</property>
    <property name="transition.ox">0=0;70=0;83=0;117=0</property>
    <property name="transition.oy">0=0;70=0;83=0;117=0</property>
    <property name="producer.resource">0x00000000</property>
    <property name="transition.keyed">1</property>
    <property name="kdenlive:collapsed">0</property>
   </filter>
   <filter id="filter54">
    <property name="rotate_center">1</property>
    <property name="mlt_service">qtblend</property>
    <property name="kdenlive_id">qtblend</property>
    <property name="rect">00:00:00,000=0 0 1920 1080 1;00:00:03,567=-336 -189 2592 1458 1</property>
    <property name="rotation">00:00:00,000=0;00:00:03,567=0</property>
    <property name="compositing">0</property>
    <property name="distort">0</property>
    <property name="kdenlive:collapsed">0</property>
   </filter>
   <filter id="filter55" in="00:00:03,600" out="00:00:03,900">
    <property name="start">1</property>
    <property name="mlt_service">brightness</property>
    <property name="kdenlive_id">fade_to_black</property>
    <property name="end">0</property>
    <property name="alpha">-1</property>
    <property name="kdenlive:collapsed">0</property>
   </filter>
  </entry>
  <blank length="00:00:02,333"/>
  <entry producer="producer102" in="00:00:00,667" out="00:00:05,467">
   <property name="kdenlive:id">55</property>
   <property name="kdenlive:activeeffect">1</property>
   <filter id="filter56">
    <property name="rotate_center">1</property>
    <property name="mlt_service">qtblend</property>
    <property name="kdenlive_id">qtblend</property>
    <property name="rect">00:00:00,667=515 170 1152 648 1;00:00:05,467=450 114 1152 648 1</property>
    <property name="rotation">00:00:00,667=0;00:00:05,467=0</property>
    <property name="compositing">0</property>
    <property name="distort">0</property>
    <property name="kdenlive:collapsed">0</property>
   </filter>
   <filter id="filter57">
    <property name="mode">alpha</property>
    <property name="alpha_operation">clear</property>
    <property name="invert">0</property>
    <property name="feather">0</property>
    <property name="feather_passes">1</property>
    <property name="mlt_service">rotoscoping</property>
    <property name="kdenlive_id">rotoscoping</property>
    <property name="spline">{
    "000": [
        [
            [
                0.3616118769883351,
                0.1772855796418473
            ],
            [
                0.2693531283138918,
                0.1776625824693685
            ],
            [
                0.2695652173913043,
                0.27191328934967013
            ]
        ],
        [
            [
                0.27020148462354193,
                0.5546654099905749
            ],
            [
                0.2704135737009544,
                0.6489161168708765
            ],
            [
                0.36246023329798516,
                0.6489161168708765
            ]
        ],
        [
            [
                0.6386002120890775,
                0.6489161168708765
            ],
            [
                0.7306468716861082,
                0.6489161168708765
            ],
            [
                0.7306468716861082,
                0.5542884071630537
            ]
        ],
        [
            [
                0.7306468716861082,
                0.27040527803958525
            ],
            [
                0.7306468716861082,
                0.1757775683317625
            ],
            [
                0.6383881230116649,
                0.1761545711592837
            ]
        ]
    ],
    "144": [
        [
            [
                0.33788672959654187,
                0.13701676487786116
            ],
            [
                0.2456279809220986,
                0.13739376770538242
            ],
            [
                0.24584006999951102,
                0.23164447458568435
            ]
        ],
        [
            [
                0.24859554208315993,
                0.5728881033179984
            ],
            [
                0.24880763116057236,
                0.6671388101983003
            ],
            [
                0.3408542907576028,
                0.6671388101983003
            ]
        ],
        [
            [
                0.6639151846001077,
                0.6756373937677054
            ],
            [
                0.7559618441971384,
                0.6756373937677054
            ],
            [
                0.7559618441971384,
                0.5810096840598826
            ]
        ],
        [
            [
                0.7543720190779015,
                0.23202147741320509
            ],
            [
                0.7543720190779015,
                0.13739376770538242
            ],
            [
                0.6621132704034581,
                0.13777077053290368
            ]
        ]
    ]
}
</property>
    <property name="kdenlive:collapsed">0</property>
   </filter>
  </entry>
  <entry producer="producer18" in="00:00:00,000" out="00:00:04,800">
   <property name="kdenlive:id">76</property>
   <filter id="filter85">
    <property name="rotate_center">1</property>
    <property name="mlt_service">qtblend</property>
    <property name="kdenlive_id">qtblend</property>
    <property name="rect">00:00:00,000=-1918 0 1920 1080 1;00:00:00,267=0 0 1920 1080 1;00:00:03,900=316 0 1920 1080 1;00:00:04,033=128 0 1920 1080 1;00:00:04,200=1925 0 1920 1080 1</property>
    <property name="rotation">00:00:00,000=0;00:00:00,267=0;00:00:03,900=0;00:00:04,033=0;00:00:04,200=0</property>
    <property name="compositing">0</property>
    <property name="distort">0</property>
    <property name="kdenlive:collapsed">0</property>
   </filter>
  </entry>
  <entry producer="producer103" in="00:00:00,000" out="00:00:04,800">
   <property name="kdenlive:id">91</property>
   <property name="kdenlive:activeeffect">0</property>
   <filter id="filter58">
    <property name="rotate_center">1</property>
    <property name="mlt_service">qtblend</property>
    <property name="kdenlive_id">qtblend</property>
    <property name="rect">00:00:00,000=0 0 1920 1080 1;00:00:04,333=-115 -64 2150 1209 1;00:00:04,633=-1344 -756 4608 2592 0</property>
    <property name="rotation">00:00:00,000=0;00:00:04,333=0;00:00:04,633=0</property>
    <property name="compositing">0</property>
    <property name="distort">0</property>
    <property name="kdenlive:collapsed">0</property>
   </filter>
  </entry>
  <blank length="00:00:02,200"/>
  <entry producer="producer63" in="00:00:00,000" out="00:00:04,800">
   <property name="kdenlive:id">79</property>
   <property name="kdenlive:activeeffect">1</property>
   <filter id="filter59">
    <property name="rotate_center">1</property>
    <property name="mlt_service">qtblend</property>
    <property name="kdenlive_id">qtblend</property>
    <property name="rect">00:00:00,000=428 179 1056 594 1;00:00:04,800=334 25 1248 702 1</property>
    <property name="rotation">00:00:00,000=0;00:00:04,800=0</property>
    <property name="compositing">0</property>
    <property name="distort">0</property>
    <property name="kdenlive:collapsed">0</property>
   </filter>
   <filter id="filter60">
    <property name="mode">alpha</property>
    <property name="alpha_operation">clear</property>
    <property name="invert">0</property>
    <property name="feather">0</property>
    <property name="feather_passes">1</property>
    <property name="mlt_service">rotoscoping</property>
    <property name="kdenlive_id">rotoscoping</property>
    <property name="spline">{
    "000": [
        [
            [
                0.3749734888653235,
                0.17445805843543827
            ],
            [
                0.26564156945917283,
                0.1757775683317625
            ],
            [
                0.26659597030752913,
                0.28661639962299706
            ]
        ],
        [
            [
                0.2673382820784729,
                0.5437323279924602
            ],
            [
                0.2682926829268293,
                0.6545711592836946
            ],
            [
                0.37720042417815486,
                0.656456173421301
            ]
        ],
        [
            [
                0.6249204665959703,
                0.6432610744580581
            ],
            [
                0.7338282078472959,
                0.6451460885956645
            ],
            [
                0.7332979851537647,
                0.5311027332704994
            ]
        ],
        [
            [
                0.7301166489925769,
                0.29736098020735163
            ],
            [
                0.7295864262990456,
                0.18331762488218661
            ],
            [
                0.620254506892895,
                0.18463713477851085
            ]
        ]
    ],
    "136": [
        [
            [
                0.35813955056672275,
                0.1389071189988599
            ],
            [
                0.24880763116057236,
                0.14022662889518414
            ],
            [
                0.24976203200892869,
                0.2510654601864188
            ]
        ],
        [
            [
                0.24626340519297915,
                0.5534671177172634
            ],
            [
                0.24721780604133547,
                0.6643059490084987
            ],
            [
                0.35612554729266094,
                0.6661909631461042
            ]
        ],
        [
            [
                0.6518235783035234,
                0.676585240819901
            ],
            [
                0.760731319554849,
                0.6784702549575071
            ],
            [
                0.7602010968613178,
                0.5644268996323422
            ]
        ],
        [
            [
                0.7612615422483803,
                0.2486042618407457
            ],
            [
                0.760731319554849,
                0.13456090651558075
            ],
            [
                0.6513994001486983,
                0.13588041641190501
            ]
        ]
    ]
}
</property>
    <property name="kdenlive:collapsed">0</property>
   </filter>
  </entry>
  <blank length="00:00:04,833"/>
  <entry producer="producer104" in="00:00:00,000" out="00:00:01,600">
   <property name="kdenlive:id">92</property>
  </entry>
  <entry producer="producer82" in="00:00:00,000" out="00:00:03,167">
   <property name="kdenlive:id">93</property>
   <property name="kdenlive:activeeffect">0</property>
   <filter id="filter61">
    <property name="rotate_center">1</property>
    <property name="mlt_service">qtblend</property>
    <property name="kdenlive_id">qtblend</property>
    <property name="rect">00:00:00,000=0 0 1920 1080 1;00:00:02,933=-96 -54 2112 1188 1;00:00:03,167=-672 -378 3264 1836 0</property>
    <property name="rotation">00:00:00,000=0;00:00:02,933=0;00:00:03,167=0</property>
    <property name="compositing">0</property>
    <property name="distort">0</property>
    <property name="kdenlive:collapsed">0</property>
   </filter>
  </entry>
  <entry producer="producer73" in="00:00:00,000" out="00:00:04,800">
   <property name="kdenlive:id">82</property>
   <filter id="filter62">
    <property name="rotate_center">1</property>
    <property name="mlt_service">qtblend</property>
    <property name="kdenlive_id">qtblend</property>
    <property name="rect">00:00:00,000=0 0 1920 1080 1;00:00:00,167=0 0 1920 1080 1;00:00:04,800=-92 -52 2105 1184 1</property>
    <property name="rotation">00:00:00,000=0;00:00:00,167=0;00:00:04,800=0</property>
    <property name="compositing">0</property>
    <property name="distort">0</property>
    <property name="kdenlive:collapsed">0</property>
   </filter>
   <filter id="filter63">
    <property name="background">colour:0</property>
    <property name="mlt_service">affine</property>
    <property name="kdenlive_id">affinerotate</property>
    <property name="transition.rotate_x">0=0;5=0;144=0;149=0</property>
    <property name="transition.rotate_y">0=0;5=0;144=0;149=0</property>
    <property name="transition.rotate_z">0=-90;5=0;144=0;149=90</property>
    <property name="transition.ox">0=0;5=0;144=0;149=0</property>
    <property name="transition.oy">0=0;5=0;144=0;149=0</property>
    <property name="producer.resource">0x00000000</property>
    <property name="transition.keyed">1</property>
    <property name="kdenlive:collapsed">0</property>
   </filter>
  </entry>
  <entry producer="producer23" in="00:00:00,000" out="00:00:04,800">
   <property name="kdenlive:id">11</property>
   <filter id="filter64">
    <property name="rotate_center">1</property>
    <property name="mlt_service">qtblend</property>
    <property name="kdenlive_id">qtblend</property>
    <property name="rect">00:00:00,000=0 0 1920 1080 1;00:00:00,167=0 0 1920 1080 1;00:00:04,800=-92 -52 2105 1184 1</property>
    <property name="rotation">00:00:00,000=0;00:00:00,167=0;00:00:04,800=0</property>
    <property name="compositing">0</property>
    <property name="distort">0</property>
    <property name="kdenlive:collapsed">0</property>
   </filter>
   <filter id="filter65">
    <property name="background">colour:0</property>
    <property name="mlt_service">affine</property>
    <property name="kdenlive_id">affinerotate</property>
    <property name="transition.rotate_x">0=0;5=0;144=0;149=0</property>
    <property name="transition.rotate_y">0=0;5=0;144=0;149=0</property>
    <property name="transition.rotate_z">0=-90;5=0;144=0;149=90</property>
    <property name="transition.ox">0=0;5=0;144=0;149=0</property>
    <property name="transition.oy">0=0;5=0;144=0;149=0</property>
    <property name="producer.resource">0x00000000</property>
    <property name="transition.keyed">1</property>
    <property name="kdenlive:collapsed">0</property>
   </filter>
  </entry>
  <entry producer="producer74" in="00:00:00,000" out="00:00:04,800">
   <property name="kdenlive:id">83</property>
   <filter id="filter66">
    <property name="rotate_center">1</property>
    <property name="mlt_service">qtblend</property>
    <property name="kdenlive_id">qtblend</property>
    <property name="rect">00:00:00,000=0 0 1920 1080 1;00:00:00,167=0 0 1920 1080 1;00:00:04,800=-92 -52 2105 1184 1</property>
    <property name="rotation">00:00:00,000=0;00:00:00,167=0;00:00:04,800=0</property>
    <property name="compositing">0</property>
    <property name="distort">0</property>
    <property name="kdenlive:collapsed">0</property>
   </filter>
   <filter id="filter67">
    <property name="background">colour:0</property>
    <property name="mlt_service">affine</property>
    <property name="kdenlive_id">affinerotate</property>
    <property name="transition.rotate_x">0=0;5=0;144=0;149=0</property>
    <property name="transition.rotate_y">0=0;5=0;144=0;149=0</property>
    <property name="transition.rotate_z">0=-90;5=0;144=0;149=90</property>
    <property name="transition.ox">0=0;5=0;144=0;149=0</property>
    <property name="transition.oy">0=0;5=0;144=0;149=0</property>
    <property name="producer.resource">0x00000000</property>
    <property name="transition.keyed">1</property>
    <property name="kdenlive:collapsed">0</property>
   </filter>
  </entry>
 </playlist>
 <playlist id="playlist11"/>
 <tractor id="tractor5" in="00:00:00,000" out="00:01:56,133">
  <property name="kdenlive:trackheight">64</property>
  <property name="kdenlive:collapsed">28</property>
  <property name="kdenlive:thumbs_format"/>
  <property name="kdenlive:audio_rec"/>
  <property name="kdenlive:timeline_active">1</property>
  <track hide="audio" producer="playlist10"/>
  <track hide="both" producer="playlist11"/>
 </tractor>
 <producer title="Anonymous Submission" id="producer105" in="00:00:00,000" out="00:00:48,000">
  <property name="length">1441</property>
  <property name="eof">pause</property>
  <property name="resource">/home/sherlock/Video/7alpha/clip/about-motion-2020-05-22_07.38.23.mp4</property>
  <property name="audio_index">-1</property>
  <property name="video_index">0</property>
  <property name="mute_on_pause">0</property>
  <property name="mlt_service">avformat-novalidate</property>
  <property name="seekable">1</property>
  <property name="aspect_ratio">1</property>
  <property name="kdenlive:clipname">about-motion-2020-05-22_07.38.23.mp4</property>
  <property name="kdenlive:folderid">19</property>
  <property name="kdenlive:id">2</property>
  <property name="kdenlive:file_size">29632537</property>
  <property name="global_feed">1</property>
  <property name="kdenlive:originalurl">/home/sherlock/Video/LIbreRilis/about-motion-2020-05-22_07.38.23.mp4</property>
  <property name="kdenlive:file_hash">d8ef8dfc2ad863112e947133352c5b08</property>
  <property name="xml">was here</property>
  <property name="meta.media.nb_streams">1</property>
  <property name="meta.media.0.stream.type">video</property>
  <property name="meta.media.0.stream.frame_rate">30,0208</property>
  <property name="meta.media.0.stream.sample_aspect_ratio">1</property>
  <property name="meta.media.0.codec.width">1920</property>
  <property name="meta.media.0.codec.height">1080</property>
  <property name="meta.media.0.codec.rotate">0</property>
  <property name="meta.media.0.codec.frame_rate">30</property>
  <property name="meta.media.0.codec.pix_fmt">yuv420p</property>
  <property name="meta.media.0.codec.sample_aspect_ratio">1</property>
  <property name="meta.media.0.codec.colorspace">709</property>
  <property name="meta.media.0.codec.color_trc">1</property>
  <property name="meta.media.0.codec.name">h264</property>
  <property name="meta.media.0.codec.long_name">H.264 / AVC / MPEG-4 AVC / MPEG-4 part 10</property>
  <property name="meta.media.0.codec.bit_rate">4934149</property>
  <property name="meta.attr.0.stream.handler_name.markup">VideoHandler</property>
  <property name="meta.attr.major_brand.markup">isom</property>
  <property name="meta.attr.minor_version.markup">512</property>
  <property name="meta.attr.compatible_brands.markup">isomiso2avc1mp41</property>
  <property name="meta.attr.encoder.markup">Lavf58.29.100</property>
  <property name="meta.media.sample_aspect_num">1</property>
  <property name="meta.media.sample_aspect_den">1</property>
  <property name="meta.media.frame_rate_num">43260</property>
  <property name="meta.media.frame_rate_den">1441</property>
  <property name="meta.media.colorspace">709</property>
  <property name="meta.media.color_trc">1</property>
  <property name="meta.media.width">1920</property>
  <property name="meta.media.height">1080</property>
  <property name="meta.media.color_range">mpeg</property>
  <property name="meta.media.top_field_first">0</property>
  <property name="meta.media.progressive">1</property>
  <property name="set.test_audio">1</property>
  <property name="set.test_image">0</property>
 </producer>
 <producer title="Anonymous Submission" id="producer106" in="00:00:00,000" out="00:00:04,800">
  <property name="length">145</property>
  <property name="eof">pause</property>
  <property name="resource">synfig-files/skia.mp4</property>
  <property name="audio_index">-1</property>
  <property name="video_index">0</property>
  <property name="mute_on_pause">0</property>
  <property name="mlt_service">avformat-novalidate</property>
  <property name="seekable">1</property>
  <property name="aspect_ratio">1</property>
  <property name="kdenlive:clipname"/>
  <property name="kdenlive:folderid">19</property>
  <property name="kdenlive:id">86</property>
  <property name="kdenlive:file_size">821509</property>
  <property name="kdenlive:file_hash">a2337753f128c087f42daabc133215be</property>
  <property name="global_feed">1</property>
  <property name="xml">was here</property>
  <property name="meta.media.nb_streams">1</property>
  <property name="meta.media.0.stream.type">video</property>
  <property name="meta.media.0.stream.frame_rate">30</property>
  <property name="meta.media.0.stream.sample_aspect_ratio">0</property>
  <property name="meta.media.0.codec.width">1920</property>
  <property name="meta.media.0.codec.height">1080</property>
  <property name="meta.media.0.codec.rotate">0</property>
  <property name="meta.media.0.codec.frame_rate">30</property>
  <property name="meta.media.0.codec.pix_fmt">yuv420p</property>
  <property name="meta.media.0.codec.sample_aspect_ratio">1</property>
  <property name="meta.media.0.codec.colorspace">709</property>
  <property name="meta.media.0.codec.name">mpeg4</property>
  <property name="meta.media.0.codec.long_name">MPEG-4 part 2</property>
  <property name="meta.media.0.codec.bit_rate">1357218</property>
  <property name="meta.attr.0.stream.handler_name.markup">VideoHandler</property>
  <property name="meta.attr.major_brand.markup">isom</property>
  <property name="meta.attr.minor_version.markup">512</property>
  <property name="meta.attr.compatible_brands.markup">isomiso2mp41</property>
  <property name="meta.attr.title.markup">"skia.sif"</property>
  <property name="meta.attr.encoder.markup">Lavf58.45.100</property>
  <property name="meta.media.sample_aspect_num">1</property>
  <property name="meta.media.sample_aspect_den">1</property>
  <property name="meta.media.frame_rate_num">30</property>
  <property name="meta.media.frame_rate_den">1</property>
  <property name="meta.media.colorspace">709</property>
  <property name="meta.media.color_trc">2</property>
  <property name="meta.media.width">1920</property>
  <property name="meta.media.height">1080</property>
  <property name="meta.media.color_range">mpeg</property>
  <property name="meta.media.top_field_first">0</property>
  <property name="meta.media.progressive">1</property>
  <property name="set.test_audio">1</property>
  <property name="set.test_image">0</property>
 </producer>
 <producer id="producer107" in="00:00:00,000" out="00:00:21,800">
  <property name="length">655</property>
  <property name="eof">pause</property>
  <property name="resource">2,200000:/home/sherlock/Video/7alpha/clip/about-motion-2020-05-22_07.38.23.mp4</property>
  <property name="aspect_ratio">1</property>
  <property name="meta.media.nb_streams">1</property>
  <property name="meta.media.0.stream.type">video</property>
  <property name="meta.media.0.stream.frame_rate">30,0208</property>
  <property name="meta.media.0.stream.sample_aspect_ratio">1</property>
  <property name="meta.media.0.codec.width">1920</property>
  <property name="meta.media.0.codec.height">1080</property>
  <property name="meta.media.0.codec.rotate">0</property>
  <property name="meta.media.0.codec.frame_rate">30</property>
  <property name="meta.media.0.codec.pix_fmt">yuv420p</property>
  <property name="meta.media.0.codec.sample_aspect_ratio">1</property>
  <property name="meta.media.0.codec.colorspace">709</property>
  <property name="meta.media.0.codec.color_trc">1</property>
  <property name="meta.media.0.codec.name">h264</property>
  <property name="meta.media.0.codec.long_name">H.264 / AVC / MPEG-4 AVC / MPEG-4 part 10</property>
  <property name="meta.media.0.codec.bit_rate">4934149</property>
  <property name="meta.attr.0.stream.handler_name.markup">VideoHandler</property>
  <property name="meta.attr.major_brand.markup">isom</property>
  <property name="meta.attr.minor_version.markup">512</property>
  <property name="meta.attr.compatible_brands.markup">isomiso2avc1mp41</property>
  <property name="meta.attr.encoder.markup">Lavf58.29.100</property>
  <property name="seekable">1</property>
  <property name="meta.media.sample_aspect_num">1</property>
  <property name="meta.media.sample_aspect_den">1</property>
  <property name="audio_index">-1</property>
  <property name="video_index">0</property>
  <property name="mute_on_pause">1</property>
  <property name="warp_speed">2,2</property>
  <property name="warp_resource">/home/sherlock/Video/7alpha/clip/about-motion-2020-05-22_07.38.23.mp4</property>
  <property name="mlt_service">timewarp</property>
  <property name="kdenlive:originalurl">/home/sherlock/Video/LIbreRilis/about-motion-2020-05-22_07.38.23.mp4</property>
  <property name="set.test_audio">1</property>
  <property name="set.test_image">0</property>
  <property name="warp_pitch">0</property>
  <property name="meta.media.frame_rate_num">43260</property>
  <property name="meta.media.frame_rate_den">1441</property>
  <property name="meta.media.colorspace">709</property>
  <property name="meta.media.color_trc">1</property>
  <property name="meta.media.width">1920</property>
  <property name="meta.media.height">1080</property>
  <property name="meta.media.color_range">mpeg</property>
  <property name="meta.media.top_field_first">0</property>
  <property name="meta.media.progressive">1</property>
  <property name="kdenlive:id">2</property>
 </producer>
 <playlist id="playlist12">
  <blank length="00:00:12,767"/>
  <entry producer="producer105" in="00:00:21,067" out="00:00:30,700">
   <property name="kdenlive:id">2</property>
   <filter id="filter68">
    <property name="rotate_center">1</property>
    <property name="mlt_service">qtblend</property>
    <property name="kdenlive_id">qtblend</property>
    <property name="rect">00:00:21,067=0 0 1920 1080 0,07</property>
    <property name="rotation">00:00:21,067=0</property>
    <property name="compositing">0</property>
    <property name="distort">0</property>
    <property name="kdenlive:collapsed">0</property>
   </filter>
   <filter id="filter69" in="00:00:21,067" out="00:00:21,300">
    <property name="start">0</property>
    <property name="mlt_service">brightness</property>
    <property name="kdenlive_id">fade_from_black</property>
    <property name="end">1</property>
    <property name="alpha">-1</property>
    <property name="kdenlive:collapsed">0</property>
   </filter>
   <filter id="filter70">
    <property name="key">0xffffffff</property>
    <property name="variance">0,15</property>
    <property name="mlt_service">chroma</property>
    <property name="kdenlive_id">chroma</property>
    <property name="kdenlive:collapsed">0</property>
   </filter>
  </entry>
  <entry producer="producer68" in="00:00:00,000" out="00:00:14,467">
   <property name="kdenlive:id">63</property>
   <filter id="filter71">
    <property name="rotate_center">1</property>
    <property name="mlt_service">qtblend</property>
    <property name="kdenlive_id">qtblend</property>
    <property name="rect">00:00:00,000=138 77 1643 924 1;00:00:04,800=0 0 1920 1080 1</property>
    <property name="rotation">00:00:00,000=0;00:00:04,800=0</property>
    <property name="compositing">0</property>
    <property name="distort">0</property>
    <property name="kdenlive:collapsed">0</property>
   </filter>
   <filter id="filter72" out="00:00:00,067">
    <property name="start">0</property>
    <property name="mlt_service">brightness</property>
    <property name="kdenlive_id">fade_from_black</property>
    <property name="end">1</property>
    <property name="alpha">-1</property>
    <property name="kdenlive:collapsed">0</property>
   </filter>
  </entry>
  <entry producer="producer106" in="00:00:00,000" out="00:00:04,800">
   <property name="kdenlive:id">86</property>
  </entry>
  <blank length="00:00:02,333"/>
  <entry producer="producer68" in="00:00:00,000" out="00:00:19,167">
   <property name="kdenlive:id">63</property>
   <filter id="filter73">
    <property name="rotate_center">1</property>
    <property name="mlt_service">qtblend</property>
    <property name="kdenlive_id">qtblend</property>
    <property name="rect">00:00:00,000=138 77 1643 924 1;00:00:04,800=0 0 1920 1080 1</property>
    <property name="rotation">00:00:00,000=0;00:00:04,800=0</property>
    <property name="compositing">0</property>
    <property name="distort">0</property>
    <property name="kdenlive:collapsed">0</property>
   </filter>
  </entry>
  <blank length="00:00:04,833"/>
  <entry producer="producer86" in="00:00:00,000" out="00:00:02,300">
   <property name="kdenlive:id">96</property>
   <filter id="filter74">
    <property name="rotate_center">1</property>
    <property name="mlt_service">qtblend</property>
    <property name="kdenlive_id">qtblend</property>
    <property name="rect">00:00:00,000=96 54 1728 972 1;00:00:02,367=0 0 1920 1080 1</property>
    <property name="rotation">00:00:00,000=0;00:00:02,367=0</property>
    <property name="compositing">0</property>
    <property name="distort">0</property>
    <property name="kdenlive:collapsed">0</property>
   </filter>
   <filter id="filter75">
    <property name="background">colour:0</property>
    <property name="mlt_service">affine</property>
    <property name="kdenlive_id">affinerotate</property>
    <property name="transition.rotate_x">0=0;6=0;71=0</property>
    <property name="transition.rotate_y">0=0;6=0;71=0</property>
    <property name="transition.rotate_z">0=54;6=0;71=0</property>
    <property name="transition.ox">0=0;6=0;71=0</property>
    <property name="transition.oy">0=0;6=0;71=0</property>
    <property name="producer.resource">0x00000000</property>
    <property name="transition.keyed">1</property>
    <property name="kdenlive:collapsed">0</property>
   </filter>
  </entry>
  <entry producer="producer68" in="00:00:00,000" out="00:00:09,633">
   <property name="kdenlive:id">63</property>
   <property name="kdenlive:activeeffect">0</property>
   <filter id="filter76">
    <property name="rotate_center">1</property>
    <property name="mlt_service">qtblend</property>
    <property name="kdenlive_id">qtblend</property>
    <property name="rect">00:00:00,000=138 77 1643 924 1;00:00:09,633=0 0 1920 1080 1</property>
    <property name="rotation">00:00:00,000=0;00:00:09,633=0</property>
    <property name="compositing">0</property>
    <property name="distort">0</property>
    <property name="kdenlive:collapsed">0</property>
   </filter>
  </entry>
  <blank length="00:00:07,033"/>
  <entry producer="producer68" in="00:00:00,000" out="00:00:09,633">
   <property name="kdenlive:id">63</property>
   <filter id="filter77">
    <property name="rotate_center">1</property>
    <property name="mlt_service">qtblend</property>
    <property name="kdenlive_id">qtblend</property>
    <property name="rect">00:00:00,000=138 77 1643 924 1;00:00:09,633=0 0 1920 1080 1</property>
    <property name="rotation">00:00:00,000=0;00:00:09,633=0</property>
    <property name="compositing">0</property>
    <property name="distort">0</property>
    <property name="kdenlive:collapsed">0</property>
   </filter>
  </entry>
  <blank length="00:00:09,833"/>
  <entry producer="producer76" in="00:00:00,000" out="00:00:04,633">
   <property name="kdenlive:id">13</property>
   <filter id="filter78" out="00:00:00,167">
    <property name="start">0</property>
    <property name="mlt_service">brightness</property>
    <property name="kdenlive_id">fade_from_black</property>
    <property name="end">1</property>
    <property name="alpha">-1</property>
   </filter>
  </entry>
  <blank length="00:00:04,767"/>
  <entry producer="producer107" in="00:00:09,400" out="00:00:14,367">
   <property name="kdenlive:id">2</property>
  </entry>
  <blank length="00:00:03,767"/>
  <entry producer="producer27" in="00:00:00,000" out="00:00:06,267">
   <property name="kdenlive:id">7</property>
   <filter id="filter79">
    <property name="background">colour:0</property>
    <property name="mlt_service">affine</property>
    <property name="kdenlive_id">affinerotate</property>
    <property name="transition.rotate_x">0~=0;9~=0;140=0</property>
    <property name="transition.rotate_y">0~=0;9~=0;140=0</property>
    <property name="transition.rotate_z">0~=-90;9~=0;140=0</property>
    <property name="transition.ox">0~=0;9~=0;140=0</property>
    <property name="transition.oy">0~=0;9~=0;140=0</property>
    <property name="producer.resource">/home/sherlock/Video/7alpha/0x00000000</property>
    <property name="transition.keyed">1</property>
    <property name="kdenlive:collapsed">0</property>
   </filter>
   <filter id="filter80">
    <property name="rotate_center">1</property>
    <property name="mlt_service">qtblend</property>
    <property name="kdenlive_id">qtblend</property>
    <property name="rect">00:00:00,000=96 54 1728 972 1;00:00:05,800=-81 -45 2083 1171 1;00:00:06,267=-768 -432 3456 1944 0</property>
    <property name="rotation">00:00:00,000=0;00:00:05,800=0;00:00:06,267=0</property>
    <property name="compositing">0</property>
    <property name="distort">0</property>
    <property name="kdenlive:collapsed">0</property>
   </filter>
  </entry>
 </playlist>
 <playlist id="playlist13"/>
 <tractor id="tractor6" in="00:00:00,000" out="00:02:11,133">
  <property name="kdenlive:trackheight">81</property>
  <property name="kdenlive:collapsed">28</property>
  <property name="kdenlive:thumbs_format"/>
  <property name="kdenlive:audio_rec"/>
  <property name="kdenlive:timeline_active">1</property>
  <track hide="audio" producer="playlist12"/>
  <track hide="both" producer="playlist13"/>
 </tractor>
 <playlist id="playlist14">
  <blank length="00:00:22,433"/>
  <entry producer="producer51" in="00:00:00,000" out="00:00:04,800">
   <property name="kdenlive:id">67</property>
   <filter id="filter81">
    <property name="rotate_center">1</property>
    <property name="mlt_service">qtblend</property>
    <property name="kdenlive_id">qtblend</property>
    <property name="rect">00:00:00,000=-1918 0 1920 1080 1;00:00:00,267=0 0 1920 1080 1;00:00:03,900=316 0 1920 1080 1;00:00:04,033=128 0 1920 1080 1;00:00:04,200=1925 0 1920 1080 1</property>
    <property name="rotation">00:00:00,000=0;00:00:00,267=0;00:00:03,900=0;00:00:04,033=0;00:00:04,200=0</property>
    <property name="compositing">0</property>
    <property name="distort">0</property>
    <property name="kdenlive:collapsed">0</property>
   </filter>
   <filter id="filter82" out="00:00:00,067">
    <property name="start">0</property>
    <property name="mlt_service">brightness</property>
    <property name="kdenlive_id">fade_from_black</property>
    <property name="end">1</property>
    <property name="alpha">-1</property>
   </filter>
  </entry>
  <entry producer="producer71" in="00:00:00,000" out="00:00:04,800">
   <property name="kdenlive:id">66</property>
   <filter id="filter83">
    <property name="rotate_center">1</property>
    <property name="mlt_service">qtblend</property>
    <property name="kdenlive_id">qtblend</property>
    <property name="rect">00:00:00,000=-1918 0 1920 1080 1;00:00:00,267=0 0 1920 1080 1;00:00:03,900=316 0 1920 1080 1;00:00:04,033=128 0 1920 1080 1;00:00:04,200=1925 0 1920 1080 1</property>
    <property name="rotation">00:00:00,000=0;00:00:00,267=0;00:00:03,900=0;00:00:04,033=0;00:00:04,200=0</property>
    <property name="compositing">0</property>
    <property name="distort">0</property>
    <property name="kdenlive:collapsed">0</property>
   </filter>
  </entry>
  <entry producer="producer52" in="00:00:00,000" out="00:00:04,800">
   <property name="kdenlive:id">68</property>
   <filter id="filter84">
    <property name="rotate_center">1</property>
    <property name="mlt_service">qtblend</property>
    <property name="kdenlive_id">qtblend</property>
    <property name="rect">00:00:00,000=-1918 0 1920 1080 1;00:00:00,267=0 0 1920 1080 1;00:00:03,900=316 0 1920 1080 1;00:00:04,033=128 0 1920 1080 1;00:00:04,200=1925 0 1920 1080 1</property>
    <property name="rotation">00:00:00,000=0;00:00:00,267=0;00:00:03,900=0;00:00:04,033=0;00:00:04,200=0</property>
    <property name="compositing">0</property>
    <property name="distort">0</property>
    <property name="kdenlive:collapsed">0</property>
   </filter>
  </entry>
  <entry producer="producer53" in="00:00:00,000" out="00:00:04,800">
   <property name="kdenlive:id">69</property>
   <filter id="filter86">
    <property name="rotate_center">1</property>
    <property name="mlt_service">qtblend</property>
    <property name="kdenlive_id">qtblend</property>
    <property name="rect">00:00:00,000=-1918 0 1920 1080 1;00:00:00,267=0 0 1920 1080 1;00:00:03,900=316 0 1920 1080 1;00:00:04,033=128 0 1920 1080 1;00:00:04,200=1925 0 1920 1080 1</property>
    <property name="rotation">00:00:00,000=0;00:00:00,267=0;00:00:03,900=0;00:00:04,033=0;00:00:04,200=0</property>
    <property name="compositing">0</property>
    <property name="distort">0</property>
    <property name="kdenlive:collapsed">0</property>
   </filter>
  </entry>
  <blank length="00:00:02,333"/>
  <entry producer="producer54" in="00:00:00,000" out="00:00:04,800">
   <property name="kdenlive:id">70</property>
   <filter id="filter87">
    <property name="rotate_center">1</property>
    <property name="mlt_service">qtblend</property>
    <property name="kdenlive_id">qtblend</property>
    <property name="rect">00:00:00,000=-1918 0 1920 1080 1;00:00:00,267=0 0 1920 1080 1;00:00:03,900=316 0 1920 1080 1;00:00:04,033=128 0 1920 1080 1;00:00:04,200=1925 0 1920 1080 1</property>
    <property name="rotation">00:00:00,000=0;00:00:00,267=0;00:00:03,900=0;00:00:04,033=0;00:00:04,200=0</property>
    <property name="compositing">0</property>
    <property name="distort">0</property>
    <property name="kdenlive:collapsed">0</property>
   </filter>
  </entry>
  <entry producer="producer56" in="00:00:00,000" out="00:00:04,800">
   <property name="kdenlive:id">71</property>
   <filter id="filter88">
    <property name="rotate_center">1</property>
    <property name="mlt_service">qtblend</property>
    <property name="kdenlive_id">qtblend</property>
    <property name="rect">00:00:00,000=-1918 0 1920 1080 1;00:00:00,267=0 0 1920 1080 1;00:00:03,900=316 0 1920 1080 1;00:00:04,033=128 0 1920 1080 1;00:00:04,200=1925 0 1920 1080 1</property>
    <property name="rotation">00:00:00,000=0;00:00:00,267=0;00:00:03,900=0;00:00:04,033=0;00:00:04,200=0</property>
    <property name="compositing">0</property>
    <property name="distort">0</property>
    <property name="kdenlive:collapsed">0</property>
   </filter>
  </entry>
  <entry producer="producer57" in="00:00:00,000" out="00:00:04,800">
   <property name="kdenlive:id">72</property>
   <filter id="filter89">
    <property name="rotate_center">1</property>
    <property name="mlt_service">qtblend</property>
    <property name="kdenlive_id">qtblend</property>
    <property name="rect">00:00:00,000=-1918 0 1920 1080 1;00:00:00,267=0 0 1920 1080 1;00:00:03,900=316 0 1920 1080 1;00:00:04,033=128 0 1920 1080 1;00:00:04,200=1925 0 1920 1080 1</property>
    <property name="rotation">00:00:00,000=0;00:00:00,267=0;00:00:03,900=0;00:00:04,033=0;00:00:04,200=0</property>
    <property name="compositing">0</property>
    <property name="distort">0</property>
    <property name="kdenlive:collapsed">0</property>
   </filter>
  </entry>
  <entry producer="producer58" in="00:00:00,000" out="00:00:04,800">
   <property name="kdenlive:id">73</property>
   <filter id="filter90">
    <property name="rotate_center">1</property>
    <property name="mlt_service">qtblend</property>
    <property name="kdenlive_id">qtblend</property>
    <property name="rect">00:00:00,000=-1918 0 1920 1080 1;00:00:00,267=0 0 1920 1080 1;00:00:03,900=316 0 1920 1080 1;00:00:04,033=128 0 1920 1080 1;00:00:04,200=1925 0 1920 1080 1</property>
    <property name="rotation">00:00:00,000=0;00:00:00,267=0;00:00:03,900=0;00:00:04,033=0;00:00:04,200=0</property>
    <property name="compositing">0</property>
    <property name="distort">0</property>
    <property name="kdenlive:collapsed">0</property>
   </filter>
  </entry>
  <entry producer="producer59" in="00:00:00,000" out="00:00:04,800">
   <property name="kdenlive:id">74</property>
   <filter id="filter91">
    <property name="rotate_center">1</property>
    <property name="mlt_service">qtblend</property>
    <property name="kdenlive_id">qtblend</property>
    <property name="rect">00:00:00,000=-1918 0 1920 1080 1;00:00:00,267=0 0 1920 1080 1;00:00:03,900=316 0 1920 1080 1;00:00:04,033=128 0 1920 1080 1;00:00:04,200=1925 0 1920 1080 1</property>
    <property name="rotation">00:00:00,000=0;00:00:00,267=0;00:00:03,900=0;00:00:04,033=0;00:00:04,200=0</property>
    <property name="compositing">0</property>
    <property name="distort">0</property>
    <property name="kdenlive:collapsed">0</property>
   </filter>
  </entry>
  <blank length="00:00:02,200"/>
  <entry producer="producer72" in="00:00:00,000" out="00:00:04,800">
   <property name="kdenlive:id">75</property>
   <filter id="filter92">
    <property name="rotate_center">1</property>
    <property name="mlt_service">qtblend</property>
    <property name="kdenlive_id">qtblend</property>
    <property name="rect">00:00:00,000=-1918 0 1920 1080 1;00:00:00,267=0 0 1920 1080 1;00:00:03,900=316 0 1920 1080 1;00:00:04,033=128 0 1920 1080 1;00:00:04,200=1925 0 1920 1080 1</property>
    <property name="rotation">00:00:00,000=0;00:00:00,267=0;00:00:03,900=0;00:00:04,033=0;00:00:04,200=0</property>
    <property name="compositing">0</property>
    <property name="distort">0</property>
    <property name="kdenlive:collapsed">0</property>
   </filter>
  </entry>
  <entry producer="producer84" in="00:00:00,000" out="00:00:04,800">
   <property name="kdenlive:id">33</property>
   <property name="kdenlive:activeeffect">0</property>
   <filter id="filter93">
    <property name="rotate_center">1</property>
    <property name="mlt_service">qtblend</property>
    <property name="kdenlive_id">qtblend</property>
    <property name="rect">00:00:00,000=1210 402 426 338 1;00:00:04,800=1247 442 426 338 1</property>
    <property name="rotation">00:00:00,000=0;00:00:04,800=0</property>
    <property name="compositing">0</property>
    <property name="distort">0</property>
    <property name="kdenlive:collapsed">0</property>
   </filter>
  </entry>
  <entry producer="producer61" in="00:00:00,000" out="00:00:04,800">
   <property name="kdenlive:id">77</property>
   <property name="kdenlive:activeeffect">0</property>
   <filter id="filter94">
    <property name="rotate_center">1</property>
    <property name="mlt_service">qtblend</property>
    <property name="kdenlive_id">qtblend</property>
    <property name="rect">00:00:00,000=-1918 0 1920 1080 1;00:00:00,267=0 0 1920 1080 1;00:00:03,900=316 0 1920 1080 1;00:00:04,033=128 0 1920 1080 1;00:00:04,200=1925 0 1920 1080 1</property>
    <property name="rotation">00:00:00,000=0;00:00:00,267=0;00:00:03,900=0;00:00:04,033=0;00:00:04,200=0</property>
    <property name="compositing">0</property>
    <property name="distort">0</property>
    <property name="kdenlive:collapsed">0</property>
   </filter>
  </entry>
  <entry producer="producer87" in="00:00:00,000" out="00:00:02,167">
   <property name="kdenlive:id">97</property>
   <filter id="filter95">
    <property name="rotate_center">1</property>
    <property name="mlt_service">qtblend</property>
    <property name="kdenlive_id">qtblend</property>
    <property name="rect">00:00:00,000=96 54 1728 972 1;00:00:02,367=0 0 1920 1080 1</property>
    <property name="rotation">00:00:00,000=0;00:00:02,367=0</property>
    <property name="compositing">0</property>
    <property name="distort">0</property>
    <property name="kdenlive:collapsed">0</property>
   </filter>
   <filter id="filter96">
    <property name="background">colour:0</property>
    <property name="mlt_service">affine</property>
    <property name="kdenlive_id">affinerotate</property>
    <property name="transition.rotate_x">0=0;6=0;71=0</property>
    <property name="transition.rotate_y">0=0;6=0;71=0</property>
    <property name="transition.rotate_z">0=54;6=0;71=0</property>
    <property name="transition.ox">0=0;6=0;71=0</property>
    <property name="transition.oy">0=0;6=0;71=0</property>
    <property name="producer.resource">0x00000000</property>
    <property name="transition.keyed">1</property>
    <property name="kdenlive:collapsed">0</property>
   </filter>
  </entry>
  <entry producer="producer62" in="00:00:00,000" out="00:00:04,800">
   <property name="kdenlive:id">78</property>
   <filter id="filter97">
    <property name="rotate_center">1</property>
    <property name="mlt_service">qtblend</property>
    <property name="kdenlive_id">qtblend</property>
    <property name="rect">00:00:00,000=-1918 0 1920 1080 1;00:00:00,267=0 0 1920 1080 1;00:00:03,900=316 0 1920 1080 1;00:00:04,033=128 0 1920 1080 1;00:00:04,200=1925 0 1920 1080 1</property>
    <property name="rotation">00:00:00,000=0;00:00:00,267=0;00:00:03,900=0;00:00:04,033=0;00:00:04,200=0</property>
    <property name="compositing">0</property>
    <property name="distort">0</property>
    <property name="kdenlive:collapsed">0</property>
   </filter>
  </entry>
  <entry producer="producer64" in="00:00:00,000" out="00:00:04,800">
   <property name="kdenlive:id">80</property>
   <filter id="filter98">
    <property name="rotate_center">1</property>
    <property name="mlt_service">qtblend</property>
    <property name="kdenlive_id">qtblend</property>
    <property name="rect">00:00:00,000=-1918 0 1920 1080 1;00:00:00,267=0 0 1920 1080 1;00:00:03,900=316 0 1920 1080 1;00:00:04,033=128 0 1920 1080 1;00:00:04,200=1925 0 1920 1080 1</property>
    <property name="rotation">00:00:00,000=0;00:00:00,267=0;00:00:03,900=0;00:00:04,033=0;00:00:04,200=0</property>
    <property name="compositing">0</property>
    <property name="distort">0</property>
    <property name="kdenlive:collapsed">0</property>
   </filter>
  </entry>
  <entry producer="producer65" in="00:00:00,000" out="00:00:04,800">
   <property name="kdenlive:id">81</property>
   <filter id="filter99">
    <property name="rotate_center">1</property>
    <property name="mlt_service">qtblend</property>
    <property name="kdenlive_id">qtblend</property>
    <property name="rect">00:00:00,000=-1918 0 1920 1080 1;00:00:00,267=0 0 1920 1080 1;00:00:03,900=316 0 1920 1080 1;00:00:04,033=128 0 1920 1080 1;00:00:04,200=1925 0 1920 1080 1</property>
    <property name="rotation">00:00:00,000=0;00:00:00,267=0;00:00:03,900=0;00:00:04,033=0;00:00:04,200=0</property>
    <property name="compositing">0</property>
    <property name="distort">0</property>
    <property name="kdenlive:collapsed">0</property>
   </filter>
  </entry>
  <blank length="00:00:14,800"/>
  <entry producer="producer75" in="00:00:00,000" out="00:00:04,133">
   <property name="kdenlive:id">84</property>
   <property name="kdenlive:activeeffect">0</property>
   <filter id="filter100">
    <property name="rotate_center">1</property>
    <property name="mlt_service">qtblend</property>
    <property name="kdenlive_id">qtblend</property>
    <property name="rect">0=0 -700 1920 1080 1;8=0 -27 1920 1080 0,994527;114=0 -3 1920 1080 0,949894;117=0 -26 1920 1080 0,95;120=0 -3 1920 1080 0,947368;123=1 613 1920 1080 0,986842;124=2 819 1920 1080 1</property>
    <property name="rotation">0=0;8=0;114=0;117=0;120=0;123=0;124=0</property>
    <property name="compositing">0</property>
    <property name="distort">0</property>
    <property name="kdenlive:collapsed">0</property>
   </filter>
  </entry>
  <blank length="00:00:00,300"/>
  <entry producer="producer22" in="00:00:00,000" out="00:00:03,900">
   <property name="kdenlive:id">6</property>
   <filter id="filter101">
    <property name="background">colour:0</property>
    <property name="mlt_service">affine</property>
    <property name="kdenlive_id">pan_zoom</property>
    <property name="transition.geometry">0=76 42 1764 992;117=-96 -54 2112 1188</property>
    <property name="transition.distort">0</property>
    <property name="use_normalised">0</property>
    <property name="producer.resource">/home/sherlock/Video/7alpha/0x00000000</property>
    <property name="kdenlive:collapsed">0</property>
   </filter>
   <filter id="filter102" out="00:00:00,033">
    <property name="start">0</property>
    <property name="mlt_service">brightness</property>
    <property name="kdenlive_id">fade_from_black</property>
    <property name="end">1</property>
    <property name="alpha">-1</property>
    <property name="kdenlive:collapsed">0</property>
   </filter>
   <filter id="filter103">
    <property name="background">colour:0</property>
    <property name="mlt_service">affine</property>
    <property name="kdenlive_id">affinerotate</property>
    <property name="transition.rotate_x">0~=0;112~=0;117~=0</property>
    <property name="transition.rotate_y">0~=0;112~=0;117~=0</property>
    <property name="transition.rotate_z">0~=-0,0131463;112~=0;117~=90</property>
    <property name="transition.ox">0~=0;112~=0;117~=0</property>
    <property name="transition.oy">0~=0;112~=0;117~=0</property>
    <property name="producer.resource">/home/sherlock/Video/7alpha/0x00000000</property>
    <property name="transition.keyed">1</property>
    <property name="kdenlive:collapsed">0</property>
   </filter>
  </entry>
 </playlist>
 <playlist id="playlist15"/>
 <tractor id="tractor7" in="00:00:00,000" out="00:02:04,833">
  <property name="kdenlive:trackheight">75</property>
  <property name="kdenlive:collapsed">28</property>
  <property name="kdenlive:thumbs_format"/>
  <property name="kdenlive:audio_rec"/>
  <property name="kdenlive:timeline_active">1</property>
  <track hide="audio" producer="playlist14"/>
  <track hide="both" producer="playlist15"/>
 </tractor>
 <tractor title="Anonymous Submission" id="tractor8" global_feed="1" in="00:00:00,000" out="00:18:54,767">
  <track producer="black_track"/>
  <track producer="tractor0"/>
  <track producer="tractor1"/>
  <track producer="tractor2"/>
  <track producer="tractor3"/>
  <track producer="tractor4"/>
  <track producer="tractor5"/>
  <track producer="tractor6"/>
  <track producer="tractor7"/>
  <transition id="transition0">
   <property name="a_track">0</property>
   <property name="b_track">1</property>
   <property name="mlt_service">mix</property>
   <property name="kdenlive_id">mix</property>
   <property name="internal_added">237</property>
   <property name="always_active">1</property>
   <property name="sum">1</property>
  </transition>
  <transition id="transition1">
   <property name="a_track">0</property>
   <property name="b_track">2</property>
   <property name="mlt_service">mix</property>
   <property name="kdenlive_id">mix</property>
   <property name="internal_added">237</property>
   <property name="always_active">1</property>
   <property name="sum">1</property>
  </transition>
  <transition id="transition2" in="00:00:41,700" out="00:00:41,733">
   <property name="a_track">6</property>
   <property name="b_track">7</property>
   <property name="start">0/0:100%x100%</property>
   <property name="factory">loader</property>
   <property name="aligned">0</property>
   <property name="progressive">1</property>
   <property name="mlt_service">composite</property>
   <property name="kdenlive_id">wipe</property>
   <property name="softness">0</property>
   <property name="luma"/>
   <property name="luma_invert">0</property>
   <property name="geometry">0%/0%:100%x100%:100;-1=0%/0%:100%x100%:0</property>
   <property name="fill">1</property>
  </transition>
  <transition id="transition3" in="00:01:56,100" out="00:01:56,133">
   <property name="a_track">6</property>
   <property name="b_track">7</property>
   <property name="start">0/0:100%x100%</property>
   <property name="factory">loader</property>
   <property name="aligned">0</property>
   <property name="progressive">1</property>
   <property name="mlt_service">composite</property>
   <property name="kdenlive_id">wipe</property>
   <property name="softness">0</property>
   <property name="luma"/>
   <property name="luma_invert">0</property>
   <property name="geometry">0%/0%:100%x100%:0;-1=0%/0%:100%x100%:100</property>
   <property name="fill">1</property>
  </transition>
  <transition id="transition4" in="00:01:15,267" out="00:01:15,267">
   <property name="a_track">5</property>
   <property name="b_track">6</property>
   <property name="start">0/0:100%x100%</property>
   <property name="factory">loader</property>
   <property name="aligned">0</property>
   <property name="progressive">1</property>
   <property name="mlt_service">composite</property>
   <property name="kdenlive_id">wipe</property>
   <property name="softness">0</property>
   <property name="luma"/>
   <property name="luma_invert">0</property>
   <property name="geometry">0%/0%:100%x100%:100;-1=0%/0%:100%x100%:0</property>
   <property name="fill">1</property>
  </transition>
  <transition id="transition5" in="00:01:31,667" out="00:01:31,967">
   <property name="a_track">5</property>
   <property name="b_track">6</property>
   <property name="start">0/0:100%x100%</property>
   <property name="factory">loader</property>
   <property name="aligned">0</property>
   <property name="progressive">1</property>
   <property name="mlt_service">composite</property>
   <property name="kdenlive_id">wipe</property>
   <property name="softness">0</property>
   <property name="luma"/>
   <property name="luma_invert">0</property>
   <property name="geometry">0%/0%:100%x100%:100;-1=0%/0%:100%x100%:0</property>
   <property name="fill">1</property>
  </transition>
  <transition id="transition6" in="00:00:31,800" out="00:00:32,067">
   <property name="a_track">5</property>
   <property name="b_track">6</property>
   <property name="start">0/0:100%x100%</property>
   <property name="factory">loader</property>
   <property name="aligned">0</property>
   <property name="progressive">1</property>
   <property name="mlt_service">composite</property>
   <property name="kdenlive_id">wipe</property>
   <property name="softness">0</property>
   <property name="luma"/>
   <property name="luma_invert">0</property>
   <property name="geometry">0%/0%:100%x100%:100;-1=0%/0%:100%x100%:0</property>
   <property name="fill">1</property>
  </transition>
  <transition id="transition7" in="00:00:58,400" out="00:00:58,567">
   <property name="a_track">5</property>
   <property name="b_track">6</property>
   <property name="start">0/0:100%x100%</property>
   <property name="factory">loader</property>
   <property name="aligned">0</property>
   <property name="progressive">1</property>
   <property name="mlt_service">composite</property>
   <property name="kdenlive_id">wipe</property>
   <property name="softness">0</property>
   <property name="luma"/>
   <property name="luma_invert">0</property>
   <property name="geometry">0%/0%:100%x100%:0;-1=0%/0%:100%x100%:100</property>
   <property name="fill">1</property>
  </transition>
  <transition id="transition8" in="00:00:53,667" out="00:00:53,733">
   <property name="a_track">5</property>
   <property name="b_track">6</property>
   <property name="start">0/0:100%x100%</property>
   <property name="factory">loader</property>
   <property name="aligned">0</property>
   <property name="progressive">1</property>
   <property name="mlt_service">composite</property>
   <property name="kdenlive_id">wipe</property>
   <property name="softness">0</property>
   <property name="luma"/>
   <property name="luma_invert">0</property>
   <property name="geometry">0%/0%:100%x100%:100;-1=0%/0%:100%x100%:0</property>
   <property name="fill">1</property>
  </transition>
  <transition id="transition9">
   <property name="a_track">0</property>
   <property name="b_track">3</property>
   <property name="compositing">0</property>
   <property name="distort">0</property>
   <property name="rotate_center">0</property>
   <property name="mlt_service">qtblend</property>
   <property name="kdenlive_id">qtblend</property>
   <property name="internal_added">237</property>
   <property name="always_active">1</property>
  </transition>
  <transition id="transition10">
   <property name="a_track">0</property>
   <property name="b_track">4</property>
   <property name="compositing">0</property>
   <property name="distort">0</property>
   <property name="rotate_center">0</property>
   <property name="mlt_service">qtblend</property>
   <property name="kdenlive_id">qtblend</property>
   <property name="internal_added">237</property>
   <property name="always_active">1</property>
  </transition>
  <transition id="transition11">
   <property name="a_track">0</property>
   <property name="b_track">5</property>
   <property name="compositing">0</property>
   <property name="distort">0</property>
   <property name="rotate_center">0</property>
   <property name="mlt_service">qtblend</property>
   <property name="kdenlive_id">qtblend</property>
   <property name="internal_added">237</property>
   <property name="always_active">1</property>
  </transition>
  <transition id="transition12">
   <property name="a_track">0</property>
   <property name="b_track">6</property>
   <property name="compositing">0</property>
   <property name="distort">0</property>
   <property name="rotate_center">0</property>
   <property name="mlt_service">qtblend</property>
   <property name="kdenlive_id">qtblend</property>
   <property name="internal_added">237</property>
   <property name="always_active">1</property>
  </transition>
  <transition id="transition13">
   <property name="a_track">0</property>
   <property name="b_track">7</property>
   <property name="compositing">0</property>
   <property name="distort">0</property>
   <property name="rotate_center">0</property>
   <property name="mlt_service">qtblend</property>
   <property name="kdenlive_id">qtblend</property>
   <property name="internal_added">237</property>
   <property name="always_active">1</property>
  </transition>
  <transition id="transition14">
   <property name="a_track">0</property>
   <property name="b_track">8</property>
   <property name="compositing">0</property>
   <property name="distort">0</property>
   <property name="rotate_center">0</property>
   <property name="mlt_service">qtblend</property>
   <property name="kdenlive_id">qtblend</property>
   <property name="internal_added">237</property>
   <property name="always_active">1</property>
  </transition>
  <filter id="filter104">
   <property name="window">75</property>
   <property name="max_gain">20dB</property>
   <property name="mlt_service">volume</property>
   <property name="internal_added">237</property>
   <property name="disable">1</property>
  </filter>
  <filter id="filter105">
   <property name="channel">-1</property>
   <property name="mlt_service">panner</property>
   <property name="internal_added">237</property>
   <property name="start">0,5</property>
   <property name="disable">1</property>
  </filter>
  <filter id="filter106">
   <property name="iec_scale">0</property>
   <property name="mlt_service">audiolevel</property>
   <property name="disable">1</property>
  </filter>
 </tractor>
</mlt>
